# MagicaVoxel @ Ephtracy

# group
o 

# material
mtllib couch.mtl
usemtl palette

# normals
vn -1 0 0
vn 1 0 0
vn 0 0 1
vn 0 0 -1
vn 0 -1 0
vn 0 1 0

# texcoords
vt 0.666016 0.5
vt 0.669922 0.5
vt 0.673828 0.5

# verts
v -2.3 -1.5 1.3
v -2.3 -1.5 -1.4
v -2.3 0.5 1.3
v -2.3 0.5 -1.4
v -1.9 0.5 -0.7
v -1.9 0.5 -1.1
v -1.9 1.6 -0.7
v -1.9 1.6 -1.1
v 1.9 -1.5 1.3
v 1.9 -1.5 1.1
v 1.9 -0.8 1.3
v 1.9 -0.8 1.1
v 1.9 -0.2 1.3
v 1.9 -0.2 -0.7
v 1.9 0.5 1.3
v 1.9 0.5 -0.7
v -1.9 -1.5 1.3
v -1.9 -1.5 1.1
v -1.9 -0.8 1.3
v -1.9 -0.8 1.2
v -1.9 -0.8 1.1
v -1.9 -0.2 1.3
v -1.9 -0.2 -0.7
v -1.9 0.5 1.3
v -1.9 0.5 -0.7
v 1.9 0.5 -0.7
v 1.9 0.5 -1.1
v 1.9 1.6 -0.7
v 1.9 1.6 -1.1
v 2.3 -1.5 1.3
v 2.3 -1.5 -1.4
v 2.3 0.5 1.3
v 2.3 0.5 -1.4
v -2.3 -1.5 1.3
v -2.3 0.5 1.3
v -1.9 -1.5 1.3
v -1.9 -0.8 1.3
v -1.9 -0.2 1.3
v -1.9 0.5 1.3
v -1.8 -0.8 1.3
v -1.8 -0.2 1.3
v -0.0999999 -0.8 1.3
v -0.0999999 -0.2 1.3
v 0.1 -0.8 1.3
v 0.1 -0.2 1.3
v 1.8 -0.8 1.3
v 1.8 -0.2 1.3
v 1.9 -1.5 1.3
v 1.9 -0.8 1.3
v 1.9 -0.2 1.3
v 1.9 0.5 1.3
v 2.3 -1.5 1.3
v 2.3 0.5 1.3
v -1.9 -1.5 1.1
v -1.9 -0.8 1.1
v -1.8 -0.8 1.1
v -0.0999999 -0.8 1.1
v 0.1 -0.8 1.1
v 1.8 -0.8 1.1
v 1.9 -1.5 1.1
v 1.9 -0.8 1.1
v -1.9 -0.2 -0.7
v -1.9 0.5 -0.7
v -1.9 1.6 -0.7
v -1.8 -0.2 -0.7
v -1.8 1.6 -0.7
v -0.0999999 -0.2 -0.7
v -0.0999999 1.6 -0.7
v 0.1 -0.2 -0.7
v 0.1 1.6 -0.7
v 1.8 -0.2 -0.7
v 1.8 1.6 -0.7
v 1.9 -0.2 -0.7
v 1.9 0.5 -0.7
v 1.9 1.6 -0.7
v -1.9 0.5 -1.1
v -1.9 1.6 -1.1
v -1.8 0.5 -1.1
v -1.8 1.6 -1.1
v -0.0999999 0.5 -1.1
v -0.0999999 1.6 -1.1
v 0.1 0.5 -1.1
v 0.1 1.6 -1.1
v 1.8 0.5 -1.1
v 1.8 1.6 -1.1
v 1.9 0.5 -1.1
v 1.9 1.6 -1.1
v -2.3 -1.5 -1.4
v -2.3 0.5 -1.4
v 2.3 -1.5 -1.4
v 2.3 0.5 -1.4
v -2.3 -1.5 1.3
v -1.9 -1.5 1.3
v 1.9 -1.5 1.3
v 2.3 -1.5 1.3
v -1.9 -1.5 1.1
v 1.9 -1.5 1.1
v -2.3 -1.5 -1.4
v 2.3 -1.5 -1.4
v -1.9 -0.8 1.3
v -1.8 -0.8 1.3
v -0.0999999 -0.8 1.3
v 0.1 -0.8 1.3
v 1.8 -0.8 1.3
v 1.9 -0.8 1.3
v -1.9 -0.8 1.2
v -1.8 -0.8 1.2
v -1.9 -0.8 1.1
v -1.8 -0.8 1.1
v -0.0999999 -0.8 1.1
v 0.1 -0.8 1.1
v 1.8 -0.8 1.1
v 1.9 -0.8 1.1
v -1.9 -0.2 1.3
v -1.8 -0.2 1.3
v -0.0999999 -0.2 1.3
v 0.1 -0.2 1.3
v 1.8 -0.2 1.3
v 1.9 -0.2 1.3
v -1.9 -0.2 -0.7
v -1.8 -0.2 -0.7
v -0.0999999 -0.2 -0.7
v 0.1 -0.2 -0.7
v 1.8 -0.2 -0.7
v 1.9 -0.2 -0.7
v -2.3 0.5 1.3
v -1.9 0.5 1.3
v 1.9 0.5 1.3
v 2.3 0.5 1.3
v -1.9 0.5 -0.7
v 1.9 0.5 -0.7
v -1.9 0.5 -1.1
v -1.8 0.5 -1.1
v -0.0999999 0.5 -1.1
v 0.1 0.5 -1.1
v 1.8 0.5 -1.1
v 1.9 0.5 -1.1
v -2.3 0.5 -1.4
v 2.3 0.5 -1.4
v -1.9 1.6 -0.7
v -1.8 1.6 -0.7
v -0.0999999 1.6 -0.7
v 0.1 1.6 -0.7
v 1.8 1.6 -0.7
v 1.9 1.6 -0.7
v -1.9 1.6 -1.1
v -1.8 1.6 -1.1
v -0.0999999 1.6 -1.1
v 0.1 1.6 -1.1
v 1.8 1.6 -1.1
v 1.9 1.6 -1.1

# faces
f 3/3/1 2/3/1 1/3/1
f 4/3/1 2/3/1 3/3/1
f 7/2/1 6/2/1 5/2/1
f 8/2/1 6/2/1 7/2/1
f 11/3/1 10/3/1 9/3/1
f 12/3/1 10/3/1 11/3/1
f 15/3/1 14/3/1 13/3/1
f 16/3/1 14/3/1 15/3/1
f 17/3/2 18/3/2 19/3/2
f 19/3/2 18/3/2 20/3/2
f 20/3/2 18/3/2 21/3/2
f 22/3/2 23/3/2 24/3/2
f 24/3/2 23/3/2 25/3/2
f 26/2/2 27/2/2 28/2/2
f 28/2/2 27/2/2 29/2/2
f 30/3/2 31/3/2 32/3/2
f 32/3/2 31/3/2 33/3/2
f 36/3/3 35/3/3 34/3/3
f 37/3/3 35/3/3 36/3/3
f 38/3/3 35/3/3 37/3/3
f 39/3/3 35/3/3 38/3/3
f 40/2/3 38/2/3 37/2/3
f 41/2/3 38/2/3 40/2/3
f 42/3/3 41/3/3 40/3/3
f 43/3/3 41/3/3 42/3/3
f 44/2/3 43/2/3 42/2/3
f 45/2/3 43/2/3 44/2/3
f 46/3/3 45/3/3 44/3/3
f 47/3/3 45/3/3 46/3/3
f 49/2/3 47/2/3 46/2/3
f 50/2/3 47/2/3 49/2/3
f 52/3/3 50/3/3 49/3/3
f 52/3/3 51/3/3 50/3/3
f 52/3/3 49/3/3 48/3/3
f 53/3/3 51/3/3 52/3/3
f 56/3/3 55/3/3 54/3/3
f 57/3/3 56/3/3 54/3/3
f 58/3/3 57/3/3 54/3/3
f 59/3/3 58/3/3 54/3/3
f 60/3/3 59/3/3 54/3/3
f 61/3/3 59/3/3 60/3/3
f 65/2/3 63/2/3 62/2/3
f 65/2/3 64/2/3 63/2/3
f 66/2/3 64/2/3 65/2/3
f 67/3/3 66/3/3 65/3/3
f 68/3/3 66/3/3 67/3/3
f 69/2/3 68/2/3 67/2/3
f 70/2/3 68/2/3 69/2/3
f 71/3/3 70/3/3 69/3/3
f 72/3/3 70/3/3 71/3/3
f 73/2/3 72/2/3 71/2/3
f 74/2/3 72/2/3 73/2/3
f 75/2/3 72/2/3 74/2/3
f 76/2/4 77/2/4 78/2/4
f 78/2/4 77/2/4 79/2/4
f 78/3/4 79/3/4 80/3/4
f 80/3/4 79/3/4 81/3/4
f 80/2/4 81/2/4 82/2/4
f 82/2/4 81/2/4 83/2/4
f 82/3/4 83/3/4 84/3/4
f 84/3/4 83/3/4 85/3/4
f 84/2/4 85/2/4 86/2/4
f 86/2/4 85/2/4 87/2/4
f 88/3/4 89/3/4 90/3/4
f 90/3/4 89/3/4 91/3/4
f 96/3/5 93/3/5 92/3/5
f 97/3/5 95/3/5 94/3/5
f 98/3/5 96/3/5 92/3/5
f 98/3/5 97/3/5 96/3/5
f 99/3/5 95/3/5 97/3/5
f 99/3/5 97/3/5 98/3/5
f 106/2/5 101/2/5 100/2/5
f 107/3/5 102/3/5 101/3/5
f 107/2/5 101/2/5 106/2/5
f 108/1/5 107/1/5 106/1/5
f 109/3/5 102/3/5 107/3/5
f 109/1/5 107/1/5 108/1/5
f 110/2/5 103/2/5 102/2/5
f 110/3/5 102/3/5 109/3/5
f 111/3/5 104/3/5 103/3/5
f 111/2/5 103/2/5 110/2/5
f 112/2/5 105/2/5 104/2/5
f 112/3/5 104/3/5 111/3/5
f 113/2/5 105/2/5 112/2/5
f 114/2/6 115/2/6 120/2/6
f 115/3/6 116/3/6 121/3/6
f 120/2/6 115/2/6 121/2/6
f 116/2/6 117/2/6 122/2/6
f 121/3/6 116/3/6 122/3/6
f 117/3/6 118/3/6 123/3/6
f 122/2/6 117/2/6 123/2/6
f 118/2/6 119/2/6 124/2/6
f 123/3/6 118/3/6 124/3/6
f 124/2/6 119/2/6 125/2/6
f 126/3/6 127/3/6 130/3/6
f 128/3/6 129/3/6 131/3/6
f 126/3/6 130/3/6 132/3/6
f 131/3/6 129/3/6 137/3/6
f 135/3/6 136/3/6 138/3/6
f 136/3/6 137/3/6 138/3/6
f 126/3/6 132/3/6 138/3/6
f 132/3/6 133/3/6 138/3/6
f 134/3/6 135/3/6 138/3/6
f 133/3/6 134/3/6 138/3/6
f 137/3/6 129/3/6 139/3/6
f 138/3/6 137/3/6 139/3/6
f 140/2/6 141/2/6 146/2/6
f 141/3/6 142/3/6 147/3/6
f 146/2/6 141/2/6 147/2/6
f 142/2/6 143/2/6 148/2/6
f 147/3/6 142/3/6 148/3/6
f 143/3/6 144/3/6 149/3/6
f 148/2/6 143/2/6 149/2/6
f 144/2/6 145/2/6 150/2/6
f 149/3/6 144/3/6 150/3/6
f 150/2/6 145/2/6 151/2/6
