# MagicaVoxel @ Ephtracy

# group
o 

# material
mtllib frame.mtl
usemtl palette

# normals
vn -1 0 0
vn 1 0 0
vn 0 0 1
vn 0 0 -1
vn 0 -1 0
vn 0 1 0

# texcoords
vt 0.0332031 0.5
vt 0.337891 0.5
vt 0.587891 0.5
vt 0.611328 0.5

# verts
v -1.2 -1 0
v -1.2 -1 -0.1
v -1.2 1 0
v -1.2 1 -0.1
v 1.2 -1 0
v 1.2 -1 -0.1
v 1.2 1 0
v 1.2 1 -0.1
v -1.2 -1 0
v -1.2 1 0
v -1 -0.8 0
v -1 0.8 0
v -0.8 -0.6 0
v -0.8 0.6 0
v -0.6 0.4 0
v -0.6 0.6 0
v -0.5 0.1 0
v -0.5 0.4 0
v -0.4 -0.1 0
v -0.4 0.1 0
v -0.3 -0.4 0
v -0.3 -0.1 0
v -0.2 -0.6 0
v -0.2 -0.4 0
v -0.2 0.4 0
v -0.2 0.6 0
v -0.1 0.1 0
v -0.1 0.4 0
v 0 -0.1 0
v 0 0.1 0
v 0.0999999 -0.4 0
v 0.0999999 -0.1 0
v 0.2 -0.6 0
v 0.2 -0.4 0
v 0.2 0.4 0
v 0.2 0.6 0
v 0.3 0.1 0
v 0.3 0.4 0
v 0.4 -0.1 0
v 0.4 0.1 0
v 0.5 -0.4 0
v 0.5 -0.1 0
v 0.6 -0.6 0
v 0.6 -0.4 0
v 0.8 -0.6 0
v 0.8 0.6 0
v 1 -0.8 0
v 1 0.8 0
v 1.2 -1 0
v 1.2 1 0
v -1.2 -1 -0.1
v -1.2 1 -0.1
v -1 -0.8 -0.1
v -1 0.8 -0.1
v -0.8 -0.6 -0.1
v -0.8 0.6 -0.1
v -0.6 0.4 -0.1
v -0.6 0.6 -0.1
v -0.5 0.1 -0.1
v -0.5 0.4 -0.1
v -0.4 -0.1 -0.1
v -0.4 0.1 -0.1
v -0.3 -0.4 -0.1
v -0.3 -0.1 -0.1
v -0.2 -0.6 -0.1
v -0.2 -0.4 -0.1
v -0.2 0.4 -0.1
v -0.2 0.6 -0.1
v -0.1 0.1 -0.1
v -0.1 0.4 -0.1
v 0 -0.1 -0.1
v 0 0.1 -0.1
v 0.0999999 -0.4 -0.1
v 0.0999999 -0.1 -0.1
v 0.2 -0.6 -0.1
v 0.2 -0.4 -0.1
v 0.2 0.4 -0.1
v 0.2 0.6 -0.1
v 0.3 0.1 -0.1
v 0.3 0.4 -0.1
v 0.4 -0.1 -0.1
v 0.4 0.1 -0.1
v 0.5 -0.4 -0.1
v 0.5 -0.1 -0.1
v 0.6 -0.6 -0.1
v 0.6 -0.4 -0.1
v 0.8 -0.6 -0.1
v 0.8 0.6 -0.1
v 1 -0.8 -0.1
v 1 0.8 -0.1
v 1.2 -1 -0.1
v 1.2 1 -0.1
v -1.2 -1 0
v 1.2 -1 0
v -1.2 -1 -0.1
v 1.2 -1 -0.1
v -1.2 1 0
v 1.2 1 0
v -1.2 1 -0.1
v 1.2 1 -0.1

# faces
f 3/2/1 2/2/1 1/2/1
f 4/2/1 2/2/1 3/2/1
f 5/2/2 6/2/2 7/2/2
f 7/2/2 6/2/2 8/2/2
f 11/2/3 10/2/3 9/2/3
f 12/2/3 10/2/3 11/2/3
f 13/1/3 12/1/3 11/1/3
f 14/1/3 12/1/3 13/1/3
f 15/3/3 14/3/3 13/3/3
f 16/1/3 12/1/3 14/1/3
f 16/3/3 14/3/3 15/3/3
f 17/3/3 15/3/3 13/3/3
f 18/4/3 16/4/3 15/4/3
f 18/3/3 15/3/3 17/3/3
f 19/3/3 17/3/3 13/3/3
f 20/4/3 18/4/3 17/4/3
f 20/3/3 17/3/3 19/3/3
f 21/3/3 19/3/3 13/3/3
f 22/4/3 20/4/3 19/4/3
f 22/3/3 19/3/3 21/3/3
f 23/1/3 13/1/3 11/1/3
f 23/3/3 21/3/3 13/3/3
f 24/4/3 22/4/3 21/4/3
f 24/3/3 21/3/3 23/3/3
f 25/4/3 20/4/3 22/4/3
f 25/4/3 22/4/3 24/4/3
f 25/4/3 16/4/3 18/4/3
f 25/4/3 18/4/3 20/4/3
f 26/1/3 12/1/3 16/1/3
f 26/4/3 16/4/3 25/4/3
f 27/4/3 24/4/3 23/4/3
f 27/4/3 25/4/3 24/4/3
f 28/3/3 26/3/3 25/3/3
f 28/4/3 25/4/3 27/4/3
f 29/4/3 27/4/3 23/4/3
f 30/3/3 28/3/3 27/3/3
f 30/4/3 27/4/3 29/4/3
f 31/4/3 29/4/3 23/4/3
f 32/3/3 30/3/3 29/3/3
f 32/4/3 29/4/3 31/4/3
f 33/1/3 23/1/3 11/1/3
f 33/4/3 31/4/3 23/4/3
f 34/3/3 32/3/3 31/3/3
f 34/4/3 31/4/3 33/4/3
f 35/3/3 26/3/3 28/3/3
f 35/3/3 32/3/3 34/3/3
f 35/3/3 30/3/3 32/3/3
f 35/3/3 28/3/3 30/3/3
f 36/1/3 12/1/3 26/1/3
f 36/3/3 26/3/3 35/3/3
f 37/3/3 35/3/3 34/3/3
f 37/3/3 34/3/3 33/3/3
f 38/4/3 36/4/3 35/4/3
f 38/3/3 35/3/3 37/3/3
f 39/3/3 37/3/3 33/3/3
f 40/4/3 38/4/3 37/4/3
f 40/3/3 37/3/3 39/3/3
f 41/3/3 39/3/3 33/3/3
f 42/4/3 40/4/3 39/4/3
f 42/3/3 39/3/3 41/3/3
f 43/1/3 33/1/3 11/1/3
f 43/3/3 41/3/3 33/3/3
f 44/4/3 42/4/3 41/4/3
f 44/3/3 41/3/3 43/3/3
f 45/1/3 43/1/3 11/1/3
f 45/4/3 44/4/3 43/4/3
f 46/1/3 12/1/3 36/1/3
f 46/4/3 44/4/3 45/4/3
f 46/4/3 36/4/3 38/4/3
f 46/4/3 42/4/3 44/4/3
f 46/4/3 38/4/3 40/4/3
f 46/4/3 40/4/3 42/4/3
f 47/2/3 11/2/3 9/2/3
f 47/1/3 45/1/3 11/1/3
f 47/1/3 46/1/3 45/1/3
f 48/1/3 12/1/3 46/1/3
f 48/1/3 46/1/3 47/1/3
f 48/2/3 10/2/3 12/2/3
f 49/2/3 47/2/3 9/2/3
f 49/2/3 48/2/3 47/2/3
f 50/2/3 10/2/3 48/2/3
f 50/2/3 48/2/3 49/2/3
f 51/2/4 52/2/4 53/2/4
f 53/2/4 52/2/4 54/2/4
f 53/1/4 54/1/4 55/1/4
f 55/1/4 54/1/4 56/1/4
f 55/3/4 56/3/4 57/3/4
f 56/1/4 54/1/4 58/1/4
f 57/3/4 56/3/4 58/3/4
f 55/3/4 57/3/4 59/3/4
f 57/4/4 58/4/4 60/4/4
f 59/3/4 57/3/4 60/3/4
f 55/3/4 59/3/4 61/3/4
f 59/4/4 60/4/4 62/4/4
f 61/3/4 59/3/4 62/3/4
f 55/3/4 61/3/4 63/3/4
f 61/4/4 62/4/4 64/4/4
f 63/3/4 61/3/4 64/3/4
f 53/1/4 55/1/4 65/1/4
f 55/3/4 63/3/4 65/3/4
f 63/4/4 64/4/4 66/4/4
f 65/3/4 63/3/4 66/3/4
f 64/4/4 62/4/4 67/4/4
f 66/4/4 64/4/4 67/4/4
f 60/4/4 58/4/4 67/4/4
f 62/4/4 60/4/4 67/4/4
f 58/1/4 54/1/4 68/1/4
f 67/4/4 58/4/4 68/4/4
f 65/4/4 66/4/4 69/4/4
f 66/4/4 67/4/4 69/4/4
f 67/3/4 68/3/4 70/3/4
f 69/4/4 67/4/4 70/4/4
f 65/4/4 69/4/4 71/4/4
f 69/3/4 70/3/4 72/3/4
f 71/4/4 69/4/4 72/4/4
f 65/4/4 71/4/4 73/4/4
f 71/3/4 72/3/4 74/3/4
f 73/4/4 71/4/4 74/4/4
f 53/1/4 65/1/4 75/1/4
f 65/4/4 73/4/4 75/4/4
f 73/3/4 74/3/4 76/3/4
f 75/4/4 73/4/4 76/4/4
f 70/3/4 68/3/4 77/3/4
f 76/3/4 74/3/4 77/3/4
f 74/3/4 72/3/4 77/3/4
f 72/3/4 70/3/4 77/3/4
f 68/1/4 54/1/4 78/1/4
f 77/3/4 68/3/4 78/3/4
f 76/3/4 77/3/4 79/3/4
f 75/3/4 76/3/4 79/3/4
f 77/4/4 78/4/4 80/4/4
f 79/3/4 77/3/4 80/3/4
f 75/3/4 79/3/4 81/3/4
f 79/4/4 80/4/4 82/4/4
f 81/3/4 79/3/4 82/3/4
f 75/3/4 81/3/4 83/3/4
f 81/4/4 82/4/4 84/4/4
f 83/3/4 81/3/4 84/3/4
f 53/1/4 75/1/4 85/1/4
f 75/3/4 83/3/4 85/3/4
f 83/4/4 84/4/4 86/4/4
f 85/3/4 83/3/4 86/3/4
f 53/1/4 85/1/4 87/1/4
f 85/4/4 86/4/4 87/4/4
f 78/1/4 54/1/4 88/1/4
f 87/4/4 86/4/4 88/4/4
f 80/4/4 78/4/4 88/4/4
f 86/4/4 84/4/4 88/4/4
f 82/4/4 80/4/4 88/4/4
f 84/4/4 82/4/4 88/4/4
f 51/2/4 53/2/4 89/2/4
f 53/1/4 87/1/4 89/1/4
f 87/1/4 88/1/4 89/1/4
f 88/1/4 54/1/4 90/1/4
f 89/1/4 88/1/4 90/1/4
f 54/2/4 52/2/4 90/2/4
f 51/2/4 89/2/4 91/2/4
f 89/2/4 90/2/4 91/2/4
f 90/2/4 52/2/4 92/2/4
f 91/2/4 90/2/4 92/2/4
f 95/2/5 94/2/5 93/2/5
f 96/2/5 94/2/5 95/2/5
f 97/2/6 98/2/6 99/2/6
f 99/2/6 98/2/6 100/2/6
