# MagicaVoxel @ Ephtracy

# group
o 

# material
mtllib floor20.mtl
usemtl palette

# normals
vn -1 0 0
vn 1 0 0
vn 0 0 1
vn 0 0 -1
vn 0 -1 0
vn 0 1 0

# texcoords
vt 0.0332031 0.5
vt 0.0371094 0.5
vt 0.0410156 0.5
vt 0.279297 0.5

# verts
v -6 -0.2 6
v -6 -0.2 4.1
v -6 -0.2 4
v -6 -0.2 2.1
v -6 -0.2 2
v -6 -0.2 0.0999999
v -6 -0.2 0
v -6 -0.2 -1.9
v -6 -0.2 -2
v -6 -0.2 -3.9
v -6 -0.2 -4
v -6 -0.2 -6
v -6 0.3 6
v -6 0.3 4.1
v -6 0.3 4
v -6 0.3 2.1
v -6 0.3 2
v -6 0.3 0.0999999
v -6 0.3 0
v -6 0.3 -1.9
v -6 0.3 -2
v -6 0.3 -3.9
v -6 0.3 -4
v -6 0.3 -6
v 6 -0.2 6
v 6 -0.2 4.1
v 6 -0.2 4
v 6 -0.2 2.1
v 6 -0.2 2
v 6 -0.2 0.0999999
v 6 -0.2 0
v 6 -0.2 -1.9
v 6 -0.2 -2
v 6 -0.2 -3.9
v 6 -0.2 -4
v 6 -0.2 -6
v 6 0.3 6
v 6 0.3 4.1
v 6 0.3 4
v 6 0.3 2.1
v 6 0.3 2
v 6 0.3 0.0999999
v 6 0.3 0
v 6 0.3 -1.9
v 6 0.3 -2
v 6 0.3 -3.9
v 6 0.3 -4
v 6 0.3 -6
v -6 -0.2 6
v -6 0.3 6
v -4.1 -0.2 6
v -4.1 0.3 6
v -4 -0.2 6
v -4 0.3 6
v -2.1 -0.2 6
v -2.1 0.3 6
v -2 -0.2 6
v -2 0.3 6
v -0.0999999 -0.2 6
v -0.0999999 0.3 6
v 0 -0.2 6
v 0 0.3 6
v 1.9 -0.2 6
v 1.9 0.3 6
v 2 -0.2 6
v 2 0.3 6
v 3.9 -0.2 6
v 3.9 0.3 6
v 4 -0.2 6
v 4 0.3 6
v 6 -0.2 6
v 6 0.3 6
v -6 -0.2 -6
v -6 0.3 -6
v -4.1 -0.2 -6
v -4.1 0.3 -6
v -4 -0.2 -6
v -4 0.3 -6
v -2.1 -0.2 -6
v -2.1 0.3 -6
v -2 -0.2 -6
v -2 0.3 -6
v -0.0999999 -0.2 -6
v -0.0999999 0.3 -6
v 0 -0.2 -6
v 0 0.3 -6
v 1.9 -0.2 -6
v 1.9 0.3 -6
v 2 -0.2 -6
v 2 0.3 -6
v 3.9 -0.2 -6
v 3.9 0.3 -6
v 4 -0.2 -6
v 4 0.3 -6
v 6 -0.2 -6
v 6 0.3 -6
v -6 -0.2 6
v -4.1 -0.2 6
v -4 -0.2 6
v -2.1 -0.2 6
v -2 -0.2 6
v -0.0999999 -0.2 6
v 0 -0.2 6
v 1.9 -0.2 6
v 2 -0.2 6
v 3.9 -0.2 6
v 4 -0.2 6
v 6 -0.2 6
v -5.9 -0.2 5.9
v -4.1 -0.2 5.9
v -4 -0.2 5.9
v -2.1 -0.2 5.9
v -2 -0.2 5.9
v -0.0999999 -0.2 5.9
v 0 -0.2 5.9
v 1.9 -0.2 5.9
v 2 -0.2 5.9
v 3.9 -0.2 5.9
v 4 -0.2 5.9
v -6 -0.2 4.1
v -5.9 -0.2 4.1
v 2 -0.2 4.1
v 3.9 -0.2 4.1
v 5.9 -0.2 4.1
v 6 -0.2 4.1
v -6 -0.2 4
v -5.9 -0.2 4
v 5.9 -0.2 4
v 6 -0.2 4
v -6 -0.2 2.1
v -5.9 -0.2 2.1
v 5.9 -0.2 2.1
v 6 -0.2 2.1
v -6 -0.2 2
v -5.9 -0.2 2
v -4.1 -0.2 2
v 5.9 -0.2 2
v 6 -0.2 2
v -6 -0.2 0.0999999
v -5.9 -0.2 0.0999999
v -4.1 -0.2 0.0999999
v 5.9 -0.2 0.0999999
v 6 -0.2 0.0999999
v -6 -0.2 0
v -5.9 -0.2 0
v 5.9 -0.2 0
v 6 -0.2 0
v -6 -0.2 -1.9
v -5.9 -0.2 -1.9
v 5.9 -0.2 -1.9
v 6 -0.2 -1.9
v -6 -0.2 -2
v -5.9 -0.2 -2
v -4.1 -0.2 -2
v 5.9 -0.2 -2
v 6 -0.2 -2
v -6 -0.2 -3.9
v -5.9 -0.2 -3.9
v -4.1 -0.2 -3.9
v 5.9 -0.2 -3.9
v 6 -0.2 -3.9
v -6 -0.2 -4
v -5.9 -0.2 -4
v 4 -0.2 -4
v 5.9 -0.2 -4
v 6 -0.2 -4
v -4.1 -0.2 -5.9
v -4 -0.2 -5.9
v -2.1 -0.2 -5.9
v -2 -0.2 -5.9
v -0.0999999 -0.2 -5.9
v 0 -0.2 -5.9
v 1.9 -0.2 -5.9
v 2 -0.2 -5.9
v 3.9 -0.2 -5.9
v 4 -0.2 -5.9
v -6 -0.2 -6
v -4.1 -0.2 -6
v -4 -0.2 -6
v -2.1 -0.2 -6
v -2 -0.2 -6
v -0.0999999 -0.2 -6
v 0 -0.2 -6
v 1.9 -0.2 -6
v 2 -0.2 -6
v 3.9 -0.2 -6
v 4 -0.2 -6
v 6 -0.2 -6
v -6 0.3 6
v -4.1 0.3 6
v -4 0.3 6
v -2.1 0.3 6
v -2 0.3 6
v -0.0999999 0.3 6
v 0 0.3 6
v 1.9 0.3 6
v 2 0.3 6
v 3.9 0.3 6
v 4 0.3 6
v 6 0.3 6
v -6 0.3 4.1
v -4.1 0.3 4.1
v -4 0.3 4.1
v -2.1 0.3 4.1
v -2 0.3 4.1
v -0.0999999 0.3 4.1
v 0 0.3 4.1
v 1.9 0.3 4.1
v 2 0.3 4.1
v 3.9 0.3 4.1
v 4 0.3 4.1
v 6 0.3 4.1
v -6 0.3 4
v -4.1 0.3 4
v -4 0.3 4
v -2.1 0.3 4
v -2 0.3 4
v -0.0999999 0.3 4
v 0 0.3 4
v 1.9 0.3 4
v 2 0.3 4
v 3.9 0.3 4
v 4 0.3 4
v 6 0.3 4
v -6 0.3 2.1
v -4.1 0.3 2.1
v -4 0.3 2.1
v -2.1 0.3 2.1
v -2 0.3 2.1
v -0.0999999 0.3 2.1
v 0 0.3 2.1
v 1.9 0.3 2.1
v 2 0.3 2.1
v 3.9 0.3 2.1
v 4 0.3 2.1
v 6 0.3 2.1
v -6 0.3 2
v -4.1 0.3 2
v -4 0.3 2
v -2.1 0.3 2
v -2 0.3 2
v -0.0999999 0.3 2
v 0 0.3 2
v 1.9 0.3 2
v 2 0.3 2
v 3.9 0.3 2
v 4 0.3 2
v 6 0.3 2
v -6 0.3 0.0999999
v -4.1 0.3 0.0999999
v -4 0.3 0.0999999
v -2.1 0.3 0.0999999
v -2 0.3 0.0999999
v -0.0999999 0.3 0.0999999
v 0 0.3 0.0999999
v 1.9 0.3 0.0999999
v 2 0.3 0.0999999
v 3.9 0.3 0.0999999
v 4 0.3 0.0999999
v 6 0.3 0.0999999
v -6 0.3 0
v -4.1 0.3 0
v -4 0.3 0
v -2.1 0.3 0
v -2 0.3 0
v -0.0999999 0.3 0
v 0 0.3 0
v 1.9 0.3 0
v 2 0.3 0
v 3.9 0.3 0
v 4 0.3 0
v 6 0.3 0
v -6 0.3 -1.9
v -4.1 0.3 -1.9
v -4 0.3 -1.9
v -2.1 0.3 -1.9
v -2 0.3 -1.9
v -0.0999999 0.3 -1.9
v 0 0.3 -1.9
v 1.9 0.3 -1.9
v 2 0.3 -1.9
v 3.9 0.3 -1.9
v 4 0.3 -1.9
v 6 0.3 -1.9
v -6 0.3 -2
v -4.1 0.3 -2
v -4 0.3 -2
v -2.1 0.3 -2
v -2 0.3 -2
v -0.0999999 0.3 -2
v 0 0.3 -2
v 1.9 0.3 -2
v 2 0.3 -2
v 3.9 0.3 -2
v 4 0.3 -2
v 6 0.3 -2
v -6 0.3 -3.9
v -4.1 0.3 -3.9
v -4 0.3 -3.9
v -2.1 0.3 -3.9
v -2 0.3 -3.9
v -0.0999999 0.3 -3.9
v 0 0.3 -3.9
v 1.9 0.3 -3.9
v 2 0.3 -3.9
v 3.9 0.3 -3.9
v 4 0.3 -3.9
v 6 0.3 -3.9
v -6 0.3 -4
v -4.1 0.3 -4
v -4 0.3 -4
v -2.1 0.3 -4
v -2 0.3 -4
v -0.0999999 0.3 -4
v 0 0.3 -4
v 1.9 0.3 -4
v 2 0.3 -4
v 3.9 0.3 -4
v 4 0.3 -4
v 6 0.3 -4
v -6 0.3 -6
v -4.1 0.3 -6
v -4 0.3 -6
v -2.1 0.3 -6
v -2 0.3 -6
v -0.0999999 0.3 -6
v 0 0.3 -6
v 1.9 0.3 -6
v 2 0.3 -6
v 3.9 0.3 -6
v 4 0.3 -6
v 6 0.3 -6

# faces
f 13/2/1 2/2/1 1/2/1
f 14/3/1 3/3/1 2/3/1
f 14/2/1 2/2/1 13/2/1
f 15/1/1 4/1/1 3/1/1
f 15/3/1 3/3/1 14/3/1
f 16/3/1 5/3/1 4/3/1
f 16/1/1 4/1/1 15/1/1
f 17/2/1 6/2/1 5/2/1
f 17/3/1 5/3/1 16/3/1
f 18/3/1 7/3/1 6/3/1
f 18/2/1 6/2/1 17/2/1
f 19/1/1 8/1/1 7/1/1
f 19/3/1 7/3/1 18/3/1
f 20/3/1 9/3/1 8/3/1
f 20/1/1 8/1/1 19/1/1
f 21/2/1 10/2/1 9/2/1
f 21/3/1 9/3/1 20/3/1
f 22/3/1 11/3/1 10/3/1
f 22/2/1 10/2/1 21/2/1
f 23/1/1 12/1/1 11/1/1
f 23/3/1 11/3/1 22/3/1
f 24/1/1 12/1/1 23/1/1
f 25/1/2 26/1/2 37/1/2
f 26/3/2 27/3/2 38/3/2
f 37/1/2 26/1/2 38/1/2
f 27/2/2 28/2/2 39/2/2
f 38/3/2 27/3/2 39/3/2
f 28/3/2 29/3/2 40/3/2
f 39/2/2 28/2/2 40/2/2
f 29/1/2 30/1/2 41/1/2
f 40/3/2 29/3/2 41/3/2
f 30/3/2 31/3/2 42/3/2
f 41/1/2 30/1/2 42/1/2
f 31/2/2 32/2/2 43/2/2
f 42/3/2 31/3/2 43/3/2
f 32/3/2 33/3/2 44/3/2
f 43/2/2 32/2/2 44/2/2
f 33/1/2 34/1/2 45/1/2
f 44/3/2 33/3/2 45/3/2
f 34/3/2 35/3/2 46/3/2
f 45/1/2 34/1/2 46/1/2
f 35/2/2 36/2/2 47/2/2
f 46/3/2 35/3/2 47/3/2
f 47/2/2 36/2/2 48/2/2
f 51/2/3 50/2/3 49/2/3
f 52/2/3 50/2/3 51/2/3
f 53/3/3 52/3/3 51/3/3
f 54/3/3 52/3/3 53/3/3
f 55/1/3 54/1/3 53/1/3
f 56/1/3 54/1/3 55/1/3
f 57/3/3 56/3/3 55/3/3
f 58/3/3 56/3/3 57/3/3
f 59/2/3 58/2/3 57/2/3
f 60/2/3 58/2/3 59/2/3
f 61/3/3 60/3/3 59/3/3
f 62/3/3 60/3/3 61/3/3
f 63/1/3 62/1/3 61/1/3
f 64/1/3 62/1/3 63/1/3
f 65/3/3 64/3/3 63/3/3
f 66/3/3 64/3/3 65/3/3
f 67/2/3 66/2/3 65/2/3
f 68/2/3 66/2/3 67/2/3
f 69/3/3 68/3/3 67/3/3
f 70/3/3 68/3/3 69/3/3
f 71/1/3 70/1/3 69/1/3
f 72/1/3 70/1/3 71/1/3
f 73/1/4 74/1/4 75/1/4
f 75/1/4 74/1/4 76/1/4
f 75/3/4 76/3/4 77/3/4
f 77/3/4 76/3/4 78/3/4
f 77/2/4 78/2/4 79/2/4
f 79/2/4 78/2/4 80/2/4
f 79/3/4 80/3/4 81/3/4
f 81/3/4 80/3/4 82/3/4
f 81/1/4 82/1/4 83/1/4
f 83/1/4 82/1/4 84/1/4
f 83/3/4 84/3/4 85/3/4
f 85/3/4 84/3/4 86/3/4
f 85/2/4 86/2/4 87/2/4
f 87/2/4 86/2/4 88/2/4
f 87/3/4 88/3/4 89/3/4
f 89/3/4 88/3/4 90/3/4
f 89/1/4 90/1/4 91/1/4
f 91/1/4 90/1/4 92/1/4
f 91/3/4 92/3/4 93/3/4
f 93/3/4 92/3/4 94/3/4
f 93/2/4 94/2/4 95/2/4
f 95/2/4 94/2/4 96/2/4
f 109/2/5 98/2/5 97/2/5
f 110/3/5 99/3/5 98/3/5
f 110/2/5 98/2/5 109/2/5
f 111/1/5 100/1/5 99/1/5
f 111/3/5 99/3/5 110/3/5
f 112/3/5 101/3/5 100/3/5
f 112/1/5 100/1/5 111/1/5
f 113/2/5 102/2/5 101/2/5
f 113/3/5 101/3/5 112/3/5
f 114/3/5 103/3/5 102/3/5
f 114/2/5 102/2/5 113/2/5
f 115/1/5 104/1/5 103/1/5
f 115/3/5 103/3/5 114/3/5
f 116/3/5 105/3/5 104/3/5
f 116/1/5 104/1/5 115/1/5
f 117/2/5 106/2/5 105/2/5
f 117/3/5 105/3/5 116/3/5
f 118/3/5 107/3/5 106/3/5
f 118/2/5 106/2/5 117/2/5
f 119/1/5 108/1/5 107/1/5
f 119/3/5 107/3/5 118/3/5
f 120/2/5 109/2/5 97/2/5
f 121/1/5 110/1/5 109/1/5
f 121/2/5 109/2/5 120/2/5
f 121/1/5 111/1/5 110/1/5
f 121/1/5 112/1/5 111/1/5
f 121/1/5 117/1/5 116/1/5
f 121/1/5 116/1/5 115/1/5
f 121/1/5 115/1/5 114/1/5
f 121/1/5 114/1/5 113/1/5
f 121/1/5 113/1/5 112/1/5
f 122/2/5 118/2/5 117/2/5
f 122/1/5 117/1/5 121/1/5
f 123/1/5 119/1/5 118/1/5
f 123/2/5 118/2/5 122/2/5
f 124/1/5 108/1/5 119/1/5
f 124/1/5 119/1/5 123/1/5
f 125/1/5 108/1/5 124/1/5
f 126/3/5 121/3/5 120/3/5
f 127/1/5 123/1/5 122/1/5
f 127/3/5 121/3/5 126/3/5
f 127/1/5 122/1/5 121/1/5
f 127/1/5 124/1/5 123/1/5
f 128/3/5 125/3/5 124/3/5
f 128/1/5 124/1/5 127/1/5
f 129/3/5 125/3/5 128/3/5
f 130/1/5 127/1/5 126/1/5
f 130/1/5 128/1/5 127/1/5
f 131/1/5 128/1/5 130/1/5
f 132/2/5 129/2/5 128/2/5
f 132/1/5 128/1/5 131/1/5
f 133/2/5 129/2/5 132/2/5
f 134/3/5 131/3/5 130/3/5
f 135/1/5 132/1/5 131/1/5
f 135/3/5 131/3/5 134/3/5
f 136/1/5 132/1/5 135/1/5
f 137/3/5 133/3/5 132/3/5
f 137/1/5 132/1/5 136/1/5
f 138/3/5 133/3/5 137/3/5
f 139/2/5 136/2/5 135/2/5
f 139/2/5 135/2/5 134/2/5
f 140/2/5 136/2/5 139/2/5
f 141/1/5 138/1/5 137/1/5
f 141/2/5 136/2/5 140/2/5
f 141/1/5 137/1/5 136/1/5
f 142/1/5 138/1/5 141/1/5
f 143/1/5 138/1/5 142/1/5
f 144/3/5 140/3/5 139/3/5
f 145/1/5 141/1/5 140/1/5
f 145/3/5 140/3/5 144/3/5
f 145/1/5 142/1/5 141/1/5
f 146/3/5 143/3/5 142/3/5
f 146/1/5 142/1/5 145/1/5
f 147/3/5 143/3/5 146/3/5
f 148/1/5 145/1/5 144/1/5
f 148/1/5 146/1/5 145/1/5
f 149/1/5 146/1/5 148/1/5
f 150/2/5 147/2/5 146/2/5
f 150/1/5 146/1/5 149/1/5
f 151/2/5 147/2/5 150/2/5
f 152/3/5 149/3/5 148/3/5
f 153/1/5 150/1/5 149/1/5
f 153/3/5 149/3/5 152/3/5
f 154/1/5 150/1/5 153/1/5
f 155/3/5 151/3/5 150/3/5
f 155/1/5 150/1/5 154/1/5
f 156/3/5 151/3/5 155/3/5
f 157/2/5 154/2/5 153/2/5
f 157/2/5 153/2/5 152/2/5
f 158/2/5 154/2/5 157/2/5
f 159/1/5 156/1/5 155/1/5
f 159/2/5 154/2/5 158/2/5
f 159/1/5 155/1/5 154/1/5
f 160/1/5 156/1/5 159/1/5
f 161/1/5 156/1/5 160/1/5
f 162/3/5 158/3/5 157/3/5
f 163/1/5 159/1/5 158/1/5
f 163/3/5 158/3/5 162/3/5
f 163/1/5 160/1/5 159/1/5
f 164/1/5 160/1/5 163/1/5
f 165/3/5 161/3/5 160/3/5
f 165/1/5 160/1/5 164/1/5
f 166/3/5 161/3/5 165/3/5
f 167/1/5 164/1/5 163/1/5
f 167/1/5 163/1/5 162/1/5
f 168/1/5 164/1/5 167/1/5
f 169/1/5 164/1/5 168/1/5
f 170/1/5 164/1/5 169/1/5
f 171/1/5 164/1/5 170/1/5
f 172/1/5 164/1/5 171/1/5
f 173/1/5 164/1/5 172/1/5
f 174/1/5 164/1/5 173/1/5
f 175/1/5 164/1/5 174/1/5
f 176/2/5 166/2/5 165/2/5
f 176/1/5 164/1/5 175/1/5
f 176/2/5 165/2/5 164/2/5
f 177/1/5 167/1/5 162/1/5
f 178/3/5 168/3/5 167/3/5
f 178/1/5 167/1/5 177/1/5
f 179/2/5 169/2/5 168/2/5
f 179/3/5 168/3/5 178/3/5
f 180/3/5 170/3/5 169/3/5
f 180/2/5 169/2/5 179/2/5
f 181/1/5 171/1/5 170/1/5
f 181/3/5 170/3/5 180/3/5
f 182/3/5 172/3/5 171/3/5
f 182/1/5 171/1/5 181/1/5
f 183/2/5 173/2/5 172/2/5
f 183/3/5 172/3/5 182/3/5
f 184/3/5 174/3/5 173/3/5
f 184/2/5 173/2/5 183/2/5
f 185/1/5 175/1/5 174/1/5
f 185/3/5 174/3/5 184/3/5
f 186/3/5 176/3/5 175/3/5
f 186/1/5 175/1/5 185/1/5
f 187/2/5 166/2/5 176/2/5
f 187/3/5 176/3/5 186/3/5
f 188/2/5 166/2/5 187/2/5
f 189/2/6 190/2/6 201/2/6
f 190/3/6 191/3/6 202/3/6
f 201/2/6 190/2/6 202/2/6
f 191/1/6 192/1/6 203/1/6
f 202/3/6 191/3/6 203/3/6
f 192/3/6 193/3/6 204/3/6
f 203/1/6 192/1/6 204/1/6
f 193/2/6 194/2/6 205/2/6
f 204/3/6 193/3/6 205/3/6
f 194/3/6 195/3/6 206/3/6
f 205/2/6 194/2/6 206/2/6
f 195/1/6 196/1/6 207/1/6
f 206/3/6 195/3/6 207/3/6
f 196/3/6 197/3/6 208/3/6
f 207/1/6 196/1/6 208/1/6
f 197/2/6 198/2/6 209/2/6
f 208/3/6 197/3/6 209/3/6
f 198/3/6 199/3/6 210/3/6
f 209/2/6 198/2/6 210/2/6
f 199/1/6 200/1/6 211/1/6
f 210/3/6 199/3/6 211/3/6
f 211/1/6 200/1/6 212/1/6
f 209/3/6 210/3/6 213/3/6
f 201/3/6 202/3/6 213/3/6
f 211/3/6 212/3/6 213/3/6
f 210/3/6 211/3/6 213/3/6
f 208/3/6 209/3/6 213/3/6
f 207/3/6 208/3/6 213/3/6
f 206/3/6 207/3/6 213/3/6
f 205/3/6 206/3/6 213/3/6
f 204/3/6 205/3/6 213/3/6
f 203/3/6 204/3/6 213/3/6
f 202/3/6 203/3/6 213/3/6
f 213/3/6 212/3/6 214/3/6
f 214/3/6 212/3/6 215/3/6
f 215/3/6 212/3/6 216/3/6
f 216/3/6 212/3/6 217/3/6
f 217/3/6 212/3/6 218/3/6
f 218/3/6 212/3/6 219/3/6
f 219/3/6 212/3/6 220/3/6
f 220/3/6 212/3/6 221/3/6
f 221/3/6 212/3/6 222/3/6
f 222/3/6 212/3/6 223/3/6
f 223/3/6 212/3/6 224/3/6
f 213/1/6 214/1/6 225/1/6
f 214/3/6 215/3/6 226/3/6
f 225/1/6 214/1/6 226/1/6
f 215/2/6 216/2/6 227/2/6
f 226/3/6 215/3/6 227/3/6
f 216/3/6 217/3/6 228/3/6
f 227/2/6 216/2/6 228/2/6
f 217/1/6 218/1/6 229/1/6
f 228/3/6 217/3/6 229/3/6
f 218/3/6 219/3/6 230/3/6
f 229/1/6 218/1/6 230/1/6
f 219/2/6 220/2/6 231/2/6
f 230/3/6 219/3/6 231/3/6
f 220/3/6 221/3/6 232/3/6
f 231/2/6 220/2/6 232/2/6
f 221/1/6 222/1/6 233/1/6
f 232/3/6 221/3/6 233/3/6
f 222/3/6 223/3/6 234/3/6
f 233/1/6 222/1/6 234/1/6
f 223/2/6 224/2/6 235/2/6
f 234/3/6 223/3/6 235/3/6
f 235/2/6 224/2/6 236/2/6
f 225/3/6 226/3/6 237/3/6
f 226/3/6 227/3/6 237/3/6
f 235/3/6 236/3/6 237/3/6
f 234/3/6 235/3/6 237/3/6
f 233/3/6 234/3/6 237/3/6
f 232/3/6 233/3/6 237/3/6
f 231/3/6 232/3/6 237/3/6
f 230/3/6 231/3/6 237/3/6
f 229/3/6 230/3/6 237/3/6
f 228/3/6 229/3/6 237/3/6
f 227/3/6 228/3/6 237/3/6
f 237/3/6 236/3/6 238/3/6
f 238/3/6 236/3/6 239/3/6
f 239/3/6 236/3/6 240/3/6
f 240/3/6 236/3/6 241/3/6
f 241/3/6 236/3/6 242/3/6
f 242/3/6 236/3/6 243/3/6
f 243/3/6 236/3/6 244/3/6
f 244/3/6 236/3/6 245/3/6
f 245/3/6 236/3/6 246/3/6
f 246/3/6 236/3/6 247/3/6
f 247/3/6 236/3/6 248/3/6
f 237/2/6 238/2/6 249/2/6
f 238/3/6 239/3/6 250/3/6
f 249/2/6 238/2/6 250/2/6
f 239/1/6 240/1/6 251/1/6
f 250/3/6 239/3/6 251/3/6
f 240/3/6 241/3/6 252/3/6
f 251/1/6 240/1/6 252/1/6
f 241/2/6 242/2/6 253/2/6
f 252/3/6 241/3/6 253/3/6
f 242/3/6 243/3/6 254/3/6
f 253/2/6 242/2/6 254/2/6
f 243/1/6 244/1/6 255/1/6
f 254/3/6 243/3/6 255/3/6
f 244/3/6 245/3/6 256/3/6
f 255/1/6 244/1/6 256/1/6
f 245/2/6 246/2/6 257/2/6
f 256/3/6 245/3/6 257/3/6
f 246/3/6 247/3/6 258/3/6
f 257/2/6 246/2/6 258/2/6
f 247/1/6 248/1/6 259/1/6
f 258/3/6 247/3/6 259/3/6
f 259/1/6 248/1/6 260/1/6
f 249/3/6 250/3/6 261/3/6
f 250/3/6 251/3/6 261/3/6
f 259/3/6 260/3/6 261/3/6
f 258/3/6 259/3/6 261/3/6
f 257/3/6 258/3/6 261/3/6
f 256/3/6 257/3/6 261/3/6
f 255/3/6 256/3/6 261/3/6
f 254/3/6 255/3/6 261/3/6
f 253/3/6 254/3/6 261/3/6
f 252/3/6 253/3/6 261/3/6
f 251/3/6 252/3/6 261/3/6
f 261/3/6 260/3/6 262/3/6
f 262/3/6 260/3/6 263/3/6
f 263/3/6 260/3/6 264/3/6
f 264/3/6 260/3/6 265/3/6
f 265/3/6 260/3/6 266/3/6
f 266/3/6 260/3/6 267/3/6
f 267/3/6 260/3/6 268/3/6
f 268/3/6 260/3/6 269/3/6
f 269/3/6 260/3/6 270/3/6
f 270/3/6 260/3/6 271/3/6
f 271/3/6 260/3/6 272/3/6
f 261/1/6 262/1/6 273/1/6
f 262/3/6 263/3/6 274/3/6
f 273/1/6 262/1/6 274/1/6
f 263/2/6 264/2/6 275/2/6
f 274/3/6 263/3/6 275/3/6
f 264/3/6 265/3/6 276/3/6
f 275/2/6 264/2/6 276/2/6
f 265/1/6 266/1/6 277/1/6
f 276/3/6 265/3/6 277/3/6
f 266/3/6 267/3/6 278/3/6
f 277/1/6 266/1/6 278/1/6
f 267/2/6 268/2/6 279/2/6
f 278/3/6 267/3/6 279/3/6
f 268/3/6 269/3/6 280/3/6
f 279/2/6 268/2/6 280/2/6
f 269/1/6 270/1/6 281/1/6
f 280/3/6 269/3/6 281/3/6
f 270/3/6 271/3/6 282/3/6
f 281/1/6 270/1/6 282/1/6
f 271/2/6 272/2/6 283/2/6
f 282/3/6 271/3/6 283/3/6
f 283/2/6 272/2/6 284/2/6
f 273/3/6 274/3/6 285/3/6
f 274/3/6 275/3/6 285/3/6
f 283/3/6 284/3/6 285/3/6
f 282/3/6 283/3/6 285/3/6
f 281/3/6 282/3/6 285/3/6
f 280/3/6 281/3/6 285/3/6
f 279/3/6 280/3/6 285/3/6
f 278/3/6 279/3/6 285/3/6
f 277/3/6 278/3/6 285/3/6
f 276/3/6 277/3/6 285/3/6
f 275/3/6 276/3/6 285/3/6
f 285/3/6 284/3/6 286/3/6
f 286/3/6 284/3/6 287/3/6
f 287/3/6 284/3/6 288/3/6
f 288/3/6 284/3/6 289/3/6
f 289/3/6 284/3/6 290/3/6
f 290/3/6 284/3/6 291/3/6
f 291/3/6 284/3/6 292/3/6
f 292/3/6 284/3/6 293/3/6
f 293/3/6 284/3/6 294/3/6
f 294/3/6 284/3/6 295/3/6
f 295/3/6 284/3/6 296/3/6
f 285/2/6 286/2/6 297/2/6
f 286/3/6 287/3/6 298/3/6
f 297/2/6 286/2/6 298/2/6
f 287/1/6 288/1/6 299/1/6
f 298/3/6 287/3/6 299/3/6
f 288/3/6 289/3/6 300/3/6
f 299/1/6 288/1/6 300/1/6
f 289/2/6 290/2/6 301/2/6
f 300/3/6 289/3/6 301/3/6
f 290/3/6 291/3/6 302/3/6
f 301/2/6 290/2/6 302/2/6
f 291/1/6 292/1/6 303/1/6
f 302/3/6 291/3/6 303/3/6
f 292/3/6 293/3/6 304/3/6
f 303/1/6 292/1/6 304/1/6
f 293/2/6 294/2/6 305/2/6
f 304/3/6 293/3/6 305/3/6
f 294/3/6 295/3/6 306/3/6
f 305/2/6 294/2/6 306/2/6
f 295/1/6 296/1/6 307/1/6
f 306/3/6 295/3/6 307/3/6
f 307/1/6 296/1/6 308/1/6
f 297/3/6 298/3/6 309/3/6
f 298/3/6 299/3/6 309/3/6
f 307/3/6 308/3/6 309/3/6
f 306/3/6 307/3/6 309/3/6
f 305/3/6 306/3/6 309/3/6
f 304/3/6 305/3/6 309/3/6
f 303/3/6 304/3/6 309/3/6
f 302/3/6 303/3/6 309/3/6
f 301/3/6 302/3/6 309/3/6
f 300/3/6 301/3/6 309/3/6
f 299/3/6 300/3/6 309/3/6
f 309/3/6 308/3/6 310/3/6
f 310/3/6 308/3/6 311/3/6
f 311/3/6 308/3/6 312/3/6
f 312/3/6 308/3/6 313/3/6
f 313/3/6 308/3/6 314/3/6
f 314/3/6 308/3/6 315/3/6
f 315/3/6 308/3/6 316/3/6
f 316/3/6 308/3/6 317/3/6
f 317/3/6 308/3/6 318/3/6
f 318/3/6 308/3/6 319/3/6
f 319/3/6 308/3/6 320/3/6
f 309/1/6 310/1/6 321/1/6
f 310/3/6 311/3/6 322/3/6
f 321/1/6 310/1/6 322/1/6
f 311/2/6 312/2/6 323/2/6
f 322/3/6 311/3/6 323/3/6
f 312/3/6 313/3/6 324/3/6
f 323/2/6 312/2/6 324/2/6
f 313/1/6 314/1/6 325/1/6
f 324/3/6 313/3/6 325/3/6
f 314/3/6 315/3/6 326/3/6
f 325/1/6 314/1/6 326/1/6
f 315/2/6 316/2/6 327/2/6
f 326/3/6 315/3/6 327/3/6
f 316/3/6 317/3/6 328/3/6
f 327/2/6 316/2/6 328/2/6
f 317/1/6 318/1/6 329/1/6
f 328/3/6 317/3/6 329/3/6
f 318/3/6 319/3/6 330/3/6
f 329/1/6 318/1/6 330/1/6
f 319/2/6 320/2/6 331/2/6
f 330/3/6 319/3/6 331/3/6
f 331/2/6 320/2/6 332/2/6
