# MagicaVoxel @ Ephtracy

# group
o 

# material
mtllib bed40.mtl
usemtl palette

# normals
vn -1 0 0
vn 1 0 0
vn 0 0 1
vn 0 0 -1
vn 0 -1 0
vn 0 1 0

# texcoords
vt 0.00195312 0.5
vt 0.537109 0.5
vt 0.818359 0.5
vt 0.974609 0.5

# verts
v -4.5 -1.6 3.5
v -4.5 -1.6 3.1
v -4.5 -1.6 -3.1
v -4.5 -1.6 -3.5
v -4.5 -0.4 3.1
v -4.5 -0.4 -3.1
v -4.5 0.2 3.5
v -4.5 0.2 -3.5
v -4.4 0.2 3.4
v -4.4 0.2 -3.4
v -4.4 1 3.4
v -4.4 1 -3.4
v 1.7 1 3.2
v 1.7 1 0.2
v 1.7 1 -0.2
v 1.7 1 -3.2
v 1.7 1.6 3.2
v 1.7 1.6 0.2
v 1.7 1.6 -0.2
v 1.7 1.6 -3.2
v 4.1 -1.6 3.5
v 4.1 -1.6 3.1
v 4.1 -1.6 -3.1
v 4.1 -1.6 -3.5
v 4.1 -0.4 3.5
v 4.1 -0.4 3.1
v 4.1 -0.4 -3.1
v 4.1 -0.4 -3.5
v -4.1 -1.6 3.5
v -4.1 -1.6 3.1
v -4.1 -1.6 -3.1
v -4.1 -1.6 -3.5
v -4.1 -0.4 3.5
v -4.1 -0.4 3.1
v -4.1 -0.4 -3.1
v -4.1 -0.4 -3.5
v 4.2 1 3.2
v 4.2 1 0.2
v 4.2 1 -0.2
v 4.2 1 -3.2
v 4.2 1.6 3.2
v 4.2 1.6 0.2
v 4.2 1.6 -0.2
v 4.2 1.6 -3.2
v 4.4 0.2 3.4
v 4.4 0.2 -3.4
v 4.4 1 3.4
v 4.4 1 -3.4
v 4.5 -1.6 3.5
v 4.5 -1.6 3.1
v 4.5 -1.6 -3.1
v 4.5 -1.6 -3.5
v 4.5 -0.4 3.1
v 4.5 -0.4 -3.1
v 4.5 0.2 3.5
v 4.5 0.2 -3.5
v -4.5 -1.6 3.5
v -4.5 0.2 3.5
v -4.1 -1.6 3.5
v -4.1 -0.4 3.5
v 4.1 -1.6 3.5
v 4.1 -0.4 3.5
v 4.5 -1.6 3.5
v 4.5 0.2 3.5
v -4.4 0.2 3.4
v -4.4 1 3.4
v 1.5 0.2 3.4
v 1.5 1 3.4
v 4.4 0.2 3.4
v 4.4 1 3.4
v 1.7 1 3.2
v 1.7 1.6 3.2
v 4.2 1 3.2
v 4.2 1.6 3.2
v 1.7 1 -0.2
v 1.7 1.6 -0.2
v 4.2 1 -0.2
v 4.2 1.6 -0.2
v -4.5 -1.6 -3.1
v -4.5 -0.4 -3.1
v -4.1 -1.6 -3.1
v -4.1 -0.4 -3.1
v 4.1 -1.6 -3.1
v 4.1 -0.4 -3.1
v 4.5 -1.6 -3.1
v 4.5 -0.4 -3.1
v -4.5 -1.6 3.1
v -4.5 -0.4 3.1
v -4.1 -1.6 3.1
v -4.1 -0.4 3.1
v 4.1 -1.6 3.1
v 4.1 -0.4 3.1
v 4.5 -1.6 3.1
v 4.5 -0.4 3.1
v 1.7 1 0.2
v 1.7 1.6 0.2
v 4.2 1 0.2
v 4.2 1.6 0.2
v 1.7 1 -3.2
v 1.7 1.6 -3.2
v 4.2 1 -3.2
v 4.2 1.6 -3.2
v -4.4 0.2 -3.4
v -4.4 1 -3.4
v 1.5 0.2 -3.4
v 1.5 1 -3.4
v 4.4 0.2 -3.4
v 4.4 1 -3.4
v -4.5 -1.6 -3.5
v -4.5 0.2 -3.5
v -4.1 -1.6 -3.5
v -4.1 -0.4 -3.5
v 4.1 -1.6 -3.5
v 4.1 -0.4 -3.5
v 4.5 -1.6 -3.5
v 4.5 0.2 -3.5
v -4.5 -1.6 3.5
v -4.1 -1.6 3.5
v 4.1 -1.6 3.5
v 4.5 -1.6 3.5
v -4.5 -1.6 3.1
v -4.1 -1.6 3.1
v 4.1 -1.6 3.1
v 4.5 -1.6 3.1
v -4.5 -1.6 -3.1
v -4.1 -1.6 -3.1
v 4.1 -1.6 -3.1
v 4.5 -1.6 -3.1
v -4.5 -1.6 -3.5
v -4.1 -1.6 -3.5
v 4.1 -1.6 -3.5
v 4.5 -1.6 -3.5
v -4.1 -0.4 3.5
v 4.1 -0.4 3.5
v -4.5 -0.4 3.1
v -4.1 -0.4 3.1
v 4.1 -0.4 3.1
v 4.5 -0.4 3.1
v -4.5 -0.4 -3.1
v -4.1 -0.4 -3.1
v 4.1 -0.4 -3.1
v 4.5 -0.4 -3.1
v -4.1 -0.4 -3.5
v 4.1 -0.4 -3.5
v -4.5 0.2 3.5
v 4.5 0.2 3.5
v -4.4 0.2 3.4
v 1.5 0.2 3.4
v 4.4 0.2 3.4
v -4.4 0.2 -3.4
v 1.5 0.2 -3.4
v 4.4 0.2 -3.4
v -4.5 0.2 -3.5
v 4.5 0.2 -3.5
v -4.4 1 3.4
v 1.5 1 3.4
v 4.4 1 3.4
v 1.7 1 3.2
v 4.2 1 3.2
v 1.7 1 0.2
v 4.2 1 0.2
v 1.7 1 -0.2
v 4.2 1 -0.2
v 1.7 1 -3.2
v 4.2 1 -3.2
v -4.4 1 -3.4
v 1.5 1 -3.4
v 4.4 1 -3.4
v 1.7 1.6 3.2
v 4.2 1.6 3.2
v 1.7 1.6 0.2
v 4.2 1.6 0.2
v 1.7 1.6 -0.2
v 4.2 1.6 -0.2
v 1.7 1.6 -3.2
v 4.2 1.6 -3.2

# faces
f 5/2/1 2/2/1 1/2/1
f 6/2/1 4/2/1 3/2/1
f 7/2/1 5/2/1 1/2/1
f 7/2/1 6/2/1 5/2/1
f 8/2/1 4/2/1 6/2/1
f 8/2/1 6/2/1 7/2/1
f 11/3/1 10/3/1 9/3/1
f 12/3/1 10/3/1 11/3/1
f 17/1/1 14/1/1 13/1/1
f 18/1/1 14/1/1 17/1/1
f 19/1/1 16/1/1 15/1/1
f 20/1/1 16/1/1 19/1/1
f 25/2/1 22/2/1 21/2/1
f 26/2/1 22/2/1 25/2/1
f 27/2/1 24/2/1 23/2/1
f 28/2/1 24/2/1 27/2/1
f 29/2/2 30/2/2 33/2/2
f 33/2/2 30/2/2 34/2/2
f 31/2/2 32/2/2 35/2/2
f 35/2/2 32/2/2 36/2/2
f 37/1/2 38/1/2 41/1/2
f 41/1/2 38/1/2 42/1/2
f 39/1/2 40/1/2 43/1/2
f 43/1/2 40/1/2 44/1/2
f 45/4/2 46/4/2 47/4/2
f 47/4/2 46/4/2 48/4/2
f 49/2/2 50/2/2 53/2/2
f 51/2/2 52/2/2 54/2/2
f 49/2/2 53/2/2 55/2/2
f 53/2/2 54/2/2 55/2/2
f 54/2/2 52/2/2 56/2/2
f 55/2/2 54/2/2 56/2/2
f 59/2/3 58/2/3 57/2/3
f 60/2/3 58/2/3 59/2/3
f 62/2/3 58/2/3 60/2/3
f 63/2/3 62/2/3 61/2/3
f 64/2/3 58/2/3 62/2/3
f 64/2/3 62/2/3 63/2/3
f 67/3/3 66/3/3 65/3/3
f 68/3/3 66/3/3 67/3/3
f 69/4/3 68/4/3 67/4/3
f 70/4/3 68/4/3 69/4/3
f 73/1/3 72/1/3 71/1/3
f 74/1/3 72/1/3 73/1/3
f 77/1/3 76/1/3 75/1/3
f 78/1/3 76/1/3 77/1/3
f 81/2/3 80/2/3 79/2/3
f 82/2/3 80/2/3 81/2/3
f 85/2/3 84/2/3 83/2/3
f 86/2/3 84/2/3 85/2/3
f 87/2/4 88/2/4 89/2/4
f 89/2/4 88/2/4 90/2/4
f 91/2/4 92/2/4 93/2/4
f 93/2/4 92/2/4 94/2/4
f 95/1/4 96/1/4 97/1/4
f 97/1/4 96/1/4 98/1/4
f 99/1/4 100/1/4 101/1/4
f 101/1/4 100/1/4 102/1/4
f 103/3/4 104/3/4 105/3/4
f 105/3/4 104/3/4 106/3/4
f 105/4/4 106/4/4 107/4/4
f 107/4/4 106/4/4 108/4/4
f 109/2/4 110/2/4 111/2/4
f 111/2/4 110/2/4 112/2/4
f 112/2/4 110/2/4 114/2/4
f 113/2/4 114/2/4 115/2/4
f 114/2/4 110/2/4 116/2/4
f 115/2/4 114/2/4 116/2/4
f 121/2/5 118/2/5 117/2/5
f 122/2/5 118/2/5 121/2/5
f 123/2/5 120/2/5 119/2/5
f 124/2/5 120/2/5 123/2/5
f 129/2/5 126/2/5 125/2/5
f 130/2/5 126/2/5 129/2/5
f 131/2/5 128/2/5 127/2/5
f 132/2/5 128/2/5 131/2/5
f 136/2/5 134/2/5 133/2/5
f 137/2/5 134/2/5 136/2/5
f 139/2/5 136/2/5 135/2/5
f 139/2/5 138/2/5 137/2/5
f 139/2/5 137/2/5 136/2/5
f 140/2/5 138/2/5 139/2/5
f 141/2/5 138/2/5 140/2/5
f 142/2/5 138/2/5 141/2/5
f 143/2/5 141/2/5 140/2/5
f 144/2/5 141/2/5 143/2/5
f 145/2/6 146/2/6 147/2/6
f 147/2/6 146/2/6 148/2/6
f 148/2/6 146/2/6 149/2/6
f 145/2/6 147/2/6 150/2/6
f 149/2/6 146/2/6 152/2/6
f 150/2/6 151/2/6 153/2/6
f 151/2/6 152/2/6 153/2/6
f 145/2/6 150/2/6 153/2/6
f 152/2/6 146/2/6 154/2/6
f 153/2/6 152/2/6 154/2/6
f 156/4/6 157/4/6 158/4/6
f 158/4/6 157/4/6 159/4/6
f 156/4/6 158/4/6 160/4/6
f 159/4/6 157/4/6 161/4/6
f 156/4/6 160/4/6 162/4/6
f 160/4/6 161/4/6 162/4/6
f 161/4/6 157/4/6 163/4/6
f 162/4/6 161/4/6 163/4/6
f 156/4/6 162/4/6 164/4/6
f 163/4/6 157/4/6 165/4/6
f 155/3/6 156/3/6 166/3/6
f 164/4/6 165/4/6 167/4/6
f 166/3/6 156/3/6 167/3/6
f 156/4/6 164/4/6 167/4/6
f 165/4/6 157/4/6 168/4/6
f 167/4/6 165/4/6 168/4/6
f 169/1/6 170/1/6 171/1/6
f 171/1/6 170/1/6 172/1/6
f 173/1/6 174/1/6 175/1/6
f 175/1/6 174/1/6 176/1/6
