# MagicaVoxel @ Ephtracy

# group
o 

# material
mtllib bed_wide.mtl
usemtl palette

# normals
vn -1 0 0
vn 1 0 0
vn 0 0 1
vn 0 0 -1
vn 0 -1 0
vn 0 1 0

# texcoords
vt 0.00195312 0.5
vt 0.447266 0.5
vt 0.537109 0.5
vt 0.853516 0.5

# verts
v -2.3 -0.9 1.8
v -2.3 -0.9 1.5
v -2.3 -0.9 -1.6
v -2.3 -0.9 -1.9
v -2.3 -0.3 1.5
v -2.3 -0.3 -1.6
v -2.3 0.2 1.8
v -2.3 0.2 -1.9
v -2.2 0.2 1.7
v -2.2 0.2 -1.8
v -2.2 0.6 1.7
v -2.2 0.6 -1.8
v 1 0.6 1.6
v 1 0.6 1.19209e-07
v 1 0.6 -0.0999999
v 1 0.6 -1.7
v 1 0.9 1.6
v 1 0.9 1.19209e-07
v 1 0.9 -0.0999999
v 1 0.9 -1.7
v 2 -0.9 1.8
v 2 -0.9 1.5
v 2 -0.9 -1.6
v 2 -0.9 -1.9
v 2 -0.3 1.8
v 2 -0.3 1.5
v 2 -0.3 -1.6
v 2 -0.3 -1.9
v -2 -0.9 1.8
v -2 -0.9 1.5
v -2 -0.9 -1.6
v -2 -0.9 -1.9
v -2 -0.3 1.8
v -2 -0.3 1.5
v -2 -0.3 -1.6
v -2 -0.3 -1.9
v 2.1 0.6 1.6
v 2.1 0.6 1.19209e-07
v 2.1 0.6 -0.0999999
v 2.1 0.6 -1.7
v 2.1 0.9 1.6
v 2.1 0.9 1.19209e-07
v 2.1 0.9 -0.0999999
v 2.1 0.9 -1.7
v 2.2 0.2 1.7
v 2.2 0.2 -1.8
v 2.2 0.6 1.7
v 2.2 0.6 -1.8
v 2.3 -0.9 1.8
v 2.3 -0.9 1.5
v 2.3 -0.9 -1.6
v 2.3 -0.9 -1.9
v 2.3 -0.3 1.5
v 2.3 -0.3 -1.6
v 2.3 0.2 1.8
v 2.3 0.2 -1.9
v -2.3 -0.9 1.8
v -2.3 0.2 1.8
v -2 -0.9 1.8
v -2 -0.3 1.8
v 2 -0.9 1.8
v 2 -0.3 1.8
v 2.3 -0.9 1.8
v 2.3 0.2 1.8
v -2.2 0.2 1.7
v -2.2 0.6 1.7
v 0.9 0.2 1.7
v 0.9 0.6 1.7
v 2.2 0.2 1.7
v 2.2 0.6 1.7
v 1 0.6 1.6
v 1 0.9 1.6
v 2.1 0.6 1.6
v 2.1 0.9 1.6
v 1 0.6 -0.0999999
v 1 0.9 -0.0999999
v 2.1 0.6 -0.0999999
v 2.1 0.9 -0.0999999
v -2.3 -0.9 -1.6
v -2.3 -0.3 -1.6
v -2 -0.9 -1.6
v -2 -0.3 -1.6
v 2 -0.9 -1.6
v 2 -0.3 -1.6
v 2.3 -0.9 -1.6
v 2.3 -0.3 -1.6
v -2.3 -0.9 1.5
v -2.3 -0.3 1.5
v -2 -0.9 1.5
v -2 -0.3 1.5
v 2 -0.9 1.5
v 2 -0.3 1.5
v 2.3 -0.9 1.5
v 2.3 -0.3 1.5
v 1 0.6 1.19209e-07
v 1 0.9 1.19209e-07
v 2.1 0.6 1.19209e-07
v 2.1 0.9 1.19209e-07
v 1 0.6 -1.7
v 1 0.9 -1.7
v 2.1 0.6 -1.7
v 2.1 0.9 -1.7
v -2.2 0.2 -1.8
v -2.2 0.6 -1.8
v 0.9 0.2 -1.8
v 0.9 0.6 -1.8
v 2.2 0.2 -1.8
v 2.2 0.6 -1.8
v -2.3 -0.9 -1.9
v -2.3 0.2 -1.9
v -2 -0.9 -1.9
v -2 -0.3 -1.9
v 2 -0.9 -1.9
v 2 -0.3 -1.9
v 2.3 -0.9 -1.9
v 2.3 0.2 -1.9
v -2.3 -0.9 1.8
v -2 -0.9 1.8
v 2 -0.9 1.8
v 2.3 -0.9 1.8
v -2.3 -0.9 1.5
v -2 -0.9 1.5
v 2 -0.9 1.5
v 2.3 -0.9 1.5
v -2.3 -0.9 -1.6
v -2 -0.9 -1.6
v 2 -0.9 -1.6
v 2.3 -0.9 -1.6
v -2.3 -0.9 -1.9
v -2 -0.9 -1.9
v 2 -0.9 -1.9
v 2.3 -0.9 -1.9
v -2 -0.3 1.8
v 2 -0.3 1.8
v -2.3 -0.3 1.5
v -2 -0.3 1.5
v 2 -0.3 1.5
v 2.3 -0.3 1.5
v -2.3 -0.3 -1.6
v -2 -0.3 -1.6
v 2 -0.3 -1.6
v 2.3 -0.3 -1.6
v -2 -0.3 -1.9
v 2 -0.3 -1.9
v -2.3 0.2 1.8
v 2.3 0.2 1.8
v -2.2 0.2 1.7
v 0.9 0.2 1.7
v 2.2 0.2 1.7
v -2.2 0.2 -1.8
v 0.9 0.2 -1.8
v 2.2 0.2 -1.8
v -2.3 0.2 -1.9
v 2.3 0.2 -1.9
v -2.2 0.6 1.7
v 0.9 0.6 1.7
v 2.2 0.6 1.7
v 1 0.6 1.6
v 2.1 0.6 1.6
v 1 0.6 1.19209e-07
v 2.1 0.6 1.19209e-07
v 1 0.6 -0.0999999
v 2.1 0.6 -0.0999999
v 1 0.6 -1.7
v 2.1 0.6 -1.7
v -2.2 0.6 -1.8
v 0.9 0.6 -1.8
v 2.2 0.6 -1.8
v 1 0.9 1.6
v 2.1 0.9 1.6
v 1 0.9 1.19209e-07
v 2.1 0.9 1.19209e-07
v 1 0.9 -0.0999999
v 2.1 0.9 -0.0999999
v 1 0.9 -1.7
v 2.1 0.9 -1.7

# faces
f 5/3/1 2/3/1 1/3/1
f 6/3/1 4/3/1 3/3/1
f 7/3/1 5/3/1 1/3/1
f 7/3/1 6/3/1 5/3/1
f 8/3/1 4/3/1 6/3/1
f 8/3/1 6/3/1 7/3/1
f 11/4/1 10/4/1 9/4/1
f 12/4/1 10/4/1 11/4/1
f 17/1/1 14/1/1 13/1/1
f 18/1/1 14/1/1 17/1/1
f 19/1/1 16/1/1 15/1/1
f 20/1/1 16/1/1 19/1/1
f 25/3/1 22/3/1 21/3/1
f 26/3/1 22/3/1 25/3/1
f 27/3/1 24/3/1 23/3/1
f 28/3/1 24/3/1 27/3/1
f 29/3/2 30/3/2 33/3/2
f 33/3/2 30/3/2 34/3/2
f 31/3/2 32/3/2 35/3/2
f 35/3/2 32/3/2 36/3/2
f 37/1/2 38/1/2 41/1/2
f 41/1/2 38/1/2 42/1/2
f 39/1/2 40/1/2 43/1/2
f 43/1/2 40/1/2 44/1/2
f 45/2/2 46/2/2 47/2/2
f 47/2/2 46/2/2 48/2/2
f 49/3/2 50/3/2 53/3/2
f 51/3/2 52/3/2 54/3/2
f 49/3/2 53/3/2 55/3/2
f 53/3/2 54/3/2 55/3/2
f 54/3/2 52/3/2 56/3/2
f 55/3/2 54/3/2 56/3/2
f 59/3/3 58/3/3 57/3/3
f 60/3/3 58/3/3 59/3/3
f 62/3/3 58/3/3 60/3/3
f 63/3/3 62/3/3 61/3/3
f 64/3/3 58/3/3 62/3/3
f 64/3/3 62/3/3 63/3/3
f 67/4/3 66/4/3 65/4/3
f 68/4/3 66/4/3 67/4/3
f 69/2/3 68/2/3 67/2/3
f 70/2/3 68/2/3 69/2/3
f 73/1/3 72/1/3 71/1/3
f 74/1/3 72/1/3 73/1/3
f 77/1/3 76/1/3 75/1/3
f 78/1/3 76/1/3 77/1/3
f 81/3/3 80/3/3 79/3/3
f 82/3/3 80/3/3 81/3/3
f 85/3/3 84/3/3 83/3/3
f 86/3/3 84/3/3 85/3/3
f 87/3/4 88/3/4 89/3/4
f 89/3/4 88/3/4 90/3/4
f 91/3/4 92/3/4 93/3/4
f 93/3/4 92/3/4 94/3/4
f 95/1/4 96/1/4 97/1/4
f 97/1/4 96/1/4 98/1/4
f 99/1/4 100/1/4 101/1/4
f 101/1/4 100/1/4 102/1/4
f 103/4/4 104/4/4 105/4/4
f 105/4/4 104/4/4 106/4/4
f 105/2/4 106/2/4 107/2/4
f 107/2/4 106/2/4 108/2/4
f 109/3/4 110/3/4 111/3/4
f 111/3/4 110/3/4 112/3/4
f 112/3/4 110/3/4 114/3/4
f 113/3/4 114/3/4 115/3/4
f 114/3/4 110/3/4 116/3/4
f 115/3/4 114/3/4 116/3/4
f 121/3/5 118/3/5 117/3/5
f 122/3/5 118/3/5 121/3/5
f 123/3/5 120/3/5 119/3/5
f 124/3/5 120/3/5 123/3/5
f 129/3/5 126/3/5 125/3/5
f 130/3/5 126/3/5 129/3/5
f 131/3/5 128/3/5 127/3/5
f 132/3/5 128/3/5 131/3/5
f 136/3/5 134/3/5 133/3/5
f 137/3/5 134/3/5 136/3/5
f 139/3/5 136/3/5 135/3/5
f 139/3/5 138/3/5 137/3/5
f 139/3/5 137/3/5 136/3/5
f 140/3/5 138/3/5 139/3/5
f 141/3/5 138/3/5 140/3/5
f 142/3/5 138/3/5 141/3/5
f 143/3/5 141/3/5 140/3/5
f 144/3/5 141/3/5 143/3/5
f 145/3/6 146/3/6 147/3/6
f 147/3/6 146/3/6 148/3/6
f 148/3/6 146/3/6 149/3/6
f 145/3/6 147/3/6 150/3/6
f 149/3/6 146/3/6 152/3/6
f 150/3/6 151/3/6 153/3/6
f 151/3/6 152/3/6 153/3/6
f 145/3/6 150/3/6 153/3/6
f 152/3/6 146/3/6 154/3/6
f 153/3/6 152/3/6 154/3/6
f 156/2/6 157/2/6 158/2/6
f 158/2/6 157/2/6 159/2/6
f 156/2/6 158/2/6 160/2/6
f 159/2/6 157/2/6 161/2/6
f 156/2/6 160/2/6 162/2/6
f 160/2/6 161/2/6 162/2/6
f 161/2/6 157/2/6 163/2/6
f 162/2/6 161/2/6 163/2/6
f 156/2/6 162/2/6 164/2/6
f 163/2/6 157/2/6 165/2/6
f 155/4/6 156/4/6 166/4/6
f 164/2/6 165/2/6 167/2/6
f 166/4/6 156/4/6 167/4/6
f 156/2/6 164/2/6 167/2/6
f 165/2/6 157/2/6 168/2/6
f 167/2/6 165/2/6 168/2/6
f 169/1/6 170/1/6 171/1/6
f 171/1/6 170/1/6 172/1/6
f 173/1/6 174/1/6 175/1/6
f 175/1/6 174/1/6 176/1/6
