# MagicaVoxel @ Ephtracy

# group
o 

# material
mtllib console.mtl
usemtl palette

# normals
vn -1 0 0
vn 1 0 0
vn 0 0 1
vn 0 0 -1
vn 0 -1 0
vn 0 1 0

# texcoords
vt 0.841797 0.5
vt 0.880859 0.5
vt 0.962891 0.5
vt 0.970703 0.5

# verts
v -0.5 -0.1 0.3
v -0.5 -0.1 -0.4
v -0.5 0.2 0.3
v -0.5 0.2 -0.4
v 0.6 -0.1 0.3
v 0.6 -0.1 -0.4
v 0.6 0.2 0.3
v 0.6 0.2 -0.4
v -0.5 -0.1 0.3
v -0.5 0.2 0.3
v 0.3 0 0.3
v 0.3 0.1 0.3
v 0.4 0 0.3
v 0.4 0.1 0.3
v 0.5 0 0.3
v 0.5 0.1 0.3
v 0.6 -0.1 0.3
v 0.6 0.2 0.3
v -0.5 -0.1 -0.4
v -0.5 0.2 -0.4
v 0.6 -0.1 -0.4
v 0.6 0.2 -0.4
v -0.5 -0.1 0.3
v 0.6 -0.1 0.3
v -0.5 -0.1 -0.4
v 0.6 -0.1 -0.4
v -0.5 0.2 0.3
v 0.6 0.2 0.3
v -0.3 0.2 0.2
v -0.1 0.2 0.2
v 0.2 0.2 0.2
v 0.4 0.2 0.2
v -0.4 0.2 0.1
v -0.3 0.2 0.1
v -0.1 0.2 0.1
v 0 0.2 0.1
v 0.1 0.2 0.1
v 0.2 0.2 0.1
v 0.4 0.2 0.1
v 0.5 0.2 0.1
v -0.2 0.2 0
v -0.1 0.2 0
v 0.3 0.2 0
v 0.4 0.2 0
v -0.2 0.2 -0.1
v 0 0.2 -0.1
v 0.3 0.2 -0.1
v 0.5 0.2 -0.1
v -0.4 0.2 -0.2
v -0.3 0.2 -0.2
v 0 0.2 -0.2
v 0.1 0.2 -0.2
v 0.2 0.2 -0.2
v 0.5 0.2 -0.2
v -0.3 0.2 -0.3
v 0 0.2 -0.3
v 0.2 0.2 -0.3
v 0.5 0.2 -0.3
v -0.5 0.2 -0.4
v 0.6 0.2 -0.4

# faces
f 3/3/1 2/3/1 1/3/1
f 4/3/1 2/3/1 3/3/1
f 5/3/2 6/3/2 7/3/2
f 7/3/2 6/3/2 8/3/2
f 11/3/3 10/3/3 9/3/3
f 12/3/3 10/3/3 11/3/3
f 13/3/3 11/3/3 9/3/3
f 13/1/3 12/1/3 11/1/3
f 14/3/3 10/3/3 12/3/3
f 14/1/3 12/1/3 13/1/3
f 15/3/3 13/3/3 9/3/3
f 15/2/3 14/2/3 13/2/3
f 16/3/3 10/3/3 14/3/3
f 16/2/3 14/2/3 15/2/3
f 17/3/3 15/3/3 9/3/3
f 17/3/3 16/3/3 15/3/3
f 18/3/3 10/3/3 16/3/3
f 18/3/3 16/3/3 17/3/3
f 19/3/4 20/3/4 21/3/4
f 21/3/4 20/3/4 22/3/4
f 25/3/5 24/3/5 23/3/5
f 26/3/5 24/3/5 25/3/5
f 27/3/6 28/3/6 29/3/6
f 29/3/6 28/3/6 30/3/6
f 30/3/6 28/3/6 31/3/6
f 31/3/6 28/3/6 32/3/6
f 27/3/6 29/3/6 33/3/6
f 29/4/6 30/4/6 34/4/6
f 33/3/6 29/3/6 34/3/6
f 30/3/6 31/3/6 35/3/6
f 34/4/6 30/4/6 35/4/6
f 35/3/6 31/3/6 36/3/6
f 36/3/6 31/3/6 37/3/6
f 31/4/6 32/4/6 38/4/6
f 37/3/6 31/3/6 38/3/6
f 32/3/6 28/3/6 39/3/6
f 38/4/6 32/4/6 39/4/6
f 39/3/6 28/3/6 40/3/6
f 34/3/6 35/3/6 41/3/6
f 35/4/6 36/4/6 42/4/6
f 41/3/6 35/3/6 42/3/6
f 38/3/6 39/3/6 43/3/6
f 39/4/6 40/4/6 44/4/6
f 43/3/6 39/3/6 44/3/6
f 34/3/6 41/3/6 45/3/6
f 41/4/6 42/4/6 45/4/6
f 36/3/6 37/3/6 46/3/6
f 45/4/6 42/4/6 46/4/6
f 42/4/6 36/4/6 46/4/6
f 43/4/6 44/4/6 47/4/6
f 38/3/6 43/3/6 47/3/6
f 40/3/6 28/3/6 48/3/6
f 47/4/6 44/4/6 48/4/6
f 44/4/6 40/4/6 48/4/6
f 27/3/6 33/3/6 49/3/6
f 33/4/6 34/4/6 49/4/6
f 34/3/6 45/3/6 50/3/6
f 49/4/6 34/4/6 50/4/6
f 45/3/6 46/3/6 50/3/6
f 46/3/6 37/3/6 51/3/6
f 50/3/6 46/3/6 51/3/6
f 37/4/6 38/4/6 52/4/6
f 51/3/6 37/3/6 52/3/6
f 47/3/6 48/3/6 53/3/6
f 52/4/6 38/4/6 53/4/6
f 38/3/6 47/3/6 53/3/6
f 48/3/6 28/3/6 54/3/6
f 53/3/6 48/3/6 54/3/6
f 50/4/6 51/4/6 55/4/6
f 49/3/6 50/3/6 55/3/6
f 52/3/6 53/3/6 56/3/6
f 55/4/6 51/4/6 56/4/6
f 51/3/6 52/3/6 56/3/6
f 53/4/6 54/4/6 57/4/6
f 56/3/6 53/3/6 57/3/6
f 54/3/6 28/3/6 58/3/6
f 57/4/6 54/4/6 58/4/6
f 56/3/6 57/3/6 59/3/6
f 49/3/6 55/3/6 59/3/6
f 57/3/6 58/3/6 59/3/6
f 27/3/6 49/3/6 59/3/6
f 55/3/6 56/3/6 59/3/6
f 58/3/6 28/3/6 60/3/6
f 59/3/6 58/3/6 60/3/6
