# MagicaVoxel @ Ephtracy

# group
o 

# material
mtllib couch40.mtl
usemtl palette

# normals
vn -1 0 0
vn 1 0 0
vn 0 0 1
vn 0 0 -1
vn 0 -1 0
vn 0 1 0

# texcoords
vt 0.205078 0.5
vt 0.208984 0.5

# verts
v -4.5 -1.6 1.9
v -4.5 -1.6 -2
v -4.5 0.8 1.9
v -4.5 0.8 -2
v -3.9 -0.8 2
v -3.9 -0.8 1.9
v -3.9 0 2
v -3.9 0 1.9
v -3.9 0.8 -0.6
v -3.9 0.8 -1.4
v -3.9 1.6 -0.6
v -3.9 1.6 -1.4
v 3.9 0 1.9
v 3.9 0 -0.6
v 3.9 0.8 1.9
v 3.9 0.8 -0.6
v -3.9 0 1.9
v -3.9 0 -0.6
v -3.9 0.8 1.9
v -3.9 0.8 -0.6
v 3.9 -0.8 2
v 3.9 -0.8 1.9
v 3.9 0 2
v 3.9 0 1.9
v 3.9 0.8 -0.6
v 3.9 0.8 -1.4
v 3.9 1.6 -0.6
v 3.9 1.6 -1.4
v 4.5 -1.6 1.9
v 4.5 -1.6 -2
v 4.5 0.8 1.9
v 4.5 0.8 -2
v -3.9 -0.8 2
v -3.9 0 2
v -0.0999999 -0.8 2
v -0.0999999 0 2
v 0.1 -0.8 2
v 0.1 0 2
v 3.9 -0.8 2
v 3.9 0 2
v -4.5 -1.6 1.9
v -4.5 0.8 1.9
v -3.9 -0.8 1.9
v -3.9 0 1.9
v -3.9 0.8 1.9
v -0.0999999 -0.8 1.9
v 0.1 -0.8 1.9
v 3.9 -0.8 1.9
v 3.9 0 1.9
v 3.9 0.8 1.9
v 4.5 -1.6 1.9
v 4.5 0.8 1.9
v -3.9 0 -0.6
v -3.9 0.8 -0.6
v -3.9 1.6 -0.6
v -0.0999999 0 -0.6
v -0.0999999 1.6 -0.6
v 0.1 0 -0.6
v 0.1 1.6 -0.6
v 3.9 0 -0.6
v 3.9 0.8 -0.6
v 3.9 1.6 -0.6
v -3.9 0.8 -1.4
v -3.9 1.6 -1.4
v -0.0999999 0.8 -1.4
v -0.0999999 1.6 -1.4
v 0.1 0.8 -1.4
v 0.1 1.6 -1.4
v 3.9 0.8 -1.4
v 3.9 1.6 -1.4
v -4.5 -1.6 -2
v -4.5 0.8 -2
v 4.5 -1.6 -2
v 4.5 0.8 -2
v -4.5 -1.6 1.9
v 4.5 -1.6 1.9
v -4.5 -1.6 -2
v 4.5 -1.6 -2
v -3.9 -0.8 2
v -0.0999999 -0.8 2
v 0.1 -0.8 2
v 3.9 -0.8 2
v -3.9 -0.8 1.9
v -0.0999999 -0.8 1.9
v 0.1 -0.8 1.9
v 3.9 -0.8 1.9
v -3.9 0 2
v -0.0999999 0 2
v 0.1 0 2
v 3.9 0 2
v -3.9 0 1.9
v 3.9 0 1.9
v -3.9 0 -0.6
v -0.0999999 0 -0.6
v 0.1 0 -0.6
v 3.9 0 -0.6
v -4.5 0.8 1.9
v -3.9 0.8 1.9
v 3.9 0.8 1.9
v 4.5 0.8 1.9
v -3.9 0.8 -0.6
v 3.9 0.8 -0.6
v -3.9 0.8 -1.4
v -0.0999999 0.8 -1.4
v 0.1 0.8 -1.4
v 3.9 0.8 -1.4
v -4.5 0.8 -2
v 4.5 0.8 -2
v -3.9 1.6 -0.6
v -0.0999999 1.6 -0.6
v 0.1 1.6 -0.6
v 3.9 1.6 -0.6
v -3.9 1.6 -1.4
v -0.0999999 1.6 -1.4
v 0.1 1.6 -1.4
v 3.9 1.6 -1.4

# faces
f 3/2/1 2/2/1 1/2/1
f 4/2/1 2/2/1 3/2/1
f 7/2/1 6/2/1 5/2/1
f 8/2/1 6/2/1 7/2/1
f 11/2/1 10/2/1 9/2/1
f 12/2/1 10/2/1 11/2/1
f 15/2/1 14/2/1 13/2/1
f 16/2/1 14/2/1 15/2/1
f 17/2/2 18/2/2 19/2/2
f 19/2/2 18/2/2 20/2/2
f 21/2/2 22/2/2 23/2/2
f 23/2/2 22/2/2 24/2/2
f 25/2/2 26/2/2 27/2/2
f 27/2/2 26/2/2 28/2/2
f 29/2/2 30/2/2 31/2/2
f 31/2/2 30/2/2 32/2/2
f 35/2/3 34/2/3 33/2/3
f 36/2/3 34/2/3 35/2/3
f 37/1/3 36/1/3 35/1/3
f 38/1/3 36/1/3 37/1/3
f 39/2/3 38/2/3 37/2/3
f 40/2/3 38/2/3 39/2/3
f 43/2/3 42/2/3 41/2/3
f 44/2/3 42/2/3 43/2/3
f 45/2/3 42/2/3 44/2/3
f 46/2/3 43/2/3 41/2/3
f 47/2/3 46/2/3 41/2/3
f 48/2/3 47/2/3 41/2/3
f 51/2/3 48/2/3 41/2/3
f 51/2/3 50/2/3 49/2/3
f 51/2/3 49/2/3 48/2/3
f 52/2/3 50/2/3 51/2/3
f 56/2/3 54/2/3 53/2/3
f 56/2/3 55/2/3 54/2/3
f 57/2/3 55/2/3 56/2/3
f 58/1/3 57/1/3 56/1/3
f 59/1/3 57/1/3 58/1/3
f 60/2/3 59/2/3 58/2/3
f 61/2/3 59/2/3 60/2/3
f 62/2/3 59/2/3 61/2/3
f 63/2/4 64/2/4 65/2/4
f 65/2/4 64/2/4 66/2/4
f 65/1/4 66/1/4 67/1/4
f 67/1/4 66/1/4 68/1/4
f 67/2/4 68/2/4 69/2/4
f 69/2/4 68/2/4 70/2/4
f 71/2/4 72/2/4 73/2/4
f 73/2/4 72/2/4 74/2/4
f 77/2/5 76/2/5 75/2/5
f 78/2/5 76/2/5 77/2/5
f 83/2/5 80/2/5 79/2/5
f 84/1/5 81/1/5 80/1/5
f 84/2/5 80/2/5 83/2/5
f 85/2/5 82/2/5 81/2/5
f 85/1/5 81/1/5 84/1/5
f 86/2/5 82/2/5 85/2/5
f 87/2/6 88/2/6 91/2/6
f 89/2/6 90/2/6 92/2/6
f 91/2/6 88/2/6 93/2/6
f 88/1/6 89/1/6 94/1/6
f 93/2/6 88/2/6 94/2/6
f 89/2/6 92/2/6 95/2/6
f 94/1/6 89/1/6 95/1/6
f 95/2/6 92/2/6 96/2/6
f 97/2/6 98/2/6 101/2/6
f 99/2/6 100/2/6 102/2/6
f 97/2/6 101/2/6 103/2/6
f 102/2/6 100/2/6 106/2/6
f 104/2/6 105/2/6 107/2/6
f 105/2/6 106/2/6 107/2/6
f 97/2/6 103/2/6 107/2/6
f 103/2/6 104/2/6 107/2/6
f 106/2/6 100/2/6 108/2/6
f 107/2/6 106/2/6 108/2/6
f 109/2/6 110/2/6 113/2/6
f 110/1/6 111/1/6 114/1/6
f 113/2/6 110/2/6 114/2/6
f 111/2/6 112/2/6 115/2/6
f 114/1/6 111/1/6 115/1/6
f 115/2/6 112/2/6 116/2/6
