# MagicaVoxel @ Ephtracy

# group
o 

# material
mtllib counter.mtl
usemtl palette

# normals
vn -1 0 0
vn 1 0 0
vn 0 0 1
vn 0 0 -1
vn 0 -1 0
vn 0 1 0

# texcoords
vt 0.822266 0.5
vt 0.841797 0.5
vt 0.958984 0.5
vt 0.966797 0.5
vt 0.974609 0.5
vt 0.994141 0.5

# verts
v -1.7 -1.1 0.7
v -1.7 -1.1 -0.8
v -1.7 -0.5 0.7
v -1.7 -0.5 0.6
v -1.7 -0.4 0.7
v -1.7 -0.4 0.6
v -1.7 -0.1 0.7
v -1.7 -0.1 0.6
v -1.7 0 0.7
v -1.7 0 0.6
v -1.7 0.3 0.7
v -1.7 0.3 0.6
v -1.7 0.4 0.7
v -1.7 0.4 0.6
v -1.7 0.7 0.7
v -1.7 0.7 -0.8
v -1.7 0.9 0.7
v -1.7 0.9 -0.8
v -1.1 -0.7 0.8
v -1.1 -0.7 0.7
v -1.1 -0.6 0.8
v -1.1 -0.6 0.7
v -1.1 -0.3 0.8
v -1.1 -0.3 0.7
v -1.1 -0.2 0.8
v -1.1 -0.2 0.7
v -1.1 0.1 0.8
v -1.1 0.1 0.7
v -1.1 0.2 0.8
v -1.1 0.2 0.7
v -1.1 0.5 0.8
v -1.1 0.5 0.7
v -1.1 0.6 0.8
v -1.1 0.6 0.7
v 0.0999999 0.2 0.8
v 0.0999999 0.2 0.7
v 0.0999999 0.5 0.8
v 0.0999999 0.5 0.7
v 0.3 1.1 -0.2
v 0.3 1.1 -0.3
v 0.3 1.2 -0.2
v 0.3 1.2 -0.3
v 0.4 0.9 -0.6
v 0.4 0.9 -0.7
v 0.4 1 -0.1
v 0.4 1 -0.2
v 0.4 1.1 -0.2
v 0.4 1.1 -0.3
v 0.4 1.1 -0.6
v 0.4 1.2 -0.1
v 0.4 1.2 -0.2
v 0.4 1.2 -0.3
v 0.4 1.2 -0.7
v 1.1 0.5 0.5
v 1.1 0.5 -0.5
v 1.1 0.9 0.5
v 1.1 0.9 -0.5
v 1.3 -0.5 0.8
v 1.3 -0.5 0.7
v 1.3 -0.4 0.8
v 1.3 -0.4 0.7
v 1.3 0 0.8
v 1.3 0 0.7
v 1.3 0.1 0.8
v 1.3 0.1 0.7
v 1.3 0.5 0.8
v 1.3 0.5 0.7
v 1.3 0.6 0.8
v 1.3 0.6 0.7
v -0.7 -0.7 0.8
v -0.7 -0.7 0.7
v -0.7 -0.6 0.8
v -0.7 -0.6 0.7
v -0.7 -0.3 0.8
v -0.7 -0.3 0.7
v -0.7 -0.2 0.8
v -0.7 -0.2 0.7
v -0.7 0.1 0.8
v -0.7 0.1 0.7
v -0.7 0.2 0.8
v -0.7 0.2 0.7
v -0.7 0.5 0.8
v -0.7 0.5 0.7
v -0.7 0.6 0.8
v -0.7 0.6 0.7
v -0.1 0.5 0.5
v -0.1 0.5 -0.5
v -0.1 0.9 0.5
v -0.1 0.9 -0.5
v 0.2 0.2 0.8
v 0.2 0.2 0.7
v 0.2 0.5 0.8
v 0.2 0.5 0.7
v 0.6 0.9 -0.6
v 0.6 0.9 -0.7
v 0.6 1 -0.1
v 0.6 1 -0.2
v 0.6 1.1 -0.2
v 0.6 1.1 -0.3
v 0.6 1.1 -0.6
v 0.6 1.2 -0.1
v 0.6 1.2 -0.2
v 0.6 1.2 -0.3
v 0.6 1.2 -0.7
v 0.7 1.1 -0.2
v 0.7 1.1 -0.3
v 0.7 1.2 -0.2
v 0.7 1.2 -0.3
v 1.6 -0.5 0.8
v 1.6 -0.5 0.7
v 1.6 -0.4 0.8
v 1.6 -0.4 0.7
v 1.6 0 0.8
v 1.6 0 0.7
v 1.6 0.1 0.8
v 1.6 0.1 0.7
v 1.6 0.5 0.8
v 1.6 0.5 0.7
v 1.6 0.6 0.8
v 1.6 0.6 0.7
v 1.8 -1.1 0.7
v 1.8 -1.1 -0.8
v 1.8 -0.3 0.7
v 1.8 -0.3 0.6
v 1.8 -0.2 0.7
v 1.8 -0.2 0.6
v 1.8 0.2 0.7
v 1.8 0.2 0.6
v 1.8 0.3 0.7
v 1.8 0.3 0.6
v 1.8 0.7 0.7
v 1.8 0.7 -0.8
v 1.8 0.9 0.7
v 1.8 0.9 -0.8
v -1.1 -0.7 0.8
v -1.1 -0.6 0.8
v -1.1 -0.3 0.8
v -1.1 -0.2 0.8
v -1.1 0.1 0.8
v -1.1 0.2 0.8
v -1.1 0.5 0.8
v -1.1 0.6 0.8
v -0.7 -0.7 0.8
v -0.7 -0.6 0.8
v -0.7 -0.3 0.8
v -0.7 -0.2 0.8
v -0.7 0.1 0.8
v -0.7 0.2 0.8
v -0.7 0.5 0.8
v -0.7 0.6 0.8
v 0.0999999 0.2 0.8
v 0.0999999 0.5 0.8
v 0.2 0.2 0.8
v 0.2 0.5 0.8
v 1.3 -0.5 0.8
v 1.3 -0.4 0.8
v 1.3 0 0.8
v 1.3 0.1 0.8
v 1.3 0.5 0.8
v 1.3 0.6 0.8
v 1.6 -0.5 0.8
v 1.6 -0.4 0.8
v 1.6 0 0.8
v 1.6 0.1 0.8
v 1.6 0.5 0.8
v 1.6 0.6 0.8
v -1.7 -1.1 0.7
v -1.7 -0.5 0.7
v -1.7 -0.4 0.7
v -1.7 -0.1 0.7
v -1.7 0 0.7
v -1.7 0.3 0.7
v -1.7 0.4 0.7
v -1.7 0.7 0.7
v -1.7 0.9 0.7
v -1.1 -0.7 0.7
v -1.1 -0.6 0.7
v -1.1 -0.3 0.7
v -1.1 -0.2 0.7
v -1.1 0.1 0.7
v -1.1 0.2 0.7
v -1.1 0.5 0.7
v -1.1 0.6 0.7
v -0.7 -0.7 0.7
v -0.7 -0.6 0.7
v -0.7 -0.3 0.7
v -0.7 -0.2 0.7
v -0.7 0.1 0.7
v -0.7 0.2 0.7
v -0.7 0.5 0.7
v -0.7 0.6 0.7
v -0.1 -1.1 0.7
v -0.1 -0.5 0.7
v -0.1 -0.4 0.7
v -0.1 -0.1 0.7
v -0.1 0 0.7
v -0.1 0.3 0.7
v -0.1 0.4 0.7
v -0.1 0.7 0.7
v 0 -1.1 0.7
v 0 0.7 0.7
v 0.0999999 0.2 0.7
v 0.0999999 0.5 0.7
v 0.2 0.2 0.7
v 0.2 0.5 0.7
v 1 -1.1 0.7
v 1 0.7 0.7
v 1.1 -1.1 0.7
v 1.1 -0.3 0.7
v 1.1 -0.2 0.7
v 1.1 0.2 0.7
v 1.1 0.3 0.7
v 1.1 0.7 0.7
v 1.3 -0.5 0.7
v 1.3 -0.4 0.7
v 1.3 0 0.7
v 1.3 0.1 0.7
v 1.3 0.5 0.7
v 1.3 0.6 0.7
v 1.6 -0.5 0.7
v 1.6 -0.4 0.7
v 1.6 0 0.7
v 1.6 0.1 0.7
v 1.6 0.5 0.7
v 1.6 0.6 0.7
v 1.8 -1.1 0.7
v 1.8 -0.3 0.7
v 1.8 -0.2 0.7
v 1.8 0.2 0.7
v 1.8 0.3 0.7
v 1.8 0.7 0.7
v 1.8 0.9 0.7
v 0.4 1 -0.1
v 0.4 1.2 -0.1
v 0.6 1 -0.1
v 0.6 1.2 -0.1
v 0.3 1.1 -0.2
v 0.3 1.2 -0.2
v 0.4 1.1 -0.2
v 0.4 1.2 -0.2
v 0.6 1.1 -0.2
v 0.6 1.2 -0.2
v 0.7 1.1 -0.2
v 0.7 1.2 -0.2
v -0.1 0.5 -0.5
v -0.1 0.9 -0.5
v 1.1 0.5 -0.5
v 1.1 0.9 -0.5
v 0.4 0.9 -0.6
v 0.4 1.1 -0.6
v 0.6 0.9 -0.6
v 0.6 1.1 -0.6
v -0.1 0.5 0.5
v -0.1 0.9 0.5
v 1.1 0.5 0.5
v 1.1 0.9 0.5
v 0.4 1 -0.2
v 0.4 1.1 -0.2
v 0.6 1 -0.2
v 0.6 1.1 -0.2
v 0.3 1.1 -0.3
v 0.3 1.2 -0.3
v 0.4 1.1 -0.3
v 0.4 1.2 -0.3
v 0.6 1.1 -0.3
v 0.6 1.2 -0.3
v 0.7 1.1 -0.3
v 0.7 1.2 -0.3
v 0.4 0.9 -0.7
v 0.4 1.2 -0.7
v 0.6 0.9 -0.7
v 0.6 1.2 -0.7
v -1.7 -1.1 -0.8
v -1.7 0.7 -0.8
v -1.7 0.9 -0.8
v 1.8 -1.1 -0.8
v 1.8 0.7 -0.8
v 1.8 0.9 -0.8
v -1.7 -1.1 0.7
v -0.1 -1.1 0.7
v 0 -1.1 0.7
v 1 -1.1 0.7
v 1.1 -1.1 0.7
v 1.8 -1.1 0.7
v -0.1 -1.1 0.6
v 0 -1.1 0.6
v 1 -1.1 0.6
v 1.1 -1.1 0.6
v -1.7 -1.1 -0.8
v 1.8 -1.1 -0.8
v -1.1 -0.7 0.8
v -0.7 -0.7 0.8
v -1.1 -0.7 0.7
v -0.7 -0.7 0.7
v 1.3 -0.5 0.8
v 1.6 -0.5 0.8
v 1.3 -0.5 0.7
v 1.6 -0.5 0.7
v -1.1 -0.3 0.8
v -0.7 -0.3 0.8
v -1.1 -0.3 0.7
v -0.7 -0.3 0.7
v 1.3 0 0.8
v 1.6 0 0.8
v 1.3 0 0.7
v 1.6 0 0.7
v -1.1 0.1 0.8
v -0.7 0.1 0.8
v -1.1 0.1 0.7
v -0.7 0.1 0.7
v 0.0999999 0.2 0.8
v 0.2 0.2 0.8
v 0.0999999 0.2 0.7
v 0.2 0.2 0.7
v -1.1 0.5 0.8
v -0.7 0.5 0.8
v 1.3 0.5 0.8
v 1.6 0.5 0.8
v -1.1 0.5 0.7
v -0.7 0.5 0.7
v 1.3 0.5 0.7
v 1.6 0.5 0.7
v 0.4 1 -0.1
v 0.6 1 -0.1
v 0.4 1 -0.2
v 0.6 1 -0.2
v 0.3 1.1 -0.2
v 0.4 1.1 -0.2
v 0.6 1.1 -0.2
v 0.7 1.1 -0.2
v 0.3 1.1 -0.3
v 0.4 1.1 -0.3
v 0.6 1.1 -0.3
v 0.7 1.1 -0.3
v 0.4 1.1 -0.6
v 0.6 1.1 -0.6
v -1.1 -0.6 0.8
v -0.7 -0.6 0.8
v -1.1 -0.6 0.7
v -0.7 -0.6 0.7
v 1.3 -0.4 0.8
v 1.6 -0.4 0.8
v 1.3 -0.4 0.7
v 1.6 -0.4 0.7
v -1.1 -0.2 0.8
v -0.7 -0.2 0.8
v -1.1 -0.2 0.7
v -0.7 -0.2 0.7
v 1.3 0.1 0.8
v 1.6 0.1 0.8
v 1.3 0.1 0.7
v 1.6 0.1 0.7
v -1.1 0.2 0.8
v -0.7 0.2 0.8
v -1.1 0.2 0.7
v -0.7 0.2 0.7
v 0.0999999 0.5 0.8
v 0.2 0.5 0.8
v 0.0999999 0.5 0.7
v 0.2 0.5 0.7
v -0.1 0.5 0.5
v 1.1 0.5 0.5
v 0.4 0.5 0.1
v 0.6 0.5 0.1
v 0.4 0.5 -0.1
v 0.6 0.5 -0.1
v -0.1 0.5 -0.5
v 1.1 0.5 -0.5
v -1.1 0.6 0.8
v -0.7 0.6 0.8
v 1.3 0.6 0.8
v 1.6 0.6 0.8
v -1.1 0.6 0.7
v -0.7 0.6 0.7
v 1.3 0.6 0.7
v 1.6 0.6 0.7
v -1.7 0.9 0.7
v 1.8 0.9 0.7
v -0.1 0.9 0.5
v 1.1 0.9 0.5
v -0.1 0.9 -0.5
v 1.1 0.9 -0.5
v 0.4 0.9 -0.6
v 0.6 0.9 -0.6
v 0.4 0.9 -0.7
v 0.6 0.9 -0.7
v -1.7 0.9 -0.8
v 1.8 0.9 -0.8
v 0.4 1.2 -0.1
v 0.6 1.2 -0.1
v 0.3 1.2 -0.2
v 0.4 1.2 -0.2
v 0.6 1.2 -0.2
v 0.7 1.2 -0.2
v 0.3 1.2 -0.3
v 0.4 1.2 -0.3
v 0.6 1.2 -0.3
v 0.7 1.2 -0.3
v 0.4 1.2 -0.7
v 0.6 1.2 -0.7

# faces
f 3/3/1 2/3/1 1/3/1
f 4/3/1 2/3/1 3/3/1
f 5/4/1 4/4/1 3/4/1
f 6/3/1 2/3/1 4/3/1
f 6/4/1 4/4/1 5/4/1
f 7/3/1 6/3/1 5/3/1
f 8/3/1 2/3/1 6/3/1
f 8/3/1 6/3/1 7/3/1
f 9/4/1 8/4/1 7/4/1
f 10/3/1 2/3/1 8/3/1
f 10/4/1 8/4/1 9/4/1
f 11/3/1 10/3/1 9/3/1
f 12/3/1 2/3/1 10/3/1
f 12/3/1 10/3/1 11/3/1
f 13/4/1 12/4/1 11/4/1
f 14/3/1 2/3/1 12/3/1
f 14/4/1 12/4/1 13/4/1
f 15/3/1 14/3/1 13/3/1
f 16/3/1 2/3/1 14/3/1
f 16/3/1 14/3/1 15/3/1
f 17/4/1 16/4/1 15/4/1
f 18/4/1 16/4/1 17/4/1
f 21/4/1 20/4/1 19/4/1
f 22/4/1 20/4/1 21/4/1
f 25/4/1 24/4/1 23/4/1
f 26/4/1 24/4/1 25/4/1
f 29/4/1 28/4/1 27/4/1
f 30/4/1 28/4/1 29/4/1
f 33/4/1 32/4/1 31/4/1
f 34/4/1 32/4/1 33/4/1
f 37/4/1 36/4/1 35/4/1
f 38/4/1 36/4/1 37/4/1
f 41/2/1 40/2/1 39/2/1
f 42/2/1 40/2/1 41/2/1
f 47/5/1 46/5/1 45/5/1
f 49/5/1 44/5/1 43/5/1
f 50/5/1 47/5/1 45/5/1
f 51/5/1 47/5/1 50/5/1
f 52/5/1 49/5/1 48/5/1
f 53/5/1 44/5/1 49/5/1
f 53/5/1 49/5/1 52/5/1
f 56/4/1 55/4/1 54/4/1
f 57/4/1 55/4/1 56/4/1
f 60/4/1 59/4/1 58/4/1
f 61/4/1 59/4/1 60/4/1
f 64/4/1 63/4/1 62/4/1
f 65/4/1 63/4/1 64/4/1
f 68/4/1 67/4/1 66/4/1
f 69/4/1 67/4/1 68/4/1
f 70/4/2 71/4/2 72/4/2
f 72/4/2 71/4/2 73/4/2
f 74/4/2 75/4/2 76/4/2
f 76/4/2 75/4/2 77/4/2
f 78/4/2 79/4/2 80/4/2
f 80/4/2 79/4/2 81/4/2
f 82/4/2 83/4/2 84/4/2
f 84/4/2 83/4/2 85/4/2
f 86/4/2 87/4/2 88/4/2
f 88/4/2 87/4/2 89/4/2
f 90/4/2 91/4/2 92/4/2
f 92/4/2 91/4/2 93/4/2
f 96/5/2 97/5/2 98/5/2
f 94/5/2 95/5/2 100/5/2
f 96/5/2 98/5/2 101/5/2
f 101/5/2 98/5/2 102/5/2
f 99/5/2 100/5/2 103/5/2
f 100/5/2 95/5/2 104/5/2
f 103/5/2 100/5/2 104/5/2
f 105/1/2 106/1/2 107/1/2
f 107/1/2 106/1/2 108/1/2
f 109/4/2 110/4/2 111/4/2
f 111/4/2 110/4/2 112/4/2
f 113/4/2 114/4/2 115/4/2
f 115/4/2 114/4/2 116/4/2
f 117/4/2 118/4/2 119/4/2
f 119/4/2 118/4/2 120/4/2
f 121/3/2 122/3/2 123/3/2
f 123/3/2 122/3/2 124/3/2
f 123/4/2 124/4/2 125/4/2
f 124/3/2 122/3/2 126/3/2
f 125/4/2 124/4/2 126/4/2
f 125/3/2 126/3/2 127/3/2
f 126/3/2 122/3/2 128/3/2
f 127/3/2 126/3/2 128/3/2
f 127/4/2 128/4/2 129/4/2
f 128/3/2 122/3/2 130/3/2
f 129/4/2 128/4/2 130/4/2
f 129/3/2 130/3/2 131/3/2
f 130/3/2 122/3/2 132/3/2
f 131/3/2 130/3/2 132/3/2
f 131/4/2 132/4/2 133/4/2
f 133/4/2 132/4/2 134/4/2
f 143/4/3 136/4/3 135/4/3
f 144/4/3 136/4/3 143/4/3
f 145/4/3 138/4/3 137/4/3
f 146/4/3 138/4/3 145/4/3
f 147/4/3 140/4/3 139/4/3
f 148/4/3 140/4/3 147/4/3
f 149/4/3 142/4/3 141/4/3
f 150/4/3 142/4/3 149/4/3
f 153/4/3 152/4/3 151/4/3
f 154/4/3 152/4/3 153/4/3
f 161/4/3 156/4/3 155/4/3
f 162/4/3 156/4/3 161/4/3
f 163/4/3 158/4/3 157/4/3
f 164/4/3 158/4/3 163/4/3
f 165/4/3 160/4/3 159/4/3
f 166/4/3 160/4/3 165/4/3
f 176/3/3 168/3/3 167/3/3
f 177/3/3 168/3/3 176/3/3
f 178/3/3 170/3/3 169/3/3
f 179/3/3 170/3/3 178/3/3
f 180/3/3 172/3/3 171/3/3
f 181/3/3 172/3/3 180/3/3
f 182/3/3 174/3/3 173/3/3
f 183/3/3 174/3/3 182/3/3
f 184/3/3 176/3/3 167/3/3
f 185/3/3 168/3/3 177/3/3
f 186/3/3 178/3/3 169/3/3
f 187/3/3 170/3/3 179/3/3
f 188/3/3 180/3/3 171/3/3
f 189/3/3 172/3/3 181/3/3
f 190/3/3 182/3/3 173/3/3
f 191/3/3 174/3/3 183/3/3
f 192/3/3 184/3/3 167/3/3
f 192/3/3 185/3/3 184/3/3
f 193/4/3 169/4/3 168/4/3
f 193/3/3 185/3/3 192/3/3
f 193/3/3 168/3/3 185/3/3
f 194/3/3 186/3/3 169/3/3
f 194/4/3 169/4/3 193/4/3
f 194/3/3 187/3/3 186/3/3
f 195/4/3 171/4/3 170/4/3
f 195/3/3 187/3/3 194/3/3
f 195/3/3 170/3/3 187/3/3
f 196/3/3 188/3/3 171/3/3
f 196/4/3 171/4/3 195/4/3
f 196/3/3 189/3/3 188/3/3
f 197/4/3 173/4/3 172/4/3
f 197/3/3 189/3/3 196/3/3
f 197/3/3 172/3/3 189/3/3
f 198/3/3 191/3/3 190/3/3
f 198/4/3 173/4/3 197/4/3
f 198/3/3 190/3/3 173/3/3
f 199/4/3 175/4/3 174/4/3
f 199/3/3 191/3/3 198/3/3
f 199/3/3 174/3/3 191/3/3
f 200/4/3 198/4/3 197/4/3
f 200/4/3 197/4/3 196/4/3
f 200/4/3 199/4/3 198/4/3
f 200/4/3 194/4/3 193/4/3
f 200/4/3 193/4/3 192/4/3
f 200/4/3 196/4/3 195/4/3
f 200/4/3 195/4/3 194/4/3
f 201/4/3 175/4/3 199/4/3
f 201/4/3 199/4/3 200/4/3
f 202/3/3 201/3/3 200/3/3
f 203/3/3 201/3/3 202/3/3
f 204/3/3 202/3/3 200/3/3
f 205/3/3 201/3/3 203/3/3
f 206/3/3 204/3/3 200/3/3
f 206/3/3 205/3/3 204/3/3
f 207/4/3 175/4/3 201/4/3
f 207/3/3 205/3/3 206/3/3
f 207/3/3 201/3/3 205/3/3
f 208/4/3 207/4/3 206/4/3
f 209/4/3 207/4/3 208/4/3
f 210/4/3 207/4/3 209/4/3
f 211/4/3 207/4/3 210/4/3
f 212/4/3 207/4/3 211/4/3
f 213/4/3 175/4/3 207/4/3
f 213/4/3 207/4/3 212/4/3
f 214/3/3 209/3/3 208/3/3
f 215/3/3 209/3/3 214/3/3
f 216/3/3 211/3/3 210/3/3
f 217/3/3 211/3/3 216/3/3
f 218/3/3 213/3/3 212/3/3
f 219/3/3 213/3/3 218/3/3
f 220/3/3 214/3/3 208/3/3
f 221/3/3 209/3/3 215/3/3
f 222/3/3 216/3/3 210/3/3
f 223/3/3 211/3/3 217/3/3
f 224/3/3 218/3/3 212/3/3
f 225/3/3 213/3/3 219/3/3
f 226/3/3 220/3/3 208/3/3
f 226/3/3 221/3/3 220/3/3
f 227/4/3 210/4/3 209/4/3
f 227/3/3 221/3/3 226/3/3
f 227/3/3 209/3/3 221/3/3
f 228/3/3 222/3/3 210/3/3
f 228/4/3 210/4/3 227/4/3
f 228/3/3 223/3/3 222/3/3
f 229/4/3 212/4/3 211/4/3
f 229/3/3 223/3/3 228/3/3
f 229/3/3 211/3/3 223/3/3
f 230/3/3 225/3/3 224/3/3
f 230/4/3 212/4/3 229/4/3
f 230/3/3 224/3/3 212/3/3
f 231/4/3 175/4/3 213/4/3
f 231/3/3 225/3/3 230/3/3
f 231/3/3 213/3/3 225/3/3
f 232/4/3 175/4/3 231/4/3
f 235/5/3 234/5/3 233/5/3
f 236/5/3 234/5/3 235/5/3
f 239/2/3 238/2/3 237/2/3
f 240/2/3 238/2/3 239/2/3
f 243/1/3 242/1/3 241/1/3
f 244/1/3 242/1/3 243/1/3
f 247/4/3 246/4/3 245/4/3
f 248/4/3 246/4/3 247/4/3
f 251/5/3 250/5/3 249/5/3
f 252/5/3 250/5/3 251/5/3
f 253/4/4 254/4/4 255/4/4
f 255/4/4 254/4/4 256/4/4
f 257/5/4 258/5/4 259/5/4
f 259/5/4 258/5/4 260/5/4
f 261/2/4 262/2/4 263/2/4
f 263/2/4 262/2/4 264/2/4
f 265/1/4 266/1/4 267/1/4
f 267/1/4 266/1/4 268/1/4
f 269/5/4 270/5/4 271/5/4
f 271/5/4 270/5/4 272/5/4
f 273/3/4 274/3/4 276/3/4
f 274/4/4 275/4/4 277/4/4
f 276/3/4 274/3/4 277/3/4
f 277/4/4 275/4/4 278/4/4
f 285/3/5 280/3/5 279/3/5
f 285/4/5 281/4/5 280/4/5
f 286/3/5 282/3/5 281/3/5
f 286/4/5 281/4/5 285/4/5
f 287/4/5 283/4/5 282/4/5
f 287/3/5 282/3/5 286/3/5
f 288/3/5 284/3/5 283/3/5
f 288/4/5 283/4/5 287/4/5
f 289/3/5 287/3/5 286/3/5
f 289/3/5 286/3/5 285/3/5
f 289/3/5 288/3/5 287/3/5
f 289/3/5 285/3/5 279/3/5
f 290/3/5 284/3/5 288/3/5
f 290/3/5 288/3/5 289/3/5
f 293/4/5 292/4/5 291/4/5
f 294/4/5 292/4/5 293/4/5
f 297/4/5 296/4/5 295/4/5
f 298/4/5 296/4/5 297/4/5
f 301/4/5 300/4/5 299/4/5
f 302/4/5 300/4/5 301/4/5
f 305/4/5 304/4/5 303/4/5
f 306/4/5 304/4/5 305/4/5
f 309/4/5 308/4/5 307/4/5
f 310/4/5 308/4/5 309/4/5
f 313/4/5 312/4/5 311/4/5
f 314/4/5 312/4/5 313/4/5
f 319/4/5 316/4/5 315/4/5
f 320/4/5 316/4/5 319/4/5
f 321/4/5 318/4/5 317/4/5
f 322/4/5 318/4/5 321/4/5
f 325/5/5 324/5/5 323/5/5
f 326/5/5 324/5/5 325/5/5
f 331/2/5 328/2/5 327/2/5
f 332/5/5 329/5/5 328/5/5
f 332/2/5 328/2/5 331/2/5
f 333/1/5 330/1/5 329/1/5
f 333/5/5 329/5/5 332/5/5
f 334/1/5 330/1/5 333/1/5
f 335/5/5 333/5/5 332/5/5
f 336/5/5 333/5/5 335/5/5
f 337/4/6 338/4/6 339/4/6
f 339/4/6 338/4/6 340/4/6
f 341/4/6 342/4/6 343/4/6
f 343/4/6 342/4/6 344/4/6
f 345/4/6 346/4/6 347/4/6
f 347/4/6 346/4/6 348/4/6
f 349/4/6 350/4/6 351/4/6
f 351/4/6 350/4/6 352/4/6
f 353/4/6 354/4/6 355/4/6
f 355/4/6 354/4/6 356/4/6
f 357/4/6 358/4/6 359/4/6
f 359/4/6 358/4/6 360/4/6
f 361/4/6 362/4/6 363/4/6
f 363/4/6 362/4/6 364/4/6
f 361/4/6 363/4/6 365/4/6
f 363/6/6 364/6/6 365/6/6
f 364/4/6 362/4/6 366/4/6
f 365/6/6 364/6/6 366/6/6
f 361/4/6 365/4/6 367/4/6
f 365/4/6 366/4/6 367/4/6
f 366/4/6 362/4/6 368/4/6
f 367/4/6 366/4/6 368/4/6
f 369/4/6 370/4/6 373/4/6
f 373/4/6 370/4/6 374/4/6
f 371/4/6 372/4/6 375/4/6
f 375/4/6 372/4/6 376/4/6
f 377/4/6 378/4/6 379/4/6
f 379/4/6 378/4/6 380/4/6
f 377/4/6 379/4/6 381/4/6
f 380/4/6 378/4/6 382/4/6
f 381/4/6 382/4/6 383/4/6
f 383/4/6 382/4/6 384/4/6
f 381/4/6 383/4/6 385/4/6
f 384/4/6 382/4/6 386/4/6
f 377/4/6 381/4/6 387/4/6
f 385/4/6 386/4/6 387/4/6
f 381/4/6 385/4/6 387/4/6
f 386/4/6 382/4/6 388/4/6
f 387/4/6 386/4/6 388/4/6
f 382/4/6 378/4/6 388/4/6
f 389/5/6 390/5/6 392/5/6
f 392/5/6 390/5/6 393/5/6
f 391/2/6 392/2/6 395/2/6
f 392/5/6 393/5/6 396/5/6
f 395/2/6 392/2/6 396/2/6
f 393/1/6 394/1/6 397/1/6
f 396/5/6 393/5/6 397/5/6
f 397/1/6 394/1/6 398/1/6
f 396/5/6 397/5/6 399/5/6
f 399/5/6 397/5/6 400/5/6
