# MagicaVoxel @ Ephtracy

# group
o 

# material
mtllib fridge.mtl
usemtl palette

# normals
vn -1 0 0
vn 1 0 0
vn 0 0 1
vn 0 0 -1
vn 0 -1 0
vn 0 1 0

# texcoords
vt 0.00585938 0.5
vt 0.0292969 0.5
vt 0.958984 0.5
vt 0.962891 0.5
vt 0.966797 0.5

# verts
v -0.7 -2.2 0.7
v -0.7 -2.2 0.6
v -0.7 -2.2 0.5
v -0.7 -2.2 -0.8
v -0.7 -0.6 0.7
v -0.7 -0.6 0.6
v -0.7 -0.5 0.7
v -0.7 -0.5 0.6
v -0.7 2.3 0.7
v -0.7 2.3 0.6
v -0.7 2.3 0.5
v -0.7 2.3 -0.8
v -0.6 -1.1 0.8
v -0.6 -1.1 0.7
v -0.6 -0.7 0.8
v -0.6 -0.7 0.7
v -0.6 -0.4 0.8
v -0.6 -0.4 0.7
v -0.6 1 0.8
v -0.6 1 0.7
v -0.5 -1.1 0.8
v -0.5 -1.1 0.7
v -0.5 -0.7 0.8
v -0.5 -0.7 0.7
v -0.5 -0.4 0.8
v -0.5 -0.4 0.7
v -0.5 1 0.8
v -0.5 1 0.7
v 0.8 -2.2 0.7
v 0.8 -2.2 0.6
v 0.8 -2.2 0.5
v 0.8 -2.2 -0.8
v 0.8 -0.6 0.7
v 0.8 -0.6 0.6
v 0.8 -0.5 0.7
v 0.8 -0.5 0.6
v 0.8 2.3 0.7
v 0.8 2.3 0.6
v 0.8 2.3 0.5
v 0.8 2.3 -0.8
v -0.6 -1.1 0.8
v -0.6 -0.7 0.8
v -0.6 -0.4 0.8
v -0.6 1 0.8
v -0.5 -1.1 0.8
v -0.5 -0.7 0.8
v -0.5 -0.4 0.8
v -0.5 1 0.8
v -0.7 -2.2 0.7
v -0.7 -0.6 0.7
v -0.7 -0.5 0.7
v -0.7 2.3 0.7
v -0.6 -1.1 0.7
v -0.6 -0.7 0.7
v -0.6 -0.4 0.7
v -0.6 1 0.7
v -0.5 -1.1 0.7
v -0.5 -0.7 0.7
v -0.5 -0.4 0.7
v -0.5 1 0.7
v -0.3 -1 0.7
v -0.3 -0.8 0.7
v -0.3 0.6 0.7
v -0.3 1.4 0.7
v -0.2 0.8 0.7
v -0.2 0.9 0.7
v -0.2 1 0.7
v -0.2 1.1 0.7
v -0.2 1.2 0.7
v -0.2 1.3 0.7
v -0.1 -1 0.7
v -0.1 -0.8 0.7
v 0 -1.1 0.7
v 0 -0.9 0.7
v 0.1 -0.4 0.7
v 0.1 0.4 0.7
v 0.1 0.8 0.7
v 0.1 0.9 0.7
v 0.1 1 0.7
v 0.1 1.1 0.7
v 0.1 1.2 0.7
v 0.1 1.3 0.7
v 0.2 -1.1 0.7
v 0.2 -0.9 0.7
v 0.2 -0.2 0.7
v 0.2 -0.0999999 0.7
v 0.2 0 0.7
v 0.2 0.1 0.7
v 0.2 0.2 0.7
v 0.2 0.3 0.7
v 0.2 0.6 0.7
v 0.2 1.4 0.7
v 0.5 -0.2 0.7
v 0.5 -0.0999999 0.7
v 0.5 0 0.7
v 0.5 0.1 0.7
v 0.5 0.2 0.7
v 0.5 0.3 0.7
v 0.6 -0.4 0.7
v 0.6 0.4 0.7
v 0.8 -2.2 0.7
v 0.8 -0.6 0.7
v 0.8 -0.5 0.7
v 0.8 2.3 0.7
v -0.7 -2.2 -0.8
v -0.7 2.3 -0.8
v 0.8 -2.2 -0.8
v 0.8 2.3 -0.8
v -0.7 -2.2 0.7
v 0.8 -2.2 0.7
v -0.7 -2.2 0.6
v 0.8 -2.2 0.6
v -0.7 -2.2 0.5
v 0.8 -2.2 0.5
v -0.7 -2.2 -0.8
v 0.8 -2.2 -0.8
v -0.6 -1.1 0.8
v -0.5 -1.1 0.8
v -0.6 -1.1 0.7
v -0.5 -1.1 0.7
v -0.6 -0.4 0.8
v -0.5 -0.4 0.8
v -0.6 -0.4 0.7
v -0.5 -0.4 0.7
v -0.6 -0.7 0.8
v -0.5 -0.7 0.8
v -0.6 -0.7 0.7
v -0.5 -0.7 0.7
v -0.6 1 0.8
v -0.5 1 0.8
v -0.6 1 0.7
v -0.5 1 0.7
v -0.7 2.3 0.7
v 0.8 2.3 0.7
v -0.7 2.3 0.6
v 0.8 2.3 0.6
v -0.7 2.3 0.5
v 0.8 2.3 0.5
v -0.7 2.3 -0.8
v 0.8 2.3 -0.8

# faces
f 5/3/1 2/3/1 1/3/1
f 6/4/1 3/4/1 2/4/1
f 6/3/1 2/3/1 5/3/1
f 7/4/1 6/4/1 5/4/1
f 8/4/1 3/4/1 6/4/1
f 8/4/1 6/4/1 7/4/1
f 9/3/1 8/3/1 7/3/1
f 10/4/1 3/4/1 8/4/1
f 10/3/1 8/3/1 9/3/1
f 11/3/1 4/3/1 3/3/1
f 11/4/1 3/4/1 10/4/1
f 12/3/1 4/3/1 11/3/1
f 15/5/1 14/5/1 13/5/1
f 16/5/1 14/5/1 15/5/1
f 19/5/1 18/5/1 17/5/1
f 20/5/1 18/5/1 19/5/1
f 21/5/2 22/5/2 23/5/2
f 23/5/2 22/5/2 24/5/2
f 25/5/2 26/5/2 27/5/2
f 27/5/2 26/5/2 28/5/2
f 29/3/2 30/3/2 33/3/2
f 30/4/2 31/4/2 34/4/2
f 33/3/2 30/3/2 34/3/2
f 33/4/2 34/4/2 35/4/2
f 34/4/2 31/4/2 36/4/2
f 35/4/2 34/4/2 36/4/2
f 35/3/2 36/3/2 37/3/2
f 36/4/2 31/4/2 38/4/2
f 37/3/2 36/3/2 38/3/2
f 31/3/2 32/3/2 39/3/2
f 38/4/2 31/4/2 39/4/2
f 39/3/2 32/3/2 40/3/2
f 45/5/3 42/5/3 41/5/3
f 46/5/3 42/5/3 45/5/3
f 47/5/3 44/5/3 43/5/3
f 48/5/3 44/5/3 47/5/3
f 53/3/3 50/3/3 49/3/3
f 54/3/3 50/3/3 53/3/3
f 55/3/3 52/3/3 51/3/3
f 56/3/3 52/3/3 55/3/3
f 57/3/3 53/3/3 49/3/3
f 58/3/3 50/3/3 54/3/3
f 59/3/3 55/3/3 51/3/3
f 60/3/3 52/3/3 56/3/3
f 61/3/3 58/3/3 57/3/3
f 62/3/3 58/3/3 61/3/3
f 63/3/3 60/3/3 59/3/3
f 64/3/3 52/3/3 60/3/3
f 64/3/3 60/3/3 63/3/3
f 65/2/3 64/2/3 63/2/3
f 66/2/3 64/2/3 65/2/3
f 67/2/3 64/2/3 66/2/3
f 68/2/3 64/2/3 67/2/3
f 69/2/3 64/2/3 68/2/3
f 70/2/3 64/2/3 69/2/3
f 71/3/3 61/3/3 57/3/3
f 71/1/3 62/1/3 61/1/3
f 72/3/3 58/3/3 62/3/3
f 72/1/3 62/1/3 71/1/3
f 73/3/3 57/3/3 49/3/3
f 73/3/3 71/3/3 57/3/3
f 73/3/3 72/3/3 71/3/3
f 74/3/3 72/3/3 73/3/3
f 75/3/3 59/3/3 51/3/3
f 75/3/3 63/3/3 59/3/3
f 76/3/3 63/3/3 75/3/3
f 77/2/3 65/2/3 63/2/3
f 77/4/3 66/4/3 65/4/3
f 78/2/3 67/2/3 66/2/3
f 78/4/3 66/4/3 77/4/3
f 79/4/3 68/4/3 67/4/3
f 79/2/3 67/2/3 78/2/3
f 80/2/3 69/2/3 68/2/3
f 80/4/3 68/4/3 79/4/3
f 81/4/3 70/4/3 69/4/3
f 81/2/3 69/2/3 80/2/3
f 82/2/3 64/2/3 70/2/3
f 82/4/3 70/4/3 81/4/3
f 83/1/3 74/1/3 73/1/3
f 83/3/3 73/3/3 49/3/3
f 84/3/3 72/3/3 74/3/3
f 84/1/3 74/1/3 83/1/3
f 85/1/3 76/1/3 75/1/3
f 86/1/3 76/1/3 85/1/3
f 87/1/3 76/1/3 86/1/3
f 88/1/3 76/1/3 87/1/3
f 89/1/3 76/1/3 88/1/3
f 90/1/3 76/1/3 89/1/3
f 91/2/3 79/2/3 78/2/3
f 91/2/3 81/2/3 80/2/3
f 91/2/3 80/2/3 79/2/3
f 91/3/3 63/3/3 76/3/3
f 91/2/3 77/2/3 63/2/3
f 91/2/3 78/2/3 77/2/3
f 91/2/3 82/2/3 81/2/3
f 92/2/3 64/2/3 82/2/3
f 92/2/3 82/2/3 91/2/3
f 92/3/3 52/3/3 64/3/3
f 93/4/3 86/4/3 85/4/3
f 93/1/3 85/1/3 75/1/3
f 94/1/3 87/1/3 86/1/3
f 94/4/3 86/4/3 93/4/3
f 95/4/3 88/4/3 87/4/3
f 95/1/3 87/1/3 94/1/3
f 96/1/3 89/1/3 88/1/3
f 96/4/3 88/4/3 95/4/3
f 97/4/3 90/4/3 89/4/3
f 97/1/3 89/1/3 96/1/3
f 98/1/3 76/1/3 90/1/3
f 98/4/3 90/4/3 97/4/3
f 99/1/3 97/1/3 96/1/3
f 99/1/3 96/1/3 95/1/3
f 99/1/3 98/1/3 97/1/3
f 99/3/3 75/3/3 51/3/3
f 99/1/3 95/1/3 94/1/3
f 99/1/3 94/1/3 93/1/3
f 99/1/3 93/1/3 75/1/3
f 100/1/3 76/1/3 98/1/3
f 100/1/3 98/1/3 99/1/3
f 100/3/3 91/3/3 76/3/3
f 100/3/3 92/3/3 91/3/3
f 101/3/3 83/3/3 49/3/3
f 101/3/3 84/3/3 83/3/3
f 102/3/3 58/3/3 72/3/3
f 102/3/3 84/3/3 101/3/3
f 102/4/3 51/4/3 50/4/3
f 102/3/3 50/3/3 58/3/3
f 102/3/3 72/3/3 84/3/3
f 103/3/3 99/3/3 51/3/3
f 103/4/3 51/4/3 102/4/3
f 103/3/3 100/3/3 99/3/3
f 104/3/3 52/3/3 92/3/3
f 104/3/3 100/3/3 103/3/3
f 104/3/3 92/3/3 100/3/3
f 105/3/4 106/3/4 107/3/4
f 107/3/4 106/3/4 108/3/4
f 111/3/5 110/3/5 109/3/5
f 112/3/5 110/3/5 111/3/5
f 113/4/5 112/4/5 111/4/5
f 114/4/5 112/4/5 113/4/5
f 115/3/5 114/3/5 113/3/5
f 116/3/5 114/3/5 115/3/5
f 119/5/5 118/5/5 117/5/5
f 120/5/5 118/5/5 119/5/5
f 123/5/5 122/5/5 121/5/5
f 124/5/5 122/5/5 123/5/5
f 125/5/6 126/5/6 127/5/6
f 127/5/6 126/5/6 128/5/6
f 129/5/6 130/5/6 131/5/6
f 131/5/6 130/5/6 132/5/6
f 133/3/6 134/3/6 135/3/6
f 135/3/6 134/3/6 136/3/6
f 135/4/6 136/4/6 137/4/6
f 137/4/6 136/4/6 138/4/6
f 137/3/6 138/3/6 139/3/6
f 139/3/6 138/3/6 140/3/6
