# MagicaVoxel @ Ephtracy

# group
o 

# material
mtllib nightstand.mtl
usemtl palette

# normals
vn -1 0 0
vn 1 0 0
vn 0 0 1
vn 0 0 -1
vn 0 -1 0
vn 0 1 0

# texcoords
vt 0.537109 0.5
vt 0.541016 0.5
vt 0.955078 0.5
vt 0.958984 0.5
vt 0.990234 0.5
vt 0.994141 0.5

# verts
v -0.8 0 0.8
v -0.8 0 0.7
v -0.8 0 -0.7
v -0.8 0 -0.8
v -0.8 1.5 0.7
v -0.8 1.5 -0.7
v -0.8 3 0.8
v -0.8 3 -0.8
v -0.8 3.1 0.8
v -0.8 3.1 -0.8
v -0.8 4.5 0.8
v -0.8 4.5 -0.8
v -0.6 3.2 0.7
v -0.6 3.2 -0.6
v -0.6 3.5 0.7
v -0.6 3.5 -0.6
v -0.6 3.8 0.7
v -0.6 3.8 -0.6
v -0.6 4.1 0.7
v -0.6 4.1 -0.6
v 0.7 0 0.8
v 0.7 0 0.7
v 0.7 0 -0.7
v 0.7 0 -0.8
v 0.7 1.5 0.8
v 0.7 1.5 0.7
v 0.7 1.5 -0.7
v 0.7 1.5 -0.8
v 0.7 3.2 0.8
v 0.7 3.2 -0.7
v 0.7 4.4 0.8
v 0.7 4.4 -0.7
v -0.7 0 0.8
v -0.7 0 0.7
v -0.7 0 -0.7
v -0.7 0 -0.8
v -0.7 1.5 0.8
v -0.7 1.5 0.7
v -0.7 1.5 -0.7
v -0.7 1.5 -0.8
v -0.7 3.2 0.8
v -0.7 3.2 -0.7
v -0.7 4.4 0.8
v -0.7 4.4 -0.7
v 0.2 3.6 0.7
v 0.2 3.6 -0.6
v 0.2 3.7 0.7
v 0.2 3.7 -0.6
v 0.2 3.9 0.7
v 0.2 3.9 -0.6
v 0.2 4 0.7
v 0.2 4 -0.6
v 0.3 3.5 0.7
v 0.3 3.5 -0.6
v 0.3 3.6 0.7
v 0.3 3.6 -0.6
v 0.3 3.7 0.7
v 0.3 3.7 -0.6
v 0.3 3.8 0.7
v 0.3 3.8 -0.6
v 0.3 3.9 0.7
v 0.3 3.9 -0.6
v 0.3 4 0.7
v 0.3 4 -0.6
v 0.3 4.1 0.7
v 0.3 4.1 -0.6
v 0.5 3.3 0.7
v 0.5 3.3 -0.6
v 0.5 3.4 0.7
v 0.5 3.4 -0.6
v 0.6 3.2 0.7
v 0.6 3.2 -0.6
v 0.6 3.3 0.7
v 0.6 3.3 -0.6
v 0.6 3.4 0.7
v 0.6 3.4 -0.6
v 0.6 3.5 0.7
v 0.6 3.5 -0.6
v 0.8 0 0.8
v 0.8 0 0.7
v 0.8 0 -0.7
v 0.8 0 -0.8
v 0.8 1.5 0.7
v 0.8 1.5 -0.7
v 0.8 3 0.8
v 0.8 3 -0.8
v 0.8 3.1 0.8
v 0.8 3.1 -0.8
v 0.8 4.5 0.8
v 0.8 4.5 -0.8
v -0.8 0 0.8
v -0.8 3 0.8
v -0.8 3.1 0.8
v -0.8 4.5 0.8
v -0.7 0 0.8
v -0.7 1.5 0.8
v -0.7 1.7 0.8
v -0.7 2.2 0.8
v -0.7 2.4 0.8
v -0.7 2.9 0.8
v -0.7 3.2 0.8
v -0.7 4.4 0.8
v -0.1 1.9 0.8
v -0.1 2 0.8
v -0.1 2.6 0.8
v -0.1 2.7 0.8
v 0.1 1.9 0.8
v 0.1 2 0.8
v 0.1 2.6 0.8
v 0.1 2.7 0.8
v 0.7 0 0.8
v 0.7 1.5 0.8
v 0.7 1.7 0.8
v 0.7 2.2 0.8
v 0.7 2.4 0.8
v 0.7 2.9 0.8
v 0.7 3.2 0.8
v 0.7 4.4 0.8
v 0.8 0 0.8
v 0.8 3 0.8
v 0.8 3.1 0.8
v 0.8 4.5 0.8
v -0.6 3.2 0.7
v -0.6 3.5 0.7
v -0.6 3.8 0.7
v -0.6 4.1 0.7
v -0.5 3.3 0.7
v -0.5 3.4 0.7
v -0.5 3.6 0.7
v -0.5 3.7 0.7
v -0.5 3.9 0.7
v -0.5 4 0.7
v 0.2 3.6 0.7
v 0.2 3.7 0.7
v 0.2 3.9 0.7
v 0.2 4 0.7
v 0.3 3.5 0.7
v 0.3 3.6 0.7
v 0.3 3.7 0.7
v 0.3 3.8 0.7
v 0.3 3.9 0.7
v 0.3 4 0.7
v 0.3 4.1 0.7
v 0.5 3.3 0.7
v 0.5 3.4 0.7
v 0.6 3.2 0.7
v 0.6 3.3 0.7
v 0.6 3.4 0.7
v 0.6 3.5 0.7
v -0.8 0 -0.7
v -0.8 1.5 -0.7
v -0.7 0 -0.7
v -0.7 1.5 -0.7
v -0.7 3.2 -0.7
v -0.7 4.4 -0.7
v 0.7 0 -0.7
v 0.7 1.5 -0.7
v 0.7 3.2 -0.7
v 0.7 4.4 -0.7
v 0.8 0 -0.7
v 0.8 1.5 -0.7
v -0.8 0 0.7
v -0.8 1.5 0.7
v -0.7 0 0.7
v -0.7 1.5 0.7
v 0.7 0 0.7
v 0.7 1.5 0.7
v 0.8 0 0.7
v 0.8 1.5 0.7
v -0.6 3.2 -0.6
v -0.6 3.5 -0.6
v -0.6 3.8 -0.6
v -0.6 4.1 -0.6
v -0.5 3.3 -0.6
v -0.5 3.4 -0.6
v -0.5 3.6 -0.6
v -0.5 3.7 -0.6
v -0.5 3.9 -0.6
v -0.5 4 -0.6
v 0.2 3.6 -0.6
v 0.2 3.7 -0.6
v 0.2 3.9 -0.6
v 0.2 4 -0.6
v 0.3 3.5 -0.6
v 0.3 3.6 -0.6
v 0.3 3.7 -0.6
v 0.3 3.8 -0.6
v 0.3 3.9 -0.6
v 0.3 4 -0.6
v 0.3 4.1 -0.6
v 0.5 3.3 -0.6
v 0.5 3.4 -0.6
v 0.6 3.2 -0.6
v 0.6 3.3 -0.6
v 0.6 3.4 -0.6
v 0.6 3.5 -0.6
v -0.8 0 -0.8
v -0.8 3 -0.8
v -0.8 3.1 -0.8
v -0.8 4.5 -0.8
v -0.7 0 -0.8
v -0.7 1.5 -0.8
v 0.7 0 -0.8
v 0.7 1.5 -0.8
v 0.8 0 -0.8
v 0.8 3 -0.8
v 0.8 3.1 -0.8
v 0.8 4.5 -0.8
v -0.8 0 0.8
v -0.7 0 0.8
v 0.7 0 0.8
v 0.8 0 0.8
v -0.8 0 0.7
v -0.7 0 0.7
v 0.7 0 0.7
v 0.8 0 0.7
v -0.8 0 -0.7
v -0.7 0 -0.7
v 0.7 0 -0.7
v 0.8 0 -0.7
v -0.8 0 -0.8
v -0.7 0 -0.8
v 0.7 0 -0.8
v 0.8 0 -0.8
v -0.7 1.5 0.8
v 0.7 1.5 0.8
v -0.8 1.5 0.7
v -0.7 1.5 0.7
v 0.7 1.5 0.7
v 0.8 1.5 0.7
v -0.8 1.5 -0.7
v -0.7 1.5 -0.7
v 0.7 1.5 -0.7
v 0.8 1.5 -0.7
v -0.7 1.5 -0.8
v 0.7 1.5 -0.8
v 0.5 3.4 0.7
v 0.6 3.4 0.7
v 0.5 3.4 -0.6
v 0.6 3.4 -0.6
v 0.2 3.7 0.7
v 0.3 3.7 0.7
v 0.2 3.7 -0.6
v 0.3 3.7 -0.6
v 0.2 4 0.7
v 0.3 4 0.7
v 0.2 4 -0.6
v 0.3 4 -0.6
v -0.7 4.4 0.8
v 0.7 4.4 0.8
v -0.7 4.4 -0.7
v 0.7 4.4 -0.7
v -0.7 3.2 0.8
v 0.7 3.2 0.8
v -0.6 3.2 0.7
v 0.6 3.2 0.7
v -0.6 3.2 -0.6
v 0.6 3.2 -0.6
v -0.7 3.2 -0.7
v 0.7 3.2 -0.7
v 0.5 3.3 0.7
v 0.6 3.3 0.7
v 0.5 3.3 -0.6
v 0.6 3.3 -0.6
v 0.3 3.5 0.7
v 0.6 3.5 0.7
v 0.3 3.5 -0.6
v 0.6 3.5 -0.6
v 0.2 3.6 0.7
v 0.3 3.6 0.7
v 0.2 3.6 -0.6
v 0.3 3.6 -0.6
v 0.2 3.9 0.7
v 0.3 3.9 0.7
v 0.2 3.9 -0.6
v 0.3 3.9 -0.6
v -0.6 4.1 0.7
v 0.3 4.1 0.7
v -0.6 4.1 -0.6
v 0.3 4.1 -0.6
v -0.8 4.5 0.8
v 0.8 4.5 0.8
v -0.8 4.5 -0.8
v 0.8 4.5 -0.8

# faces
f 5/2/1 2/2/1 1/2/1
f 6/2/1 4/2/1 3/2/1
f 7/2/1 5/2/1 1/2/1
f 7/2/1 6/2/1 5/2/1
f 8/2/1 4/2/1 6/2/1
f 8/2/1 6/2/1 7/2/1
f 9/1/1 8/1/1 7/1/1
f 10/1/1 8/1/1 9/1/1
f 11/2/1 10/2/1 9/2/1
f 12/2/1 10/2/1 11/2/1
f 15/3/1 14/3/1 13/3/1
f 16/3/1 14/3/1 15/3/1
f 17/6/1 16/6/1 15/6/1
f 18/6/1 16/6/1 17/6/1
f 19/5/1 18/5/1 17/5/1
f 20/5/1 18/5/1 19/5/1
f 25/2/1 22/2/1 21/2/1
f 26/2/1 22/2/1 25/2/1
f 27/2/1 24/2/1 23/2/1
f 28/2/1 24/2/1 27/2/1
f 31/2/1 30/2/1 29/2/1
f 32/2/1 30/2/1 31/2/1
f 33/2/2 34/2/2 37/2/2
f 37/2/2 34/2/2 38/2/2
f 35/2/2 36/2/2 39/2/2
f 39/2/2 36/2/2 40/2/2
f 41/2/2 42/2/2 43/2/2
f 43/2/2 42/2/2 44/2/2
f 45/4/2 46/4/2 47/4/2
f 47/4/2 46/4/2 48/4/2
f 49/4/2 50/4/2 51/4/2
f 51/4/2 50/4/2 52/4/2
f 53/6/2 54/6/2 55/6/2
f 55/6/2 54/6/2 56/6/2
f 57/6/2 58/6/2 59/6/2
f 59/6/2 58/6/2 60/6/2
f 59/5/2 60/5/2 61/5/2
f 61/5/2 60/5/2 62/5/2
f 63/5/2 64/5/2 65/5/2
f 65/5/2 64/5/2 66/5/2
f 67/4/2 68/4/2 69/4/2
f 69/4/2 68/4/2 70/4/2
f 71/3/2 72/3/2 73/3/2
f 73/3/2 72/3/2 74/3/2
f 75/3/2 76/3/2 77/3/2
f 77/3/2 76/3/2 78/3/2
f 79/2/2 80/2/2 83/2/2
f 81/2/2 82/2/2 84/2/2
f 79/2/2 83/2/2 85/2/2
f 83/2/2 84/2/2 85/2/2
f 84/2/2 82/2/2 86/2/2
f 85/2/2 84/2/2 86/2/2
f 85/1/2 86/1/2 87/1/2
f 87/1/2 86/1/2 88/1/2
f 87/2/2 88/2/2 89/2/2
f 89/2/2 88/2/2 90/2/2
f 95/2/3 92/2/3 91/2/3
f 96/2/3 92/2/3 95/2/3
f 97/2/3 92/2/3 96/2/3
f 98/2/3 92/2/3 97/2/3
f 99/2/3 92/2/3 98/2/3
f 100/2/3 92/2/3 99/2/3
f 101/2/3 94/2/3 93/2/3
f 102/2/3 94/2/3 101/2/3
f 103/1/3 98/1/3 97/1/3
f 104/1/3 98/1/3 103/1/3
f 105/1/3 100/1/3 99/1/3
f 106/1/3 100/1/3 105/1/3
f 107/1/3 103/1/3 97/1/3
f 107/6/3 104/6/3 103/6/3
f 108/1/3 98/1/3 104/1/3
f 108/6/3 104/6/3 107/6/3
f 109/6/3 106/6/3 105/6/3
f 109/1/3 105/1/3 99/1/3
f 110/1/3 100/1/3 106/1/3
f 110/6/3 106/6/3 109/6/3
f 112/2/3 97/2/3 96/2/3
f 113/1/3 107/1/3 97/1/3
f 113/1/3 108/1/3 107/1/3
f 113/2/3 97/2/3 112/2/3
f 114/2/3 99/2/3 98/2/3
f 114/1/3 108/1/3 113/1/3
f 114/1/3 98/1/3 108/1/3
f 115/1/3 109/1/3 99/1/3
f 115/2/3 99/2/3 114/2/3
f 115/1/3 110/1/3 109/1/3
f 116/2/3 92/2/3 100/2/3
f 116/1/3 110/1/3 115/1/3
f 116/1/3 100/1/3 110/1/3
f 117/2/3 101/2/3 93/2/3
f 118/2/3 94/2/3 102/2/3
f 119/2/3 115/2/3 114/2/3
f 119/2/3 113/2/3 112/2/3
f 119/2/3 112/2/3 111/2/3
f 119/2/3 114/2/3 113/2/3
f 119/2/3 116/2/3 115/2/3
f 120/1/3 93/1/3 92/1/3
f 120/2/3 116/2/3 119/2/3
f 120/2/3 92/2/3 116/2/3
f 121/2/3 118/2/3 117/2/3
f 121/1/3 93/1/3 120/1/3
f 121/2/3 117/2/3 93/2/3
f 122/2/3 94/2/3 118/2/3
f 122/2/3 118/2/3 121/2/3
f 127/3/3 124/3/3 123/3/3
f 128/3/3 124/3/3 127/3/3
f 129/6/3 125/6/3 124/6/3
f 130/6/3 125/6/3 129/6/3
f 131/5/3 126/5/3 125/5/3
f 132/5/3 126/5/3 131/5/3
f 133/6/3 129/6/3 124/6/3
f 133/4/3 130/4/3 129/4/3
f 134/6/3 125/6/3 130/6/3
f 134/4/3 130/4/3 133/4/3
f 135/4/3 132/4/3 131/4/3
f 135/5/3 131/5/3 125/5/3
f 136/5/3 126/5/3 132/5/3
f 136/4/3 132/4/3 135/4/3
f 137/6/3 133/6/3 124/6/3
f 137/3/3 124/3/3 128/3/3
f 138/6/3 133/6/3 137/6/3
f 139/6/3 125/6/3 134/6/3
f 140/5/3 135/5/3 125/5/3
f 140/6/3 125/6/3 139/6/3
f 141/5/3 135/5/3 140/5/3
f 142/5/3 126/5/3 136/5/3
f 143/5/3 126/5/3 142/5/3
f 144/3/3 127/3/3 123/3/3
f 144/4/3 128/4/3 127/4/3
f 145/3/3 137/3/3 128/3/3
f 145/4/3 128/4/3 144/4/3
f 146/3/3 144/3/3 123/3/3
f 147/3/3 144/3/3 146/3/3
f 148/3/3 137/3/3 145/3/3
f 149/3/3 137/3/3 148/3/3
f 152/2/3 151/2/3 150/2/3
f 153/2/3 151/2/3 152/2/3
f 158/2/3 155/2/3 154/2/3
f 159/2/3 155/2/3 158/2/3
f 160/2/3 157/2/3 156/2/3
f 161/2/3 157/2/3 160/2/3
f 162/2/4 163/2/4 164/2/4
f 164/2/4 163/2/4 165/2/4
f 166/2/4 167/2/4 168/2/4
f 168/2/4 167/2/4 169/2/4
f 170/3/4 171/3/4 174/3/4
f 174/3/4 171/3/4 175/3/4
f 171/6/4 172/6/4 176/6/4
f 176/6/4 172/6/4 177/6/4
f 172/5/4 173/5/4 178/5/4
f 178/5/4 173/5/4 179/5/4
f 171/6/4 176/6/4 180/6/4
f 176/4/4 177/4/4 180/4/4
f 177/6/4 172/6/4 181/6/4
f 180/4/4 177/4/4 181/4/4
f 178/4/4 179/4/4 182/4/4
f 172/5/4 178/5/4 182/5/4
f 179/5/4 173/5/4 183/5/4
f 182/4/4 179/4/4 183/4/4
f 171/6/4 180/6/4 184/6/4
f 175/3/4 171/3/4 184/3/4
f 184/6/4 180/6/4 185/6/4
f 181/6/4 172/6/4 186/6/4
f 172/5/4 182/5/4 187/5/4
f 186/6/4 172/6/4 187/6/4
f 187/5/4 182/5/4 188/5/4
f 183/5/4 173/5/4 189/5/4
f 189/5/4 173/5/4 190/5/4
f 170/3/4 174/3/4 191/3/4
f 174/4/4 175/4/4 191/4/4
f 175/3/4 184/3/4 192/3/4
f 191/4/4 175/4/4 192/4/4
f 170/3/4 191/3/4 193/3/4
f 193/3/4 191/3/4 194/3/4
f 192/3/4 184/3/4 195/3/4
f 195/3/4 184/3/4 196/3/4
f 197/2/4 198/2/4 201/2/4
f 201/2/4 198/2/4 202/2/4
f 202/2/4 198/2/4 204/2/4
f 203/2/4 204/2/4 205/2/4
f 198/1/4 199/1/4 206/1/4
f 205/2/4 204/2/4 206/2/4
f 204/2/4 198/2/4 206/2/4
f 199/2/4 200/2/4 207/2/4
f 206/1/4 199/1/4 207/1/4
f 207/2/4 200/2/4 208/2/4
f 213/2/5 210/2/5 209/2/5
f 214/2/5 210/2/5 213/2/5
f 215/2/5 212/2/5 211/2/5
f 216/2/5 212/2/5 215/2/5
f 221/2/5 218/2/5 217/2/5
f 222/2/5 218/2/5 221/2/5
f 223/2/5 220/2/5 219/2/5
f 224/2/5 220/2/5 223/2/5
f 228/2/5 226/2/5 225/2/5
f 229/2/5 226/2/5 228/2/5
f 231/2/5 228/2/5 227/2/5
f 231/2/5 230/2/5 229/2/5
f 231/2/5 229/2/5 228/2/5
f 232/2/5 230/2/5 231/2/5
f 233/2/5 230/2/5 232/2/5
f 234/2/5 230/2/5 233/2/5
f 235/2/5 233/2/5 232/2/5
f 236/2/5 233/2/5 235/2/5
f 239/3/5 238/3/5 237/3/5
f 240/3/5 238/3/5 239/3/5
f 243/6/5 242/6/5 241/6/5
f 244/6/5 242/6/5 243/6/5
f 247/5/5 246/5/5 245/5/5
f 248/5/5 246/5/5 247/5/5
f 251/2/5 250/2/5 249/2/5
f 252/2/5 250/2/5 251/2/5
f 253/2/6 254/2/6 255/2/6
f 255/2/6 254/2/6 256/2/6
f 253/2/6 255/2/6 257/2/6
f 256/2/6 254/2/6 258/2/6
f 253/2/6 257/2/6 259/2/6
f 257/2/6 258/2/6 259/2/6
f 258/2/6 254/2/6 260/2/6
f 259/2/6 258/2/6 260/2/6
f 261/3/6 262/3/6 263/3/6
f 263/3/6 262/3/6 264/3/6
f 265/3/6 266/3/6 267/3/6
f 267/3/6 266/3/6 268/3/6
f 269/6/6 270/6/6 271/6/6
f 271/6/6 270/6/6 272/6/6
f 273/5/6 274/5/6 275/5/6
f 275/5/6 274/5/6 276/5/6
f 277/5/6 278/5/6 279/5/6
f 279/5/6 278/5/6 280/5/6
f 281/2/6 282/2/6 283/2/6
f 283/2/6 282/2/6 284/2/6
