# MagicaVoxel @ Ephtracy

# group
o 

# material
mtllib nightstand50.mtl
usemtl palette

# normals
vn -1 0 0
vn 1 0 0
vn 0 0 1
vn 0 0 -1
vn 0 -1 0
vn 0 1 0

# texcoords
vt 0.978516 0.5
vt 0.986328 0.5

# verts
v -1 -1.2 1
v -1 -1.2 -1.1
v -1 -0.1 1
v -1 -0.1 0.9
v -1 0 1
v -1 0 0.9
v -1 0.5 1
v -1 0.5 0.9
v -1 0.6 1
v -1 0.6 0.9
v -1 1.1 1
v -1 1.1 0.9
v -1 1.2 1
v -1 1.2 0.9
v -1 1.3 1
v -1 1.3 -1.1
v 1.1 -1.2 1
v 1.1 -1.2 -1.1
v 1.1 -0.1 1
v 1.1 -0.1 0.9
v 1.1 0 1
v 1.1 0 0.9
v 1.1 0.5 1
v 1.1 0.5 0.9
v 1.1 0.6 1
v 1.1 0.6 0.9
v 1.1 1.1 1
v 1.1 1.1 0.9
v 1.1 1.2 1
v 1.1 1.2 0.9
v 1.1 1.3 1
v 1.1 1.3 -1.1
v -1 -1.2 1
v -1 -0.1 1
v -1 0 1
v -1 0.5 1
v -1 0.6 1
v -1 1.1 1
v -1 1.2 1
v -1 1.3 1
v -0.2 -0.4 1
v -0.2 -0.3 1
v -0.2 0.2 1
v -0.2 0.3 1
v -0.2 0.8 1
v -0.2 0.9 1
v 0.3 -0.4 1
v 0.3 -0.3 1
v 0.3 0.2 1
v 0.3 0.3 1
v 0.3 0.8 1
v 0.3 0.9 1
v 1.1 -1.2 1
v 1.1 -0.1 1
v 1.1 0 1
v 1.1 0.5 1
v 1.1 0.6 1
v 1.1 1.1 1
v 1.1 1.2 1
v 1.1 1.3 1
v -1 -1.2 -1.1
v -1 1.3 -1.1
v 1.1 -1.2 -1.1
v 1.1 1.3 -1.1
v -1 -1.2 1
v 1.1 -1.2 1
v -1 -1.2 -1.1
v 1.1 -1.2 -1.1
v -1 1.3 1
v 1.1 1.3 1
v -1 1.3 -1.1
v 1.1 1.3 -1.1

# faces
f 3/2/1 2/2/1 1/2/1
f 4/2/1 2/2/1 3/2/1
f 5/1/1 4/1/1 3/1/1
f 6/2/1 2/2/1 4/2/1
f 6/1/1 4/1/1 5/1/1
f 7/2/1 6/2/1 5/2/1
f 8/2/1 2/2/1 6/2/1
f 8/2/1 6/2/1 7/2/1
f 9/1/1 8/1/1 7/1/1
f 10/2/1 2/2/1 8/2/1
f 10/1/1 8/1/1 9/1/1
f 11/2/1 10/2/1 9/2/1
f 12/2/1 2/2/1 10/2/1
f 12/2/1 10/2/1 11/2/1
f 13/1/1 12/1/1 11/1/1
f 14/2/1 2/2/1 12/2/1
f 14/1/1 12/1/1 13/1/1
f 15/2/1 14/2/1 13/2/1
f 16/2/1 2/2/1 14/2/1
f 16/2/1 14/2/1 15/2/1
f 17/2/2 18/2/2 19/2/2
f 19/2/2 18/2/2 20/2/2
f 19/1/2 20/1/2 21/1/2
f 20/2/2 18/2/2 22/2/2
f 21/1/2 20/1/2 22/1/2
f 21/2/2 22/2/2 23/2/2
f 22/2/2 18/2/2 24/2/2
f 23/2/2 22/2/2 24/2/2
f 23/1/2 24/1/2 25/1/2
f 24/2/2 18/2/2 26/2/2
f 25/1/2 24/1/2 26/1/2
f 25/2/2 26/2/2 27/2/2
f 26/2/2 18/2/2 28/2/2
f 27/2/2 26/2/2 28/2/2
f 27/1/2 28/1/2 29/1/2
f 28/2/2 18/2/2 30/2/2
f 29/1/2 28/1/2 30/1/2
f 29/2/2 30/2/2 31/2/2
f 30/2/2 18/2/2 32/2/2
f 31/2/2 30/2/2 32/2/2
f 41/2/3 34/2/3 33/2/3
f 42/2/3 34/2/3 41/2/3
f 43/2/3 36/2/3 35/2/3
f 44/2/3 36/2/3 43/2/3
f 45/2/3 38/2/3 37/2/3
f 46/2/3 38/2/3 45/2/3
f 47/2/3 41/2/3 33/2/3
f 47/1/3 42/1/3 41/1/3
f 48/2/3 34/2/3 42/2/3
f 48/1/3 42/1/3 47/1/3
f 49/2/3 43/2/3 35/2/3
f 49/1/3 44/1/3 43/1/3
f 50/2/3 36/2/3 44/2/3
f 50/1/3 44/1/3 49/1/3
f 51/1/3 46/1/3 45/1/3
f 51/2/3 45/2/3 37/2/3
f 52/2/3 38/2/3 46/2/3
f 52/1/3 46/1/3 51/1/3
f 53/2/3 47/2/3 33/2/3
f 53/2/3 48/2/3 47/2/3
f 54/1/3 35/1/3 34/1/3
f 54/2/3 48/2/3 53/2/3
f 54/2/3 34/2/3 48/2/3
f 55/2/3 49/2/3 35/2/3
f 55/1/3 35/1/3 54/1/3
f 55/2/3 50/2/3 49/2/3
f 56/1/3 37/1/3 36/1/3
f 56/2/3 50/2/3 55/2/3
f 56/2/3 36/2/3 50/2/3
f 57/2/3 51/2/3 37/2/3
f 57/1/3 37/1/3 56/1/3
f 57/2/3 52/2/3 51/2/3
f 58/2/3 38/2/3 52/2/3
f 58/2/3 52/2/3 57/2/3
f 58/1/3 39/1/3 38/1/3
f 59/2/3 40/2/3 39/2/3
f 59/1/3 39/1/3 58/1/3
f 60/2/3 40/2/3 59/2/3
f 61/2/4 62/2/4 63/2/4
f 63/2/4 62/2/4 64/2/4
f 67/2/5 66/2/5 65/2/5
f 68/2/5 66/2/5 67/2/5
f 69/2/6 70/2/6 71/2/6
f 71/2/6 70/2/6 72/2/6
