# MagicaVoxel @ Ephtracy

# group
o 

# material
mtllib test_room.mtl
usemtl palette

# normals
vn -1 0 0
vn 1 0 0
vn 0 0 1
vn 0 0 -1
vn 0 -1 0
vn 0 1 0

# texcoords
vt 0.533203 0.5
vt 0.537109 0.5
vt 0.556641 0.5
vt 0.560547 0.5

# verts
v -12.8 0 12.8
v -12.8 0 -12.3
v -12.8 0 -12.8
v -12.8 1 12.8
v -12.8 1 -12.3
v -12.8 16 -12.3
v -12.8 16 -12.8
v 0.799999 1 -12.3
v 0.799999 1 -12.8
v 0.799999 9.2 -12.3
v 0.799999 9.2 -12.8
v 12.3 1 12.8
v 12.3 1 -12.3
v 12.3 16 12.8
v 12.3 16 -12.3
v -4 1 -12.3
v -4 1 -12.8
v -4 9.2 -12.3
v -4 9.2 -12.8
v 12.8 0 12.8
v 12.8 0 -12.8
v 12.8 16 12.8
v 12.8 16 -12.8
v -12.8 0 12.8
v -12.8 1 12.8
v 12.3 0 12.8
v 12.3 1 12.8
v 12.3 16 12.8
v 12.8 0 12.8
v 12.8 16 12.8
v -12.8 1 -12.3
v -12.8 16 -12.3
v -4 1 -12.3
v -4 9.2 -12.3
v 0.799999 1 -12.3
v 0.799999 9.2 -12.3
v 12.3 1 -12.3
v 12.3 16 -12.3
v -12.8 0 -12.8
v -12.8 16 -12.8
v -4 0 -12.8
v -4 0.9 -12.8
v -4 1 -12.8
v -4 9.2 -12.8
v 0.799999 0 -12.8
v 0.799999 0.9 -12.8
v 0.799999 1 -12.8
v 0.799999 9.2 -12.8
v 12.8 0 -12.8
v 12.8 16 -12.8
v -12.8 0 12.8
v 12.3 0 12.8
v 12.8 0 12.8
v 12.3 0 12.7
v 12.7 0 12.7
v -12.8 0 -12.3
v -12.7 0 -12.3
v -12.7 0 -12.7
v -4 0 -12.7
v 0.799999 0 -12.7
v 12.7 0 -12.7
v -12.8 0 -12.8
v -4 0 -12.8
v 0.799999 0 -12.8
v 12.8 0 -12.8
v -4 9.2 -12.3
v 0.799999 9.2 -12.3
v -4 9.2 -12.8
v 0.799999 9.2 -12.8
v -12.8 1 12.8
v 12.3 1 12.8
v -2.4 1 2.6
v -2.3 1 2.6
v -2.4 1 2.5
v -2.3 1 2.5
v -12.8 1 -12.3
v -4 1 -12.3
v 0.799999 1 -12.3
v 12.3 1 -12.3
v -4 1 -12.8
v 0.799999 1 -12.8
v 12.3 16 12.8
v 12.8 16 12.8
v -12.8 16 -12.3
v 12.3 16 -12.3
v -12.8 16 -12.8
v 12.8 16 -12.8

# faces
f 4/4/1 2/4/1 1/4/1
f 5/2/1 3/2/1 2/2/1
f 5/4/1 2/4/1 4/4/1
f 6/2/1 3/2/1 5/2/1
f 7/2/1 3/2/1 6/2/1
f 10/2/1 9/2/1 8/2/1
f 11/2/1 9/2/1 10/2/1
f 14/2/1 13/2/1 12/2/1
f 15/2/1 13/2/1 14/2/1
f 16/2/2 17/2/2 18/2/2
f 18/2/2 17/2/2 19/2/2
f 20/2/2 21/2/2 22/2/2
f 22/2/2 21/2/2 23/2/2
f 26/4/3 25/4/3 24/4/3
f 27/4/3 25/4/3 26/4/3
f 29/2/3 27/2/3 26/2/3
f 29/2/3 28/2/3 27/2/3
f 30/2/3 28/2/3 29/2/3
f 33/2/3 32/2/3 31/2/3
f 34/2/3 32/2/3 33/2/3
f 36/2/3 32/2/3 34/2/3
f 37/2/3 36/2/3 35/2/3
f 38/2/3 32/2/3 36/2/3
f 38/2/3 36/2/3 37/2/3
f 39/2/4 40/2/4 41/2/4
f 41/2/4 40/2/4 42/2/4
f 42/2/4 40/2/4 43/2/4
f 43/2/4 40/2/4 44/2/4
f 41/4/4 42/4/4 45/4/4
f 42/1/4 43/1/4 46/1/4
f 45/4/4 42/4/4 46/4/4
f 46/1/4 43/1/4 47/1/4
f 44/2/4 40/2/4 48/2/4
f 46/2/4 47/2/4 49/2/4
f 47/2/4 48/2/4 49/2/4
f 45/2/4 46/2/4 49/2/4
f 48/2/4 40/2/4 50/2/4
f 49/2/4 48/2/4 50/2/4
f 54/4/5 52/4/5 51/4/5
f 54/2/5 53/2/5 52/2/5
f 55/2/5 53/2/5 54/2/5
f 56/4/5 54/4/5 51/4/5
f 56/4/5 55/4/5 54/4/5
f 57/4/5 55/4/5 56/4/5
f 58/2/5 57/2/5 56/2/5
f 58/4/5 55/4/5 57/4/5
f 59/4/5 55/4/5 58/4/5
f 60/4/5 55/4/5 59/4/5
f 61/2/5 53/2/5 55/2/5
f 61/4/5 55/4/5 60/4/5
f 62/2/5 58/2/5 56/2/5
f 62/2/5 59/2/5 58/2/5
f 63/4/5 60/4/5 59/4/5
f 63/2/5 59/2/5 62/2/5
f 64/2/5 61/2/5 60/2/5
f 64/4/5 60/4/5 63/4/5
f 65/2/5 53/2/5 61/2/5
f 65/2/5 61/2/5 64/2/5
f 68/2/5 67/2/5 66/2/5
f 69/2/5 67/2/5 68/2/5
f 70/4/6 71/4/6 72/4/6
f 72/4/6 71/4/6 73/4/6
f 70/4/6 72/4/6 74/4/6
f 72/3/6 73/3/6 74/3/6
f 73/4/6 71/4/6 75/4/6
f 74/3/6 73/3/6 75/3/6
f 70/4/6 74/4/6 76/4/6
f 74/4/6 75/4/6 76/4/6
f 76/4/6 75/4/6 77/4/6
f 75/4/6 71/4/6 78/4/6
f 77/4/6 75/4/6 78/4/6
f 78/4/6 71/4/6 79/4/6
f 77/1/6 78/1/6 80/1/6
f 80/1/6 78/1/6 81/1/6
f 82/2/6 83/2/6 85/2/6
f 84/2/6 85/2/6 86/2/6
f 85/2/6 83/2/6 87/2/6
f 86/2/6 85/2/6 87/2/6
