# MagicaVoxel @ Ephtracy

# group
o 

# material
mtllib test_table.mtl
usemtl palette

# normals
vn -1 0 0
vn 1 0 0
vn 0 0 1
vn 0 0 -1
vn 0 -1 0
vn 0 1 0

# texcoords
vt 0.533203 0.5
vt 0.537109 0.5
vt 0.908203 0.5

# verts
v -1.8 0 1.3
v -1.8 0 1.1
v -1.8 0 -1.2
v -1.8 0 -1.4
v -1.8 1.8 1.1
v -1.8 1.8 -1.2
v -1.8 2.1 1.3
v -1.8 2.1 -1.4
v 1 2.5 -0.8
v 1 2.5 -0.9
v 1 2.6 -0.8
v 1 2.6 -0.9
v 1.1 2.1 -0.7
v 1.1 2.1 -1
v 1.1 2.3 -0.7
v 1.1 2.3 -1
v 1.2 2.3 -0.8
v 1.2 2.3 -0.9
v 1.2 2.5 -0.8
v 1.2 2.5 -0.9
v 1.2 2.6 -0.8
v 1.2 2.6 -0.9
v 1.2 2.9 -0.8
v 1.2 2.9 -0.9
v 1.4 2.5 -0.8
v 1.4 2.5 -0.9
v 1.4 2.6 -0.8
v 1.4 2.6 -0.9
v 1.6 0 1.3
v 1.6 0 1.1
v 1.6 0 -1.2
v 1.6 0 -1.4
v 1.6 1.8 1.3
v 1.6 1.8 1.1
v 1.6 1.8 -1.2
v 1.6 1.8 -1.4
v -1.6 0 1.3
v -1.6 0 1.1
v -1.6 0 -1.2
v -1.6 0 -1.4
v -1.6 1.8 1.3
v -1.6 1.8 1.1
v -1.6 1.8 -1.2
v -1.6 1.8 -1.4
v 1.3 2.3 -0.8
v 1.3 2.3 -0.9
v 1.3 2.4 -0.8
v 1.3 2.4 -0.9
v 1.3 2.5 -0.8
v 1.3 2.5 -0.9
v 1.3 2.9 -0.8
v 1.3 2.9 -0.9
v 1.4 2.1 -0.7
v 1.4 2.1 -1
v 1.4 2.3 -0.7
v 1.4 2.3 -1
v 1.5 2.4 -0.8
v 1.5 2.4 -0.9
v 1.5 2.6 -0.8
v 1.5 2.6 -0.9
v 1.8 0 1.3
v 1.8 0 1.1
v 1.8 0 -1.2
v 1.8 0 -1.4
v 1.8 1.8 1.1
v 1.8 1.8 -1.2
v 1.8 2.1 1.3
v 1.8 2.1 -1.4
v -1.8 0 1.3
v -1.8 2.1 1.3
v -1.6 0 1.3
v -1.6 1.8 1.3
v 1.6 0 1.3
v 1.6 1.8 1.3
v 1.8 0 1.3
v 1.8 2.1 1.3
v 1.1 2.1 -0.7
v 1.1 2.3 -0.7
v 1.4 2.1 -0.7
v 1.4 2.3 -0.7
v 1 2.5 -0.8
v 1 2.6 -0.8
v 1.2 2.3 -0.8
v 1.2 2.5 -0.8
v 1.2 2.6 -0.8
v 1.2 2.9 -0.8
v 1.3 2.3 -0.8
v 1.3 2.4 -0.8
v 1.3 2.5 -0.8
v 1.3 2.9 -0.8
v 1.4 2.5 -0.8
v 1.4 2.6 -0.8
v 1.5 2.4 -0.8
v 1.5 2.6 -0.8
v -1.8 0 -1.2
v -1.8 1.8 -1.2
v -1.6 0 -1.2
v -1.6 1.8 -1.2
v 1.6 0 -1.2
v 1.6 1.8 -1.2
v 1.8 0 -1.2
v 1.8 1.8 -1.2
v -1.8 0 1.1
v -1.8 1.8 1.1
v -1.6 0 1.1
v -1.6 1.8 1.1
v 1.6 0 1.1
v 1.6 1.8 1.1
v 1.8 0 1.1
v 1.8 1.8 1.1
v 1 2.5 -0.9
v 1 2.6 -0.9
v 1.2 2.3 -0.9
v 1.2 2.5 -0.9
v 1.2 2.6 -0.9
v 1.2 2.9 -0.9
v 1.3 2.3 -0.9
v 1.3 2.4 -0.9
v 1.3 2.5 -0.9
v 1.3 2.9 -0.9
v 1.4 2.5 -0.9
v 1.4 2.6 -0.9
v 1.5 2.4 -0.9
v 1.5 2.6 -0.9
v 1.1 2.1 -1
v 1.1 2.3 -1
v 1.4 2.1 -1
v 1.4 2.3 -1
v -1.8 0 -1.4
v -1.8 2.1 -1.4
v -1.6 0 -1.4
v -1.6 1.8 -1.4
v 1.6 0 -1.4
v 1.6 1.8 -1.4
v 1.8 0 -1.4
v 1.8 2.1 -1.4
v -1.8 0 1.3
v -1.6 0 1.3
v 1.6 0 1.3
v 1.8 0 1.3
v -1.8 0 1.1
v -1.6 0 1.1
v 1.6 0 1.1
v 1.8 0 1.1
v -1.8 0 -1.2
v -1.6 0 -1.2
v 1.6 0 -1.2
v 1.8 0 -1.2
v -1.8 0 -1.4
v -1.6 0 -1.4
v 1.6 0 -1.4
v 1.8 0 -1.4
v -1.6 1.8 1.3
v 1.6 1.8 1.3
v -1.8 1.8 1.1
v -1.6 1.8 1.1
v 1.6 1.8 1.1
v 1.8 1.8 1.1
v -1.8 1.8 -1.2
v -1.6 1.8 -1.2
v 1.6 1.8 -1.2
v 1.8 1.8 -1.2
v -1.6 1.8 -1.4
v 1.6 1.8 -1.4
v 1.3 2.4 -0.8
v 1.5 2.4 -0.8
v 1.3 2.4 -0.9
v 1.5 2.4 -0.9
v 1 2.5 -0.8
v 1.2 2.5 -0.8
v 1 2.5 -0.9
v 1.2 2.5 -0.9
v -1.8 2.1 1.3
v 1.8 2.1 1.3
v 1.1 2.1 -0.7
v 1.4 2.1 -0.7
v 1.1 2.1 -1
v 1.4 2.1 -1
v -1.8 2.1 -1.4
v 1.8 2.1 -1.4
v 1.1 2.3 -0.7
v 1.4 2.3 -0.7
v 1.2 2.3 -0.8
v 1.3 2.3 -0.8
v 1.2 2.3 -0.9
v 1.3 2.3 -0.9
v 1.1 2.3 -1
v 1.4 2.3 -1
v 1.3 2.5 -0.8
v 1.4 2.5 -0.8
v 1.3 2.5 -0.9
v 1.4 2.5 -0.9
v 1 2.6 -0.8
v 1.2 2.6 -0.8
v 1.4 2.6 -0.8
v 1.5 2.6 -0.8
v 1 2.6 -0.9
v 1.2 2.6 -0.9
v 1.4 2.6 -0.9
v 1.5 2.6 -0.9
v 1.2 2.9 -0.8
v 1.3 2.9 -0.8
v 1.2 2.9 -0.9
v 1.3 2.9 -0.9

# faces
f 5/2/1 2/2/1 1/2/1
f 6/2/1 4/2/1 3/2/1
f 7/2/1 5/2/1 1/2/1
f 7/2/1 6/2/1 5/2/1
f 8/2/1 4/2/1 6/2/1
f 8/2/1 6/2/1 7/2/1
f 11/3/1 10/3/1 9/3/1
f 12/3/1 10/3/1 11/3/1
f 15/1/1 14/1/1 13/1/1
f 16/1/1 14/1/1 15/1/1
f 19/3/1 18/3/1 17/3/1
f 20/3/1 18/3/1 19/3/1
f 23/3/1 22/3/1 21/3/1
f 24/3/1 22/3/1 23/3/1
f 27/3/1 26/3/1 25/3/1
f 28/3/1 26/3/1 27/3/1
f 33/2/1 30/2/1 29/2/1
f 34/2/1 30/2/1 33/2/1
f 35/2/1 32/2/1 31/2/1
f 36/2/1 32/2/1 35/2/1
f 37/2/2 38/2/2 41/2/2
f 41/2/2 38/2/2 42/2/2
f 39/2/2 40/2/2 43/2/2
f 43/2/2 40/2/2 44/2/2
f 45/3/2 46/3/2 47/3/2
f 47/3/2 46/3/2 48/3/2
f 49/3/2 50/3/2 51/3/2
f 51/3/2 50/3/2 52/3/2
f 53/1/2 54/1/2 55/1/2
f 55/1/2 54/1/2 56/1/2
f 57/3/2 58/3/2 59/3/2
f 59/3/2 58/3/2 60/3/2
f 61/2/2 62/2/2 65/2/2
f 63/2/2 64/2/2 66/2/2
f 61/2/2 65/2/2 67/2/2
f 65/2/2 66/2/2 67/2/2
f 66/2/2 64/2/2 68/2/2
f 67/2/2 66/2/2 68/2/2
f 71/2/3 70/2/3 69/2/3
f 72/2/3 70/2/3 71/2/3
f 74/2/3 70/2/3 72/2/3
f 75/2/3 74/2/3 73/2/3
f 76/2/3 70/2/3 74/2/3
f 76/2/3 74/2/3 75/2/3
f 79/1/3 78/1/3 77/1/3
f 80/1/3 78/1/3 79/1/3
f 84/3/3 82/3/3 81/3/3
f 85/3/3 82/3/3 84/3/3
f 87/3/3 84/3/3 83/3/3
f 87/3/3 86/3/3 85/3/3
f 87/3/3 85/3/3 84/3/3
f 88/3/3 86/3/3 87/3/3
f 89/3/3 86/3/3 88/3/3
f 90/3/3 86/3/3 89/3/3
f 91/3/3 89/3/3 88/3/3
f 93/3/3 91/3/3 88/3/3
f 93/3/3 92/3/3 91/3/3
f 94/3/3 92/3/3 93/3/3
f 97/2/3 96/2/3 95/2/3
f 98/2/3 96/2/3 97/2/3
f 101/2/3 100/2/3 99/2/3
f 102/2/3 100/2/3 101/2/3
f 103/2/4 104/2/4 105/2/4
f 105/2/4 104/2/4 106/2/4
f 107/2/4 108/2/4 109/2/4
f 109/2/4 108/2/4 110/2/4
f 111/3/4 112/3/4 114/3/4
f 114/3/4 112/3/4 115/3/4
f 113/3/4 114/3/4 117/3/4
f 115/3/4 116/3/4 117/3/4
f 114/3/4 115/3/4 117/3/4
f 117/3/4 116/3/4 118/3/4
f 118/3/4 116/3/4 119/3/4
f 119/3/4 116/3/4 120/3/4
f 118/3/4 119/3/4 121/3/4
f 118/3/4 121/3/4 123/3/4
f 121/3/4 122/3/4 123/3/4
f 123/3/4 122/3/4 124/3/4
f 125/1/4 126/1/4 127/1/4
f 127/1/4 126/1/4 128/1/4
f 129/2/4 130/2/4 131/2/4
f 131/2/4 130/2/4 132/2/4
f 132/2/4 130/2/4 134/2/4
f 133/2/4 134/2/4 135/2/4
f 134/2/4 130/2/4 136/2/4
f 135/2/4 134/2/4 136/2/4
f 141/2/5 138/2/5 137/2/5
f 142/2/5 138/2/5 141/2/5
f 143/2/5 140/2/5 139/2/5
f 144/2/5 140/2/5 143/2/5
f 149/2/5 146/2/5 145/2/5
f 150/2/5 146/2/5 149/2/5
f 151/2/5 148/2/5 147/2/5
f 152/2/5 148/2/5 151/2/5
f 156/2/5 154/2/5 153/2/5
f 157/2/5 154/2/5 156/2/5
f 159/2/5 156/2/5 155/2/5
f 159/2/5 158/2/5 157/2/5
f 159/2/5 157/2/5 156/2/5
f 160/2/5 158/2/5 159/2/5
f 161/2/5 158/2/5 160/2/5
f 162/2/5 158/2/5 161/2/5
f 163/2/5 161/2/5 160/2/5
f 164/2/5 161/2/5 163/2/5
f 167/3/5 166/3/5 165/3/5
f 168/3/5 166/3/5 167/3/5
f 171/3/5 170/3/5 169/3/5
f 172/3/5 170/3/5 171/3/5
f 173/2/6 174/2/6 175/2/6
f 175/2/6 174/2/6 176/2/6
f 173/2/6 175/2/6 177/2/6
f 176/2/6 174/2/6 178/2/6
f 173/2/6 177/2/6 179/2/6
f 177/2/6 178/2/6 179/2/6
f 178/2/6 174/2/6 180/2/6
f 179/2/6 178/2/6 180/2/6
f 181/1/6 182/1/6 183/1/6
f 183/1/6 182/1/6 184/1/6
f 181/1/6 183/1/6 185/1/6
f 184/1/6 182/1/6 186/1/6
f 181/1/6 185/1/6 187/1/6
f 185/1/6 186/1/6 187/1/6
f 186/1/6 182/1/6 188/1/6
f 187/1/6 186/1/6 188/1/6
f 189/3/6 190/3/6 191/3/6
f 191/3/6 190/3/6 192/3/6
f 193/3/6 194/3/6 197/3/6
f 197/3/6 194/3/6 198/3/6
f 195/3/6 196/3/6 199/3/6
f 199/3/6 196/3/6 200/3/6
f 201/3/6 202/3/6 203/3/6
f 203/3/6 202/3/6 204/3/6
