# MagicaVoxel @ Ephtracy

# group
o 

# material
mtllib test_couch.mtl
usemtl palette

# normals
vn -1 0 0
vn 1 0 0
vn 0 0 1
vn 0 0 -1
vn 0 -1 0
vn 0 1 0

# texcoords
vt 0.537109 0.5
vt 0.958984 0.5
vt 0.970703 0.5

# verts
v -1.4 0.7 1.8
v -1.4 0.7 0.0999999
v -1.4 0.7 -0.1
v -1.4 0.7 -1.8
v -1.4 1.1 1.8
v -1.4 1.1 0.0999999
v -1.4 1.1 -0.1
v -1.4 1.1 -1.8
v -1.3 0 2.4
v -1.3 0 -2.4
v -1.3 0.7 1.8
v -1.3 0.7 0.0999999
v -1.3 0.7 -0.1
v -1.3 0.7 -1.8
v -1.3 1.1 1.8
v -1.3 1.1 -1.8
v -1.3 1.7 2.4
v -1.3 1.7 1.8
v -1.3 1.7 -1.8
v -1.3 1.7 -2.4
v 0.8 1.1 1.8
v 0.8 1.1 0.0999999
v 0.8 1.1 -0.1
v 0.8 1.1 -1.8
v 0.8 1.7 1.8
v 0.8 1.7 -1.8
v 0.8 2.3 1.8
v 0.8 2.3 1.7
v 0.8 2.3 0.0999999
v 0.8 2.3 -0.1
v 0.8 2.3 -1.7
v 0.8 2.3 -1.8
v 0.8 2.4 1.7
v 0.8 2.4 0.0999999
v 0.8 2.4 -0.1
v 0.8 2.4 -1.7
v 1.1 1.7 1.8
v 1.1 1.7 0.0999999
v 1.1 1.7 -0.1
v 1.1 1.7 -1.8
v 1.1 2.3 1.8
v 1.1 2.3 1.7
v 1.1 2.3 0.0999999
v 1.1 2.3 -0.1
v 1.1 2.3 -1.7
v 1.1 2.3 -1.8
v 1.1 2.4 1.7
v 1.1 2.4 0.0999999
v 1.1 2.4 -0.1
v 1.1 2.4 -1.7
v 1.4 0 2.4
v 1.4 0 -2.4
v 1.4 1.7 2.4
v 1.4 1.7 -2.4
v -1.3 0 2.4
v -1.3 1.7 2.4
v 1.4 0 2.4
v 1.4 1.7 2.4
v -1.4 0.7 1.8
v -1.4 1.1 1.8
v -1.3 0.7 1.8
v -1.3 1.1 1.8
v 0.8 1.7 1.8
v 0.8 2.3 1.8
v 1.1 1.7 1.8
v 1.1 2.3 1.8
v 0.8 2.3 1.7
v 0.8 2.4 1.7
v 1.1 2.3 1.7
v 1.1 2.4 1.7
v 0.8 2.3 -0.1
v 0.8 2.4 -0.1
v 1.1 2.3 -0.1
v 1.1 2.4 -0.1
v -1.3 1.1 -1.8
v -1.3 1.7 -1.8
v 0.8 1.1 -1.8
v 0.8 1.7 -1.8
v -1.3 1.1 1.8
v -1.3 1.7 1.8
v 0.8 1.1 1.8
v 0.8 1.7 1.8
v 0.8 2.3 0.0999999
v 0.8 2.4 0.0999999
v 1.1 2.3 0.0999999
v 1.1 2.4 0.0999999
v 0.8 2.3 -1.7
v 0.8 2.4 -1.7
v 1.1 2.3 -1.7
v 1.1 2.4 -1.7
v -1.4 0.7 -1.8
v -1.4 1.1 -1.8
v -1.3 0.7 -1.8
v -1.3 1.1 -1.8
v 0.8 1.7 -1.8
v 0.8 2.3 -1.8
v 1.1 1.7 -1.8
v 1.1 2.3 -1.8
v -1.3 0 -2.4
v -1.3 1.7 -2.4
v 1.4 0 -2.4
v 1.4 1.7 -2.4
v -1.3 0 2.4
v 1.4 0 2.4
v -1.3 0 -2.4
v 1.4 0 -2.4
v -1.4 0.7 1.8
v -1.3 0.7 1.8
v -1.4 0.7 0.0999999
v -1.3 0.7 0.0999999
v -1.4 0.7 -0.1
v -1.3 0.7 -0.1
v -1.4 0.7 -1.8
v -1.3 0.7 -1.8
v -1.4 1.1 1.8
v -1.3 1.1 1.8
v 0.8 1.1 1.8
v -1.4 1.1 0.0999999
v 0.8 1.1 0.0999999
v -1.4 1.1 -0.1
v 0.8 1.1 -0.1
v -1.4 1.1 -1.8
v -1.3 1.1 -1.8
v 0.8 1.1 -1.8
v -1.3 1.7 2.4
v 1.4 1.7 2.4
v -1.3 1.7 1.8
v 0.8 1.7 1.8
v 1.1 1.7 1.8
v 1.1 1.7 0.0999999
v 1.1 1.7 -0.1
v -1.3 1.7 -1.8
v 0.8 1.7 -1.8
v 1.1 1.7 -1.8
v -1.3 1.7 -2.4
v 1.4 1.7 -2.4
v 0.8 2.3 1.8
v 1.1 2.3 1.8
v 0.8 2.3 1.7
v 1.1 2.3 1.7
v 0.8 2.3 0.0999999
v 1.1 2.3 0.0999999
v 0.8 2.3 -0.1
v 1.1 2.3 -0.1
v 0.8 2.3 -1.7
v 1.1 2.3 -1.7
v 0.8 2.3 -1.8
v 1.1 2.3 -1.8
v 0.8 2.4 1.7
v 1.1 2.4 1.7
v 0.8 2.4 0.0999999
v 1.1 2.4 0.0999999
v 0.8 2.4 -0.1
v 1.1 2.4 -0.1
v 0.8 2.4 -1.7
v 1.1 2.4 -1.7

# faces
f 5/2/1 2/2/1 1/2/1
f 6/3/1 3/3/1 2/3/1
f 6/2/1 2/2/1 5/2/1
f 7/2/1 4/2/1 3/2/1
f 7/3/1 3/3/1 6/3/1
f 8/2/1 4/2/1 7/2/1
f 11/1/1 10/1/1 9/1/1
f 12/1/1 10/1/1 11/1/1
f 13/1/1 10/1/1 12/1/1
f 14/1/1 10/1/1 13/1/1
f 15/1/1 11/1/1 9/1/1
f 16/1/1 10/1/1 14/1/1
f 17/1/1 15/1/1 9/1/1
f 18/1/1 15/1/1 17/1/1
f 19/1/1 10/1/1 16/1/1
f 20/1/1 10/1/1 19/1/1
f 25/2/1 22/2/1 21/2/1
f 26/2/1 24/2/1 23/2/1
f 27/2/1 22/2/1 25/2/1
f 28/2/1 22/2/1 27/2/1
f 29/3/1 23/3/1 22/3/1
f 29/2/1 22/2/1 28/2/1
f 30/2/1 26/2/1 23/2/1
f 30/3/1 23/3/1 29/3/1
f 31/2/1 26/2/1 30/2/1
f 32/2/1 26/2/1 31/2/1
f 33/2/1 29/2/1 28/2/1
f 34/2/1 29/2/1 33/2/1
f 35/2/1 31/2/1 30/2/1
f 36/2/1 31/2/1 35/2/1
f 37/2/2 38/2/2 41/2/2
f 41/2/2 38/2/2 42/2/2
f 38/3/2 39/3/2 43/3/2
f 42/2/2 38/2/2 43/2/2
f 39/2/2 40/2/2 44/2/2
f 43/3/2 39/3/2 44/3/2
f 44/2/2 40/2/2 45/2/2
f 45/2/2 40/2/2 46/2/2
f 42/2/2 43/2/2 47/2/2
f 47/2/2 43/2/2 48/2/2
f 44/2/2 45/2/2 49/2/2
f 49/2/2 45/2/2 50/2/2
f 51/1/2 52/1/2 53/1/2
f 53/1/2 52/1/2 54/1/2
f 57/1/3 56/1/3 55/1/3
f 58/1/3 56/1/3 57/1/3
f 61/2/3 60/2/3 59/2/3
f 62/2/3 60/2/3 61/2/3
f 65/2/3 64/2/3 63/2/3
f 66/2/3 64/2/3 65/2/3
f 69/2/3 68/2/3 67/2/3
f 70/2/3 68/2/3 69/2/3
f 73/2/3 72/2/3 71/2/3
f 74/2/3 72/2/3 73/2/3
f 77/1/3 76/1/3 75/1/3
f 78/1/3 76/1/3 77/1/3
f 79/1/4 80/1/4 81/1/4
f 81/1/4 80/1/4 82/1/4
f 83/2/4 84/2/4 85/2/4
f 85/2/4 84/2/4 86/2/4
f 87/2/4 88/2/4 89/2/4
f 89/2/4 88/2/4 90/2/4
f 91/2/4 92/2/4 93/2/4
f 93/2/4 92/2/4 94/2/4
f 95/2/4 96/2/4 97/2/4
f 97/2/4 96/2/4 98/2/4
f 99/1/4 100/1/4 101/1/4
f 101/1/4 100/1/4 102/1/4
f 105/1/5 104/1/5 103/1/5
f 106/1/5 104/1/5 105/1/5
f 109/2/5 108/2/5 107/2/5
f 110/2/5 108/2/5 109/2/5
f 111/3/5 110/3/5 109/3/5
f 112/3/5 110/3/5 111/3/5
f 113/2/5 112/2/5 111/2/5
f 114/2/5 112/2/5 113/2/5
f 115/2/6 116/2/6 118/2/6
f 116/2/6 117/2/6 118/2/6
f 118/2/6 117/2/6 119/2/6
f 118/3/6 119/3/6 120/3/6
f 120/3/6 119/3/6 121/3/6
f 120/2/6 121/2/6 122/2/6
f 122/2/6 121/2/6 123/2/6
f 123/2/6 121/2/6 124/2/6
f 125/1/6 126/1/6 127/1/6
f 127/1/6 126/1/6 128/1/6
f 128/1/6 126/1/6 129/1/6
f 129/1/6 126/1/6 130/1/6
f 130/1/6 126/1/6 131/1/6
f 131/1/6 126/1/6 134/1/6
f 132/1/6 133/1/6 135/1/6
f 133/1/6 134/1/6 135/1/6
f 134/1/6 126/1/6 136/1/6
f 135/1/6 134/1/6 136/1/6
f 137/2/6 138/2/6 139/2/6
f 139/2/6 138/2/6 140/2/6
f 141/3/6 142/3/6 143/3/6
f 143/3/6 142/3/6 144/3/6
f 145/2/6 146/2/6 147/2/6
f 147/2/6 146/2/6 148/2/6
f 149/2/6 150/2/6 151/2/6
f 151/2/6 150/2/6 152/2/6
f 153/2/6 154/2/6 155/2/6
f 155/2/6 154/2/6 156/2/6
