# MagicaVoxel @ Ephtracy

# group
o 

# material
mtllib wall52.mtl
usemtl palette

# normals
vn -1 0 0
vn 1 0 0
vn 0 0 1
vn 0 0 -1
vn 0 -1 0
vn 0 1 0

# texcoords
vt 0.00195312 0.5
vt 0.626953 0.5
vt 0.994141 0.5

# verts
v -6 0 0.2
v -6 0 -0.3
v -6 0.5 0.3
v -6 0.5 0.2
v -6 1 0.3
v -6 1 0.2
v -6 12.5 0.2
v -6 12.5 -0.3
v 6.1 0 0.2
v 6.1 0 -0.3
v 6.1 0.5 0.3
v 6.1 0.5 0.2
v 6.1 1 0.3
v 6.1 1 0.2
v 6.1 12.5 0.2
v 6.1 12.5 -0.3
v -6 0.5 0.3
v -6 1 0.3
v 6.1 0.5 0.3
v 6.1 1 0.3
v -6 0 0.2
v -6 0.5 0.2
v -6 1 0.2
v -6 12.5 0.2
v -5.1 0 0.2
v -5.1 0.5 0.2
v -5.1 1 0.2
v -5.1 12.5 0.2
v -5 0 0.2
v -5 0.5 0.2
v -5 1 0.2
v -5 12.5 0.2
v -4.1 0 0.2
v -4.1 0.5 0.2
v -4.1 1 0.2
v -4.1 12.5 0.2
v -4 0 0.2
v -4 0.5 0.2
v -4 1 0.2
v -4 12.5 0.2
v -3.1 0 0.2
v -3.1 0.5 0.2
v -3.1 1 0.2
v -3.1 12.5 0.2
v -3 0 0.2
v -3 0.5 0.2
v -3 1 0.2
v -3 12.5 0.2
v -2.1 0 0.2
v -2.1 0.5 0.2
v -2.1 1 0.2
v -2.1 12.5 0.2
v -2 0 0.2
v -2 0.5 0.2
v -2 1 0.2
v -2 12.5 0.2
v -1.1 0 0.2
v -1.1 0.5 0.2
v -1.1 1 0.2
v -1.1 12.5 0.2
v -1 0 0.2
v -1 0.5 0.2
v -1 1 0.2
v -1 12.5 0.2
v -0.0999999 0 0.2
v -0.0999999 0.5 0.2
v -0.0999999 1 0.2
v -0.0999999 12.5 0.2
v 0 0 0.2
v 0 0.5 0.2
v 0 1 0.2
v 0 12.5 0.2
v 0.9 0 0.2
v 0.9 0.5 0.2
v 0.9 1 0.2
v 0.9 12.5 0.2
v 1 0 0.2
v 1 0.5 0.2
v 1 1 0.2
v 1 12.5 0.2
v 1.9 0 0.2
v 1.9 0.5 0.2
v 1.9 1 0.2
v 1.9 12.5 0.2
v 2 0 0.2
v 2 0.5 0.2
v 2 1 0.2
v 2 12.5 0.2
v 2.9 0 0.2
v 2.9 0.5 0.2
v 2.9 1 0.2
v 2.9 12.5 0.2
v 3 0 0.2
v 3 0.5 0.2
v 3 1 0.2
v 3 12.5 0.2
v 3.9 0 0.2
v 3.9 0.5 0.2
v 3.9 1 0.2
v 3.9 12.5 0.2
v 4 0 0.2
v 4 0.5 0.2
v 4 1 0.2
v 4 12.5 0.2
v 4.9 0 0.2
v 4.9 0.5 0.2
v 4.9 1 0.2
v 4.9 12.5 0.2
v 5 0 0.2
v 5 0.5 0.2
v 5 1 0.2
v 5 12.5 0.2
v 5.9 0 0.2
v 5.9 0.5 0.2
v 5.9 1 0.2
v 5.9 12.5 0.2
v 6 0 0.2
v 6 0.5 0.2
v 6 1 0.2
v 6 12.5 0.2
v 6.1 0 0.2
v 6.1 0.5 0.2
v 6.1 1 0.2
v 6.1 12.5 0.2
v -6 0 -0.3
v -6 12.5 -0.3
v -5.1 0 -0.3
v -5.1 12.5 -0.3
v -5 0 -0.3
v -5 12.5 -0.3
v -4.1 0 -0.3
v -4.1 12.5 -0.3
v -4 0 -0.3
v -4 12.5 -0.3
v -3.1 0 -0.3
v -3.1 12.5 -0.3
v -3 0 -0.3
v -3 12.5 -0.3
v -2.1 0 -0.3
v -2.1 12.5 -0.3
v -2 0 -0.3
v -2 12.5 -0.3
v -1.1 0 -0.3
v -1.1 12.5 -0.3
v -1 0 -0.3
v -1 12.5 -0.3
v -0.0999999 0 -0.3
v -0.0999999 12.5 -0.3
v 0 0 -0.3
v 0 12.5 -0.3
v 0.9 0 -0.3
v 0.9 12.5 -0.3
v 1 0 -0.3
v 1 12.5 -0.3
v 1.9 0 -0.3
v 1.9 12.5 -0.3
v 2 0 -0.3
v 2 12.5 -0.3
v 2.9 0 -0.3
v 2.9 12.5 -0.3
v 3 0 -0.3
v 3 12.5 -0.3
v 3.9 0 -0.3
v 3.9 12.5 -0.3
v 4 0 -0.3
v 4 12.5 -0.3
v 4.9 0 -0.3
v 4.9 12.5 -0.3
v 5 0 -0.3
v 5 12.5 -0.3
v 5.9 0 -0.3
v 5.9 12.5 -0.3
v 6 0 -0.3
v 6 12.5 -0.3
v 6.1 0 -0.3
v 6.1 12.5 -0.3
v -6 0 0.2
v -5.1 0 0.2
v -5 0 0.2
v -4.1 0 0.2
v -4 0 0.2
v -3.1 0 0.2
v -3 0 0.2
v -2.1 0 0.2
v -2 0 0.2
v -1.1 0 0.2
v -1 0 0.2
v -0.0999999 0 0.2
v 0 0 0.2
v 0.9 0 0.2
v 1 0 0.2
v 1.9 0 0.2
v 2 0 0.2
v 2.9 0 0.2
v 3 0 0.2
v 3.9 0 0.2
v 4 0 0.2
v 4.9 0 0.2
v 5 0 0.2
v 5.9 0 0.2
v 6 0 0.2
v 6.1 0 0.2
v -6 0 -0.3
v -5.1 0 -0.3
v -5 0 -0.3
v -4.1 0 -0.3
v -4 0 -0.3
v -3.1 0 -0.3
v -3 0 -0.3
v -2.1 0 -0.3
v -2 0 -0.3
v -1.1 0 -0.3
v -1 0 -0.3
v -0.0999999 0 -0.3
v 0 0 -0.3
v 0.9 0 -0.3
v 1 0 -0.3
v 1.9 0 -0.3
v 2 0 -0.3
v 2.9 0 -0.3
v 3 0 -0.3
v 3.9 0 -0.3
v 4 0 -0.3
v 4.9 0 -0.3
v 5 0 -0.3
v 5.9 0 -0.3
v 6 0 -0.3
v 6.1 0 -0.3
v -6 0.5 0.3
v 6.1 0.5 0.3
v -6 0.5 0.2
v -5.1 0.5 0.2
v -5 0.5 0.2
v -4.1 0.5 0.2
v -4 0.5 0.2
v -3.1 0.5 0.2
v -3 0.5 0.2
v -2.1 0.5 0.2
v -2 0.5 0.2
v -1.1 0.5 0.2
v -1 0.5 0.2
v -0.0999999 0.5 0.2
v 0 0.5 0.2
v 0.9 0.5 0.2
v 1 0.5 0.2
v 1.9 0.5 0.2
v 2 0.5 0.2
v 2.9 0.5 0.2
v 3 0.5 0.2
v 3.9 0.5 0.2
v 4 0.5 0.2
v 4.9 0.5 0.2
v 5 0.5 0.2
v 5.9 0.5 0.2
v 6 0.5 0.2
v 6.1 0.5 0.2
v -6 1 0.3
v 6.1 1 0.3
v -6 1 0.2
v -5.1 1 0.2
v -5 1 0.2
v -4.1 1 0.2
v -4 1 0.2
v -3.1 1 0.2
v -3 1 0.2
v -2.1 1 0.2
v -2 1 0.2
v -1.1 1 0.2
v -1 1 0.2
v -0.0999999 1 0.2
v 0 1 0.2
v 0.9 1 0.2
v 1 1 0.2
v 1.9 1 0.2
v 2 1 0.2
v 2.9 1 0.2
v 3 1 0.2
v 3.9 1 0.2
v 4 1 0.2
v 4.9 1 0.2
v 5 1 0.2
v 5.9 1 0.2
v 6 1 0.2
v 6.1 1 0.2
v -6 12.5 0.2
v -5.1 12.5 0.2
v -5 12.5 0.2
v -4.1 12.5 0.2
v -4 12.5 0.2
v -3.1 12.5 0.2
v -3 12.5 0.2
v -2.1 12.5 0.2
v -2 12.5 0.2
v -1.1 12.5 0.2
v -1 12.5 0.2
v -0.0999999 12.5 0.2
v 0 12.5 0.2
v 0.9 12.5 0.2
v 1 12.5 0.2
v 1.9 12.5 0.2
v 2 12.5 0.2
v 2.9 12.5 0.2
v 3 12.5 0.2
v 3.9 12.5 0.2
v 4 12.5 0.2
v 4.9 12.5 0.2
v 5 12.5 0.2
v 5.9 12.5 0.2
v 6 12.5 0.2
v 6.1 12.5 0.2
v -6 12.5 -0.3
v -5.1 12.5 -0.3
v -5 12.5 -0.3
v -4.1 12.5 -0.3
v -4 12.5 -0.3
v -3.1 12.5 -0.3
v -3 12.5 -0.3
v -2.1 12.5 -0.3
v -2 12.5 -0.3
v -1.1 12.5 -0.3
v -1 12.5 -0.3
v -0.0999999 12.5 -0.3
v 0 12.5 -0.3
v 0.9 12.5 -0.3
v 1 12.5 -0.3
v 1.9 12.5 -0.3
v 2 12.5 -0.3
v 2.9 12.5 -0.3
v 3 12.5 -0.3
v 3.9 12.5 -0.3
v 4 12.5 -0.3
v 4.9 12.5 -0.3
v 5 12.5 -0.3
v 5.9 12.5 -0.3
v 6 12.5 -0.3
v 6.1 12.5 -0.3

# faces
f 4/2/1 2/2/1 1/2/1
f 5/1/1 4/1/1 3/1/1
f 6/2/1 2/2/1 4/2/1
f 6/1/1 4/1/1 5/1/1
f 7/2/1 2/2/1 6/2/1
f 8/2/1 2/2/1 7/2/1
f 9/2/2 10/2/2 12/2/2
f 11/1/2 12/1/2 13/1/2
f 12/2/2 10/2/2 14/2/2
f 13/1/2 12/1/2 14/1/2
f 14/2/2 10/2/2 15/2/2
f 15/2/2 10/2/2 16/2/2
f 19/1/3 18/1/3 17/1/3
f 20/1/3 18/1/3 19/1/3
f 25/2/3 22/2/3 21/2/3
f 26/2/3 22/2/3 25/2/3
f 27/2/3 24/2/3 23/2/3
f 28/2/3 24/2/3 27/2/3
f 29/3/3 26/3/3 25/3/3
f 30/3/3 26/3/3 29/3/3
f 31/3/3 28/3/3 27/3/3
f 32/3/3 28/3/3 31/3/3
f 33/2/3 30/2/3 29/2/3
f 34/2/3 30/2/3 33/2/3
f 35/2/3 32/2/3 31/2/3
f 36/2/3 32/2/3 35/2/3
f 37/3/3 34/3/3 33/3/3
f 38/3/3 34/3/3 37/3/3
f 39/3/3 36/3/3 35/3/3
f 40/3/3 36/3/3 39/3/3
f 41/2/3 38/2/3 37/2/3
f 42/2/3 38/2/3 41/2/3
f 43/2/3 40/2/3 39/2/3
f 44/2/3 40/2/3 43/2/3
f 45/3/3 42/3/3 41/3/3
f 46/3/3 42/3/3 45/3/3
f 47/3/3 44/3/3 43/3/3
f 48/3/3 44/3/3 47/3/3
f 49/2/3 46/2/3 45/2/3
f 50/2/3 46/2/3 49/2/3
f 51/2/3 48/2/3 47/2/3
f 52/2/3 48/2/3 51/2/3
f 53/3/3 50/3/3 49/3/3
f 54/3/3 50/3/3 53/3/3
f 55/3/3 52/3/3 51/3/3
f 56/3/3 52/3/3 55/3/3
f 57/2/3 54/2/3 53/2/3
f 58/2/3 54/2/3 57/2/3
f 59/2/3 56/2/3 55/2/3
f 60/2/3 56/2/3 59/2/3
f 61/3/3 58/3/3 57/3/3
f 62/3/3 58/3/3 61/3/3
f 63/3/3 60/3/3 59/3/3
f 64/3/3 60/3/3 63/3/3
f 65/2/3 62/2/3 61/2/3
f 66/2/3 62/2/3 65/2/3
f 67/2/3 64/2/3 63/2/3
f 68/2/3 64/2/3 67/2/3
f 69/3/3 66/3/3 65/3/3
f 70/3/3 66/3/3 69/3/3
f 71/3/3 68/3/3 67/3/3
f 72/3/3 68/3/3 71/3/3
f 73/2/3 70/2/3 69/2/3
f 74/2/3 70/2/3 73/2/3
f 75/2/3 72/2/3 71/2/3
f 76/2/3 72/2/3 75/2/3
f 77/3/3 74/3/3 73/3/3
f 78/3/3 74/3/3 77/3/3
f 79/3/3 76/3/3 75/3/3
f 80/3/3 76/3/3 79/3/3
f 81/2/3 78/2/3 77/2/3
f 82/2/3 78/2/3 81/2/3
f 83/2/3 80/2/3 79/2/3
f 84/2/3 80/2/3 83/2/3
f 85/3/3 82/3/3 81/3/3
f 86/3/3 82/3/3 85/3/3
f 87/3/3 84/3/3 83/3/3
f 88/3/3 84/3/3 87/3/3
f 89/2/3 86/2/3 85/2/3
f 90/2/3 86/2/3 89/2/3
f 91/2/3 88/2/3 87/2/3
f 92/2/3 88/2/3 91/2/3
f 93/3/3 90/3/3 89/3/3
f 94/3/3 90/3/3 93/3/3
f 95/3/3 92/3/3 91/3/3
f 96/3/3 92/3/3 95/3/3
f 97/2/3 94/2/3 93/2/3
f 98/2/3 94/2/3 97/2/3
f 99/2/3 96/2/3 95/2/3
f 100/2/3 96/2/3 99/2/3
f 101/3/3 98/3/3 97/3/3
f 102/3/3 98/3/3 101/3/3
f 103/3/3 100/3/3 99/3/3
f 104/3/3 100/3/3 103/3/3
f 105/2/3 102/2/3 101/2/3
f 106/2/3 102/2/3 105/2/3
f 107/2/3 104/2/3 103/2/3
f 108/2/3 104/2/3 107/2/3
f 109/3/3 106/3/3 105/3/3
f 110/3/3 106/3/3 109/3/3
f 111/3/3 108/3/3 107/3/3
f 112/3/3 108/3/3 111/3/3
f 113/2/3 110/2/3 109/2/3
f 114/2/3 110/2/3 113/2/3
f 115/2/3 112/2/3 111/2/3
f 116/2/3 112/2/3 115/2/3
f 117/3/3 114/3/3 113/3/3
f 118/3/3 114/3/3 117/3/3
f 119/3/3 116/3/3 115/3/3
f 120/3/3 116/3/3 119/3/3
f 121/2/3 118/2/3 117/2/3
f 122/2/3 118/2/3 121/2/3
f 123/2/3 120/2/3 119/2/3
f 124/2/3 120/2/3 123/2/3
f 125/2/4 126/2/4 127/2/4
f 127/2/4 126/2/4 128/2/4
f 127/3/4 128/3/4 129/3/4
f 129/3/4 128/3/4 130/3/4
f 129/2/4 130/2/4 131/2/4
f 131/2/4 130/2/4 132/2/4
f 131/3/4 132/3/4 133/3/4
f 133/3/4 132/3/4 134/3/4
f 133/2/4 134/2/4 135/2/4
f 135/2/4 134/2/4 136/2/4
f 135/3/4 136/3/4 137/3/4
f 137/3/4 136/3/4 138/3/4
f 137/2/4 138/2/4 139/2/4
f 139/2/4 138/2/4 140/2/4
f 139/3/4 140/3/4 141/3/4
f 141/3/4 140/3/4 142/3/4
f 141/2/4 142/2/4 143/2/4
f 143/2/4 142/2/4 144/2/4
f 143/3/4 144/3/4 145/3/4
f 145/3/4 144/3/4 146/3/4
f 145/2/4 146/2/4 147/2/4
f 147/2/4 146/2/4 148/2/4
f 147/3/4 148/3/4 149/3/4
f 149/3/4 148/3/4 150/3/4
f 149/2/4 150/2/4 151/2/4
f 151/2/4 150/2/4 152/2/4
f 151/3/4 152/3/4 153/3/4
f 153/3/4 152/3/4 154/3/4
f 153/2/4 154/2/4 155/2/4
f 155/2/4 154/2/4 156/2/4
f 155/3/4 156/3/4 157/3/4
f 157/3/4 156/3/4 158/3/4
f 157/2/4 158/2/4 159/2/4
f 159/2/4 158/2/4 160/2/4
f 159/3/4 160/3/4 161/3/4
f 161/3/4 160/3/4 162/3/4
f 161/2/4 162/2/4 163/2/4
f 163/2/4 162/2/4 164/2/4
f 163/3/4 164/3/4 165/3/4
f 165/3/4 164/3/4 166/3/4
f 165/2/4 166/2/4 167/2/4
f 167/2/4 166/2/4 168/2/4
f 167/3/4 168/3/4 169/3/4
f 169/3/4 168/3/4 170/3/4
f 169/2/4 170/2/4 171/2/4
f 171/2/4 170/2/4 172/2/4
f 171/3/4 172/3/4 173/3/4
f 173/3/4 172/3/4 174/3/4
f 173/2/4 174/2/4 175/2/4
f 175/2/4 174/2/4 176/2/4
f 203/2/5 178/2/5 177/2/5
f 204/3/5 179/3/5 178/3/5
f 204/2/5 178/2/5 203/2/5
f 205/2/5 180/2/5 179/2/5
f 205/3/5 179/3/5 204/3/5
f 206/3/5 181/3/5 180/3/5
f 206/2/5 180/2/5 205/2/5
f 207/2/5 182/2/5 181/2/5
f 207/3/5 181/3/5 206/3/5
f 208/3/5 183/3/5 182/3/5
f 208/2/5 182/2/5 207/2/5
f 209/2/5 184/2/5 183/2/5
f 209/3/5 183/3/5 208/3/5
f 210/3/5 185/3/5 184/3/5
f 210/2/5 184/2/5 209/2/5
f 211/2/5 186/2/5 185/2/5
f 211/3/5 185/3/5 210/3/5
f 212/3/5 187/3/5 186/3/5
f 212/2/5 186/2/5 211/2/5
f 213/2/5 188/2/5 187/2/5
f 213/3/5 187/3/5 212/3/5
f 214/3/5 189/3/5 188/3/5
f 214/2/5 188/2/5 213/2/5
f 215/2/5 190/2/5 189/2/5
f 215/3/5 189/3/5 214/3/5
f 216/3/5 191/3/5 190/3/5
f 216/2/5 190/2/5 215/2/5
f 217/2/5 192/2/5 191/2/5
f 217/3/5 191/3/5 216/3/5
f 218/3/5 193/3/5 192/3/5
f 218/2/5 192/2/5 217/2/5
f 219/2/5 194/2/5 193/2/5
f 219/3/5 193/3/5 218/3/5
f 220/3/5 195/3/5 194/3/5
f 220/2/5 194/2/5 219/2/5
f 221/2/5 196/2/5 195/2/5
f 221/3/5 195/3/5 220/3/5
f 222/3/5 197/3/5 196/3/5
f 222/2/5 196/2/5 221/2/5
f 223/2/5 198/2/5 197/2/5
f 223/3/5 197/3/5 222/3/5
f 224/3/5 199/3/5 198/3/5
f 224/2/5 198/2/5 223/2/5
f 225/2/5 200/2/5 199/2/5
f 225/3/5 199/3/5 224/3/5
f 226/3/5 201/3/5 200/3/5
f 226/2/5 200/2/5 225/2/5
f 227/2/5 202/2/5 201/2/5
f 227/3/5 201/3/5 226/3/5
f 228/2/5 202/2/5 227/2/5
f 231/1/5 230/1/5 229/1/5
f 232/1/5 230/1/5 231/1/5
f 233/1/5 230/1/5 232/1/5
f 234/1/5 230/1/5 233/1/5
f 235/1/5 230/1/5 234/1/5
f 236/1/5 230/1/5 235/1/5
f 237/1/5 230/1/5 236/1/5
f 238/1/5 230/1/5 237/1/5
f 239/1/5 230/1/5 238/1/5
f 240/1/5 230/1/5 239/1/5
f 241/1/5 230/1/5 240/1/5
f 242/1/5 230/1/5 241/1/5
f 243/1/5 230/1/5 242/1/5
f 244/1/5 230/1/5 243/1/5
f 245/1/5 230/1/5 244/1/5
f 246/1/5 230/1/5 245/1/5
f 247/1/5 230/1/5 246/1/5
f 248/1/5 230/1/5 247/1/5
f 249/1/5 230/1/5 248/1/5
f 250/1/5 230/1/5 249/1/5
f 251/1/5 230/1/5 250/1/5
f 252/1/5 230/1/5 251/1/5
f 253/1/5 230/1/5 252/1/5
f 254/1/5 230/1/5 253/1/5
f 255/1/5 230/1/5 254/1/5
f 256/1/5 230/1/5 255/1/5
f 257/1/6 258/1/6 259/1/6
f 259/1/6 258/1/6 260/1/6
f 260/1/6 258/1/6 261/1/6
f 261/1/6 258/1/6 262/1/6
f 262/1/6 258/1/6 263/1/6
f 263/1/6 258/1/6 264/1/6
f 264/1/6 258/1/6 265/1/6
f 265/1/6 258/1/6 266/1/6
f 266/1/6 258/1/6 267/1/6
f 267/1/6 258/1/6 268/1/6
f 268/1/6 258/1/6 269/1/6
f 269/1/6 258/1/6 270/1/6
f 270/1/6 258/1/6 271/1/6
f 271/1/6 258/1/6 272/1/6
f 272/1/6 258/1/6 273/1/6
f 273/1/6 258/1/6 274/1/6
f 274/1/6 258/1/6 275/1/6
f 275/1/6 258/1/6 276/1/6
f 276/1/6 258/1/6 277/1/6
f 277/1/6 258/1/6 278/1/6
f 278/1/6 258/1/6 279/1/6
f 279/1/6 258/1/6 280/1/6
f 280/1/6 258/1/6 281/1/6
f 281/1/6 258/1/6 282/1/6
f 282/1/6 258/1/6 283/1/6
f 283/1/6 258/1/6 284/1/6
f 285/2/6 286/2/6 311/2/6
f 286/3/6 287/3/6 312/3/6
f 311/2/6 286/2/6 312/2/6
f 287/2/6 288/2/6 313/2/6
f 312/3/6 287/3/6 313/3/6
f 288/3/6 289/3/6 314/3/6
f 313/2/6 288/2/6 314/2/6
f 289/2/6 290/2/6 315/2/6
f 314/3/6 289/3/6 315/3/6
f 290/3/6 291/3/6 316/3/6
f 315/2/6 290/2/6 316/2/6
f 291/2/6 292/2/6 317/2/6
f 316/3/6 291/3/6 317/3/6
f 292/3/6 293/3/6 318/3/6
f 317/2/6 292/2/6 318/2/6
f 293/2/6 294/2/6 319/2/6
f 318/3/6 293/3/6 319/3/6
f 294/3/6 295/3/6 320/3/6
f 319/2/6 294/2/6 320/2/6
f 295/2/6 296/2/6 321/2/6
f 320/3/6 295/3/6 321/3/6
f 296/3/6 297/3/6 322/3/6
f 321/2/6 296/2/6 322/2/6
f 297/2/6 298/2/6 323/2/6
f 322/3/6 297/3/6 323/3/6
f 298/3/6 299/3/6 324/3/6
f 323/2/6 298/2/6 324/2/6
f 299/2/6 300/2/6 325/2/6
f 324/3/6 299/3/6 325/3/6
f 300/3/6 301/3/6 326/3/6
f 325/2/6 300/2/6 326/2/6
f 301/2/6 302/2/6 327/2/6
f 326/3/6 301/3/6 327/3/6
f 302/3/6 303/3/6 328/3/6
f 327/2/6 302/2/6 328/2/6
f 303/2/6 304/2/6 329/2/6
f 328/3/6 303/3/6 329/3/6
f 304/3/6 305/3/6 330/3/6
f 329/2/6 304/2/6 330/2/6
f 305/2/6 306/2/6 331/2/6
f 330/3/6 305/3/6 331/3/6
f 306/3/6 307/3/6 332/3/6
f 331/2/6 306/2/6 332/2/6
f 307/2/6 308/2/6 333/2/6
f 332/3/6 307/3/6 333/3/6
f 308/3/6 309/3/6 334/3/6
f 333/2/6 308/2/6 334/2/6
f 309/2/6 310/2/6 335/2/6
f 334/3/6 309/3/6 335/3/6
f 335/2/6 310/2/6 336/2/6
