# MagicaVoxel @ Ephtracy

# group
o 

# material
mtllib wall51.mtl
usemtl palette

# normals
vn -1 0 0
vn 1 0 0
vn 0 0 1
vn 0 0 -1
vn 0 -1 0
vn 0 1 0

# texcoords
vt 0.00195312 0.5
vt 0.142578 0.5
vt 0.533203 0.5
vt 0.966797 0.5

# verts
v -9 0 0.3
v -9 0 -0.2
v -9 0.5 0.4
v -9 0.5 0.3
v -9 1 0.4
v -9 1 0.3
v -9 12.5 0.3
v -9 12.5 -0.2
v -6.9 8.7 0.6
v -6.9 8.7 0.3
v -6.9 8.9 0.5
v -6.9 8.9 0.4
v -6.9 9 0.6
v -6.9 9 0.5
v -6.9 9.2 0.4
v -6.9 9.2 0.3
v -5.3 8.7 0.6
v -5.3 8.7 0.3
v -5.3 8.9 0.5
v -5.3 8.9 0.4
v -5.3 9 0.6
v -5.3 9 0.5
v -5.3 9.2 0.4
v -5.3 9.2 0.3
v -3.7 8.7 0.6
v -3.7 8.7 0.3
v -3.7 8.9 0.5
v -3.7 8.9 0.4
v -3.7 9 0.6
v -3.7 9 0.5
v -3.7 9.2 0.4
v -3.7 9.2 0.3
v -1.5 4.2 0.4
v -1.5 4.2 0.3
v -1.5 11.2 0.4
v -1.5 11.2 0.3
v -1.4 4.3 0.5
v -1.4 4.3 0.4
v -1.4 11.1 0.5
v -1.4 11.1 0.4
v 2.6 4.4 0.5
v 2.6 4.4 0.3
v 2.6 11 0.5
v 2.6 11 0.3
v 6.7 4.4 0.5
v 6.7 4.4 0.3
v 6.7 11 0.5
v 6.7 11 0.3
v -6.7 8.7 0.6
v -6.7 8.7 0.3
v -6.7 8.9 0.5
v -6.7 8.9 0.4
v -6.7 9 0.6
v -6.7 9 0.5
v -6.7 9.2 0.4
v -6.7 9.2 0.3
v -5.1 8.7 0.6
v -5.1 8.7 0.3
v -5.1 8.9 0.5
v -5.1 8.9 0.4
v -5.1 9 0.6
v -5.1 9 0.5
v -5.1 9.2 0.4
v -5.1 9.2 0.3
v -3.5 8.7 0.6
v -3.5 8.7 0.3
v -3.5 8.9 0.5
v -3.5 8.9 0.4
v -3.5 9 0.6
v -3.5 9 0.5
v -3.5 9.2 0.4
v -3.5 9.2 0.3
v -1.3 4.4 0.5
v -1.3 4.4 0.3
v -1.3 11 0.5
v -1.3 11 0.3
v 2.8 4.4 0.5
v 2.8 4.4 0.3
v 2.8 11 0.5
v 2.8 11 0.3
v 6.8 4.3 0.5
v 6.8 4.3 0.4
v 6.8 11.1 0.5
v 6.8 11.1 0.4
v 6.9 4.2 0.4
v 6.9 4.2 0.3
v 6.9 11.2 0.4
v 6.9 11.2 0.3
v 9.1 0 0.3
v 9.1 0 -0.2
v 9.1 0.5 0.4
v 9.1 0.5 0.3
v 9.1 1 0.4
v 9.1 1 0.3
v 9.1 12.5 0.3
v 9.1 12.5 -0.2
v -6.9 8.7 0.6
v -6.9 9 0.6
v -6.7 8.7 0.6
v -6.7 9 0.6
v -5.3 8.7 0.6
v -5.3 9 0.6
v -5.1 8.7 0.6
v -5.1 9 0.6
v -3.7 8.7 0.6
v -3.7 9 0.6
v -3.5 8.7 0.6
v -3.5 9 0.6
v -1.4 4.3 0.5
v -1.4 11.1 0.5
v -1.3 4.4 0.5
v -1.3 11 0.5
v 2.6 4.4 0.5
v 2.6 11 0.5
v 2.8 4.4 0.5
v 2.8 11 0.5
v 6.7 4.4 0.5
v 6.7 11 0.5
v 6.8 4.3 0.5
v 6.8 11.1 0.5
v -9 0.5 0.4
v -9 1 0.4
v -6.9 8.9 0.4
v -6.9 9.2 0.4
v -6.7 8.9 0.4
v -6.7 9.2 0.4
v -5.3 8.9 0.4
v -5.3 9.2 0.4
v -5.1 8.9 0.4
v -5.1 9.2 0.4
v -3.7 8.9 0.4
v -3.7 9.2 0.4
v -3.5 8.9 0.4
v -3.5 9.2 0.4
v -1.5 4.2 0.4
v -1.5 11.2 0.4
v -1.4 4.3 0.4
v -1.4 11.1 0.4
v 6.8 4.3 0.4
v 6.8 11.1 0.4
v 6.9 4.2 0.4
v 6.9 11.2 0.4
v 9.1 0.5 0.4
v 9.1 1 0.4
v -9 0 0.3
v -9 0.5 0.3
v -9 1 0.3
v -9 12.5 0.3
v -6.9 8.7 0.3
v -6.9 9.2 0.3
v -6.7 8.7 0.3
v -6.7 9.2 0.3
v -5.3 8.7 0.3
v -5.3 9.2 0.3
v -5.1 8.7 0.3
v -5.1 9.2 0.3
v -3.7 8.7 0.3
v -3.7 9.2 0.3
v -3.5 8.7 0.3
v -3.5 9.2 0.3
v -1.5 4.2 0.3
v -1.5 11.2 0.3
v -1.3 4.4 0.3
v -1.3 11 0.3
v 2.6 4.4 0.3
v 2.6 11 0.3
v 2.8 4.4 0.3
v 2.8 11 0.3
v 6.7 4.4 0.3
v 6.7 11 0.3
v 6.9 4.2 0.3
v 6.9 11.2 0.3
v 9.1 0 0.3
v 9.1 0.5 0.3
v 9.1 1 0.3
v 9.1 12.5 0.3
v -6.9 8.9 0.5
v -6.9 9 0.5
v -6.7 8.9 0.5
v -6.7 9 0.5
v -5.3 8.9 0.5
v -5.3 9 0.5
v -5.1 8.9 0.5
v -5.1 9 0.5
v -3.7 8.9 0.5
v -3.7 9 0.5
v -3.5 8.9 0.5
v -3.5 9 0.5
v -9 0 -0.2
v -9 12.5 -0.2
v -1.4 4.3 -0.2
v -1.4 11.1 -0.2
v -1.3 4.4 -0.2
v -1.3 11 -0.2
v 2.6 4.4 -0.2
v 2.6 11 -0.2
v 2.8 4.4 -0.2
v 2.8 11 -0.2
v 6.7 4.4 -0.2
v 6.7 11 -0.2
v 6.8 4.3 -0.2
v 6.8 11.1 -0.2
v 9.1 0 -0.2
v 9.1 12.5 -0.2
v -9 0 0.3
v 9.1 0 0.3
v -9 0 -0.2
v 9.1 0 -0.2
v -9 0.5 0.4
v 9.1 0.5 0.4
v -9 0.5 0.3
v 9.1 0.5 0.3
v -1.5 4.2 0.4
v 6.9 4.2 0.4
v -1.5 4.2 0.3
v 6.9 4.2 0.3
v -1.4 4.3 0.5
v 6.8 4.3 0.5
v -1.4 4.3 0.4
v 6.8 4.3 0.4
v -6.9 8.7 0.6
v -6.7 8.7 0.6
v -5.3 8.7 0.6
v -5.1 8.7 0.6
v -3.7 8.7 0.6
v -3.5 8.7 0.6
v -6.9 8.7 0.3
v -6.7 8.7 0.3
v -5.3 8.7 0.3
v -5.1 8.7 0.3
v -3.7 8.7 0.3
v -3.5 8.7 0.3
v -1.3 11 0.5
v 2.6 11 0.5
v 2.8 11 0.5
v 6.7 11 0.5
v -1.3 11 0.3
v 2.6 11 0.3
v 2.8 11 0.3
v 6.7 11 0.3
v -9 1 0.4
v 9.1 1 0.4
v -9 1 0.3
v 9.1 1 0.3
v -1.3 4.4 0.5
v 2.6 4.4 0.5
v 2.8 4.4 0.5
v 6.7 4.4 0.5
v -1.3 4.4 0.3
v 2.6 4.4 0.3
v 2.8 4.4 0.3
v 6.7 4.4 0.3
v -6.9 8.9 0.5
v -6.7 8.9 0.5
v -5.3 8.9 0.5
v -5.1 8.9 0.5
v -3.7 8.9 0.5
v -3.5 8.9 0.5
v -6.9 8.9 0.4
v -6.7 8.9 0.4
v -5.3 8.9 0.4
v -5.1 8.9 0.4
v -3.7 8.9 0.4
v -3.5 8.9 0.4
v -6.9 9 0.6
v -6.7 9 0.6
v -5.3 9 0.6
v -5.1 9 0.6
v -3.7 9 0.6
v -3.5 9 0.6
v -6.9 9 0.5
v -6.7 9 0.5
v -5.3 9 0.5
v -5.1 9 0.5
v -3.7 9 0.5
v -3.5 9 0.5
v -6.9 9.2 0.4
v -6.7 9.2 0.4
v -5.3 9.2 0.4
v -5.1 9.2 0.4
v -3.7 9.2 0.4
v -3.5 9.2 0.4
v -6.9 9.2 0.3
v -6.7 9.2 0.3
v -5.3 9.2 0.3
v -5.1 9.2 0.3
v -3.7 9.2 0.3
v -3.5 9.2 0.3
v -1.4 11.1 0.5
v 6.8 11.1 0.5
v -1.4 11.1 0.4
v 6.8 11.1 0.4
v -1.5 11.2 0.4
v 6.9 11.2 0.4
v -1.5 11.2 0.3
v 6.9 11.2 0.3
v -9 12.5 0.3
v 9.1 12.5 0.3
v -9 12.5 -0.2
v 9.1 12.5 -0.2

# faces
f 4/1/1 2/1/1 1/1/1
f 5/1/1 4/1/1 3/1/1
f 6/1/1 2/1/1 4/1/1
f 6/1/1 4/1/1 5/1/1
f 7/1/1 2/1/1 6/1/1
f 8/1/1 2/1/1 7/1/1
f 11/3/1 10/3/1 9/3/1
f 12/3/1 10/3/1 11/3/1
f 13/3/1 11/3/1 9/3/1
f 14/3/1 11/3/1 13/3/1
f 15/3/1 10/3/1 12/3/1
f 16/3/1 10/3/1 15/3/1
f 19/3/1 18/3/1 17/3/1
f 20/3/1 18/3/1 19/3/1
f 21/3/1 19/3/1 17/3/1
f 22/3/1 19/3/1 21/3/1
f 23/3/1 18/3/1 20/3/1
f 24/3/1 18/3/1 23/3/1
f 27/3/1 26/3/1 25/3/1
f 28/3/1 26/3/1 27/3/1
f 29/3/1 27/3/1 25/3/1
f 30/3/1 27/3/1 29/3/1
f 31/3/1 26/3/1 28/3/1
f 32/3/1 26/3/1 31/3/1
f 35/4/1 34/4/1 33/4/1
f 36/4/1 34/4/1 35/4/1
f 39/4/1 38/4/1 37/4/1
f 40/4/1 38/4/1 39/4/1
f 43/4/1 42/4/1 41/4/1
f 44/4/1 42/4/1 43/4/1
f 47/4/1 46/4/1 45/4/1
f 48/4/1 46/4/1 47/4/1
f 49/3/2 50/3/2 51/3/2
f 51/3/2 50/3/2 52/3/2
f 49/3/2 51/3/2 53/3/2
f 53/3/2 51/3/2 54/3/2
f 52/3/2 50/3/2 55/3/2
f 55/3/2 50/3/2 56/3/2
f 57/3/2 58/3/2 59/3/2
f 59/3/2 58/3/2 60/3/2
f 57/3/2 59/3/2 61/3/2
f 61/3/2 59/3/2 62/3/2
f 60/3/2 58/3/2 63/3/2
f 63/3/2 58/3/2 64/3/2
f 65/3/2 66/3/2 67/3/2
f 67/3/2 66/3/2 68/3/2
f 65/3/2 67/3/2 69/3/2
f 69/3/2 67/3/2 70/3/2
f 68/3/2 66/3/2 71/3/2
f 71/3/2 66/3/2 72/3/2
f 73/4/2 74/4/2 75/4/2
f 75/4/2 74/4/2 76/4/2
f 77/4/2 78/4/2 79/4/2
f 79/4/2 78/4/2 80/4/2
f 81/4/2 82/4/2 83/4/2
f 83/4/2 82/4/2 84/4/2
f 85/4/2 86/4/2 87/4/2
f 87/4/2 86/4/2 88/4/2
f 89/1/2 90/1/2 92/1/2
f 91/1/2 92/1/2 93/1/2
f 92/1/2 90/1/2 94/1/2
f 93/1/2 92/1/2 94/1/2
f 94/1/2 90/1/2 95/1/2
f 95/1/2 90/1/2 96/1/2
f 99/3/3 98/3/3 97/3/3
f 100/3/3 98/3/3 99/3/3
f 103/3/3 102/3/3 101/3/3
f 104/3/3 102/3/3 103/3/3
f 107/3/3 106/3/3 105/3/3
f 108/3/3 106/3/3 107/3/3
f 111/4/3 110/4/3 109/4/3
f 112/4/3 110/4/3 111/4/3
f 113/4/3 111/4/3 109/4/3
f 114/4/3 110/4/3 112/4/3
f 115/4/3 113/4/3 109/4/3
f 115/4/3 114/4/3 113/4/3
f 116/4/3 110/4/3 114/4/3
f 116/4/3 114/4/3 115/4/3
f 117/4/3 115/4/3 109/4/3
f 118/4/3 110/4/3 116/4/3
f 119/4/3 117/4/3 109/4/3
f 119/4/3 118/4/3 117/4/3
f 120/4/3 110/4/3 118/4/3
f 120/4/3 118/4/3 119/4/3
f 125/3/3 124/3/3 123/3/3
f 126/3/3 124/3/3 125/3/3
f 129/3/3 128/3/3 127/3/3
f 130/3/3 128/3/3 129/3/3
f 133/3/3 132/3/3 131/3/3
f 134/3/3 132/3/3 133/3/3
f 137/4/3 136/4/3 135/4/3
f 138/4/3 136/4/3 137/4/3
f 139/4/3 137/4/3 135/4/3
f 140/4/3 136/4/3 138/4/3
f 141/4/3 139/4/3 135/4/3
f 141/4/3 140/4/3 139/4/3
f 142/4/3 136/4/3 140/4/3
f 142/4/3 140/4/3 141/4/3
f 143/1/3 122/1/3 121/1/3
f 144/1/3 122/1/3 143/1/3
f 149/1/3 148/1/3 147/1/3
f 150/1/3 148/1/3 149/1/3
f 151/1/3 149/1/3 147/1/3
f 152/1/3 148/1/3 150/1/3
f 153/1/3 151/1/3 147/1/3
f 153/1/3 152/1/3 151/1/3
f 154/1/3 148/1/3 152/1/3
f 154/1/3 152/1/3 153/1/3
f 155/1/3 153/1/3 147/1/3
f 156/1/3 148/1/3 154/1/3
f 157/1/3 155/1/3 147/1/3
f 157/1/3 156/1/3 155/1/3
f 158/1/3 148/1/3 156/1/3
f 158/1/3 156/1/3 157/1/3
f 159/1/3 157/1/3 147/1/3
f 160/1/3 148/1/3 158/1/3
f 161/1/3 159/1/3 147/1/3
f 161/1/3 160/1/3 159/1/3
f 162/1/3 148/1/3 160/1/3
f 162/1/3 160/1/3 161/1/3
f 165/2/3 164/2/3 163/2/3
f 166/2/3 164/2/3 165/2/3
f 169/2/3 168/2/3 167/2/3
f 170/2/3 168/2/3 169/2/3
f 171/1/3 161/1/3 147/1/3
f 172/1/3 148/1/3 162/1/3
f 173/1/3 146/1/3 145/1/3
f 174/1/3 146/1/3 173/1/3
f 175/1/3 172/1/3 171/1/3
f 175/1/3 171/1/3 147/1/3
f 176/1/3 148/1/3 172/1/3
f 176/1/3 172/1/3 175/1/3
f 177/3/4 178/3/4 179/3/4
f 179/3/4 178/3/4 180/3/4
f 181/3/4 182/3/4 183/3/4
f 183/3/4 182/3/4 184/3/4
f 185/3/4 186/3/4 187/3/4
f 187/3/4 186/3/4 188/3/4
f 189/1/4 190/1/4 191/1/4
f 191/1/4 190/1/4 192/1/4
f 191/4/4 192/4/4 193/4/4
f 193/4/4 192/4/4 194/4/4
f 191/4/4 193/4/4 195/4/4
f 193/2/4 194/2/4 195/2/4
f 194/4/4 192/4/4 196/4/4
f 195/2/4 194/2/4 196/2/4
f 191/4/4 195/4/4 197/4/4
f 195/4/4 196/4/4 197/4/4
f 196/4/4 192/4/4 198/4/4
f 197/4/4 196/4/4 198/4/4
f 191/4/4 197/4/4 199/4/4
f 197/2/4 198/2/4 199/2/4
f 198/4/4 192/4/4 200/4/4
f 199/2/4 198/2/4 200/2/4
f 189/1/4 191/1/4 201/1/4
f 191/4/4 199/4/4 201/4/4
f 199/4/4 200/4/4 201/4/4
f 200/4/4 192/4/4 202/4/4
f 201/4/4 200/4/4 202/4/4
f 192/1/4 190/1/4 202/1/4
f 189/1/4 201/1/4 203/1/4
f 201/1/4 202/1/4 203/1/4
f 202/1/4 190/1/4 204/1/4
f 203/1/4 202/1/4 204/1/4
f 207/1/5 206/1/5 205/1/5
f 208/1/5 206/1/5 207/1/5
f 211/1/5 210/1/5 209/1/5
f 212/1/5 210/1/5 211/1/5
f 215/4/5 214/4/5 213/4/5
f 216/4/5 214/4/5 215/4/5
f 219/4/5 218/4/5 217/4/5
f 220/4/5 218/4/5 219/4/5
f 227/3/5 222/3/5 221/3/5
f 228/3/5 222/3/5 227/3/5
f 229/3/5 224/3/5 223/3/5
f 230/3/5 224/3/5 229/3/5
f 231/3/5 226/3/5 225/3/5
f 232/3/5 226/3/5 231/3/5
f 237/4/5 234/4/5 233/4/5
f 238/4/5 234/4/5 237/4/5
f 239/4/5 236/4/5 235/4/5
f 240/4/5 236/4/5 239/4/5
f 241/1/6 242/1/6 243/1/6
f 243/1/6 242/1/6 244/1/6
f 245/4/6 246/4/6 249/4/6
f 249/4/6 246/4/6 250/4/6
f 247/4/6 248/4/6 251/4/6
f 251/4/6 248/4/6 252/4/6
f 253/3/6 254/3/6 259/3/6
f 259/3/6 254/3/6 260/3/6
f 255/3/6 256/3/6 261/3/6
f 261/3/6 256/3/6 262/3/6
f 257/3/6 258/3/6 263/3/6
f 263/3/6 258/3/6 264/3/6
f 265/3/6 266/3/6 271/3/6
f 271/3/6 266/3/6 272/3/6
f 267/3/6 268/3/6 273/3/6
f 273/3/6 268/3/6 274/3/6
f 269/3/6 270/3/6 275/3/6
f 275/3/6 270/3/6 276/3/6
f 277/3/6 278/3/6 283/3/6
f 283/3/6 278/3/6 284/3/6
f 279/3/6 280/3/6 285/3/6
f 285/3/6 280/3/6 286/3/6
f 281/3/6 282/3/6 287/3/6
f 287/3/6 282/3/6 288/3/6
f 289/4/6 290/4/6 291/4/6
f 291/4/6 290/4/6 292/4/6
f 293/4/6 294/4/6 295/4/6
f 295/4/6 294/4/6 296/4/6
f 297/1/6 298/1/6 299/1/6
f 299/1/6 298/1/6 300/1/6
